{"glyphs":{"0":{"ha":850,"x_min":76,"x_max":774,"o":"m 774 407 q 747 238 774 315 q 674 105 721 161 q 564 17 628 49 q 425 -14 500 -14 q 286 17 350 -14 q 176 105 222 49 q 103 238 129 161 q 76 407 76 315 q 103 576 76 499 q 176 709 129 653 q 286 797 222 765 q 425 829 350 829 q 564 797 500 829 q 674 709 628 765 q 747 576 721 653 q 774 407 774 499 m 678 407 q 659 543 678 482 q 607 648 640 604 q 527 716 574 692 q 425 740 481 740 q 322 716 368 740 q 242 648 275 692 q 190 543 208 604 q 171 407 171 482 q 190 271 171 332 q 242 166 208 210 q 322 99 275 122 q 425 75 368 75 q 527 99 481 75 q 607 166 574 122 q 659 271 640 210 q 678 407 678 332 z "},"1":{"ha":594,"x_min":64,"x_max":564,"o":"m 564 86 l 564 0 l 93 0 l 93 86 l 290 86 l 290 681 q 252 644 279 664 q 192 608 225 625 q 125 581 160 592 q 64 569 90 569 l 64 661 q 134 679 96 661 q 206 721 172 697 q 264 765 240 744 q 290 793 288 786 l 388 793 l 388 86 l 564 86 z "},"2":{"ha":724,"x_min":61,"x_max":657,"o":"m 61 0 q 69 95 61 47 q 102 190 78 143 q 172 281 126 238 q 292 364 217 325 q 376 405 332 385 q 456 450 419 425 q 517 506 493 475 q 540 579 540 538 q 528 631 540 606 q 494 677 517 657 q 437 710 471 697 q 357 722 403 722 q 275 709 311 722 q 212 678 239 696 q 165 640 185 660 q 136 607 146 619 l 74 675 q 106 706 82 683 q 167 750 129 728 q 257 790 206 772 q 372 807 308 807 q 486 790 436 807 q 571 742 536 772 q 624 672 606 711 q 642 589 642 632 q 617 490 642 532 q 555 418 592 449 q 476 366 518 388 q 401 329 435 344 q 315 285 357 310 q 239 232 272 261 q 184 167 206 203 q 163 86 163 131 l 657 86 l 657 0 l 61 0 z "},"3":{"ha":742,"x_min":53,"x_max":678,"o":"m 476 328 q 623 244 568 313 q 678 76 678 176 q 655 -38 678 14 q 590 -127 632 -90 q 488 -184 547 -164 q 357 -204 429 -204 q 172 -162 251 -204 q 53 -44 93 -119 l 118 15 q 207 -82 147 -46 q 357 -118 267 -118 q 521 -67 461 -118 q 581 78 581 -17 q 518 229 581 174 q 338 285 456 285 l 303 285 l 303 365 l 340 365 q 504 415 447 365 q 561 543 561 464 q 546 617 561 585 q 503 670 531 649 q 440 703 476 692 q 360 714 403 714 q 220 678 281 714 q 129 581 160 643 l 68 639 q 115 705 85 675 q 185 756 146 735 q 271 788 224 776 q 368 800 318 800 q 485 782 432 800 q 578 731 539 764 q 638 653 617 699 q 660 551 660 607 q 647 472 660 510 q 611 403 635 433 q 553 353 588 374 q 476 328 519 333 z "},"4":{"ha":758,"x_min":32,"x_max":711,"o":"m 494 -176 l 494 71 l 32 71 l 32 154 l 525 793 l 589 793 l 589 157 l 711 157 l 711 71 l 589 71 l 589 -176 l 494 -176 m 132 157 l 504 157 l 504 644 l 132 157 z "},"5":{"ha":757,"x_min":49,"x_max":707,"o":"m 385 433 q 511 410 453 433 q 613 346 569 388 q 682 247 657 304 q 707 119 707 189 q 680 -15 707 46 q 606 -117 653 -75 q 497 -183 560 -160 q 364 -207 435 -207 q 263 -194 311 -207 q 175 -156 215 -181 q 102 -96 135 -131 q 49 -18 69 -61 l 111 29 q 217 -81 150 -39 q 365 -122 285 -122 q 461 -105 417 -122 q 539 -56 506 -87 q 591 21 572 -24 q 610 118 610 65 q 592 212 610 169 q 542 285 574 254 q 467 332 510 315 q 374 349 424 349 q 251 320 308 349 q 157 238 193 292 l 69 238 q 76 275 71 246 q 90 344 82 304 q 108 434 99 385 q 128 533 118 483 q 179 793 151 650 l 656 793 l 656 706 l 250 706 l 182 351 q 270 412 218 390 q 385 433 322 433 z "},"6":{"ha":838,"x_min":72,"x_max":776,"o":"m 776 325 q 749 192 776 254 q 675 85 722 131 q 564 13 628 39 q 426 -14 500 -14 q 283 15 349 -14 q 172 96 218 43 q 99 226 125 149 q 72 399 72 303 q 99 660 72 549 q 173 847 125 772 q 288 957 221 921 q 436 993 354 993 q 613 944 535 993 q 731 810 690 896 l 669 754 q 578 867 640 825 q 436 910 515 910 q 325 881 375 910 q 240 797 275 851 q 184 661 204 742 q 164 479 164 581 q 269 610 194 561 q 438 658 343 658 q 570 633 508 658 q 678 562 632 607 q 750 456 724 517 q 776 325 776 394 m 429 69 q 528 90 482 69 q 610 144 575 110 q 666 226 646 179 q 686 325 686 272 q 665 424 686 378 q 609 506 644 471 q 527 560 574 540 q 428 581 481 581 q 328 560 375 581 q 247 506 282 540 q 191 424 211 471 q 171 325 171 378 q 192 226 171 272 q 248 145 213 181 q 330 90 283 110 q 429 69 376 69 z "},"7":{"ha":743,"x_min":47,"x_max":729,"o":"m 579 722 l 47 722 l 47 810 l 729 810 l 231 -176 l 122 -176 l 579 722 z "},"8":{"ha":824,"x_min":69,"x_max":754,"o":"m 754 274 q 726 156 754 208 q 651 67 699 104 q 541 9 604 29 q 408 -11 478 -11 q 272 12 335 -11 q 165 74 210 35 q 94 167 119 114 q 69 279 69 219 q 87 367 69 326 q 132 438 104 407 q 195 492 160 469 q 267 528 231 515 q 204 562 233 542 q 153 608 175 582 q 117 667 131 635 q 104 735 104 699 q 132 842 104 796 q 203 921 160 889 q 302 969 247 953 q 413 986 357 986 q 523 969 468 986 q 622 922 578 953 q 693 843 665 890 q 721 736 721 796 q 708 668 721 700 q 672 609 694 636 q 619 562 649 582 q 556 528 589 542 q 632 490 596 514 q 695 433 668 465 q 738 361 722 401 q 754 274 754 321 m 658 281 q 636 369 658 331 q 578 433 614 407 q 497 474 542 460 q 410 488 453 488 q 321 473 364 488 q 243 431 278 458 q 188 365 208 404 q 167 279 167 326 q 189 192 167 231 q 247 128 211 154 q 326 88 282 101 q 414 74 369 74 q 502 88 458 74 q 581 130 546 103 q 637 195 615 157 q 658 281 658 233 m 199 731 q 218 659 199 690 q 268 606 238 628 q 337 574 299 585 q 411 563 375 563 q 486 574 449 563 q 555 607 524 585 q 606 661 586 629 q 625 733 625 693 q 607 803 625 772 q 559 856 589 835 q 490 889 529 878 q 410 900 451 900 q 331 888 369 900 q 264 855 293 876 q 217 801 235 833 q 199 731 199 769 z "},"9":{"ha":814,"x_min":50,"x_max":754,"o":"m 50 454 q 77 587 50 525 q 151 694 104 649 q 263 767 199 740 q 400 793 326 793 q 543 765 478 793 q 655 683 608 736 q 728 553 701 631 q 754 381 754 476 q 728 119 754 231 q 653 -67 701 7 q 538 -178 606 -142 q 390 -214 471 -214 q 215 -165 293 -214 q 96 -31 136 -117 l 157 25 q 249 -88 186 -46 q 390 -131 313 -131 q 501 -101 451 -131 q 588 -17 551 -72 q 643 117 624 38 q 664 300 663 197 q 558 169 632 218 q 389 121 483 121 q 256 147 318 121 q 149 217 194 172 q 76 324 103 263 q 50 454 50 385 m 399 710 q 299 690 346 710 q 217 635 253 669 q 161 553 182 600 q 140 454 140 507 q 161 355 140 401 q 217 274 182 308 q 299 219 253 239 q 399 199 346 199 q 499 219 451 199 q 581 274 546 239 q 635 355 615 308 q 656 454 656 401 q 635 552 656 506 q 580 634 615 599 q 498 690 544 669 q 399 710 451 710 z "}," ":{"ha":354,"x_min":0,"x_max":0,"o":""},"!":{"ha":350,"x_min":128,"x_max":222,"o":"m 128 317 l 128 996 l 222 996 l 222 317 l 128 317 m 128 0 l 128 156 l 222 156 l 222 0 l 128 0 z "},"\"":{"ha":406,"x_min":96,"x_max":310,"o":"m 96 725 l 96 994 l 178 994 l 178 725 l 96 725 m 228 725 l 228 994 l 310 994 l 310 725 l 228 725 z "},"#":{"ha":944,"x_min":51,"x_max":892,"o":"m 892 635 l 713 635 l 647 363 l 833 363 l 833 288 l 629 288 l 560 0 l 479 0 l 550 288 l 288 288 l 218 0 l 138 0 l 208 288 l 51 288 l 51 363 l 226 363 l 292 635 l 111 635 l 111 706 l 310 706 l 378 986 l 458 986 l 389 706 l 651 706 l 719 986 l 800 986 l 731 706 l 892 706 l 892 635 m 568 363 l 633 635 l 371 635 l 306 363 l 568 363 z "},"$":{"ha":860,"x_min":53,"x_max":804,"o":"m 708 801 q 602 875 668 846 q 453 907 536 904 l 453 536 q 458 535 456 536 q 463 535 460 535 q 605 497 542 518 q 713 445 668 476 q 781 369 757 414 q 804 258 804 325 q 778 142 804 192 q 707 59 753 92 q 598 10 661 26 q 460 -8 535 -7 l 460 -143 l 408 -143 l 408 -7 q 53 135 206 3 l 101 214 q 231 124 150 161 q 413 79 313 86 l 413 450 l 404 453 q 268 490 326 471 q 169 539 210 510 q 109 609 129 568 q 89 710 89 650 q 113 826 89 775 q 178 912 136 876 q 278 967 219 947 q 408 992 338 988 l 408 1132 l 460 1132 l 460 993 q 624 960 551 990 q 756 879 697 931 l 708 801 m 701 249 q 685 319 701 290 q 638 371 669 349 q 560 410 607 393 q 453 442 514 426 l 453 78 q 636 120 571 78 q 701 249 701 163 m 189 724 q 202 656 189 683 q 242 609 215 629 q 312 574 269 589 q 413 546 354 560 l 413 906 q 242 851 294 900 q 189 724 189 803 z "},"S":{"ha":843,"x_min":44,"x_max":796,"o":"m 700 801 q 589 878 658 849 q 431 907 519 907 q 240 858 300 907 q 181 724 181 808 q 197 651 181 679 q 246 601 213 622 q 331 565 279 581 q 454 535 383 550 q 597 497 533 518 q 704 445 660 476 q 772 369 749 414 q 796 258 796 325 q 769 140 796 190 q 696 57 743 90 q 583 8 649 24 q 440 -8 518 -8 q 44 135 211 -8 l 93 214 q 156 161 119 186 q 238 117 193 136 q 335 88 283 99 q 443 78 386 78 q 627 120 561 78 q 693 249 693 163 q 674 326 693 294 q 618 380 656 357 q 525 419 581 403 q 396 453 469 436 q 260 490 318 471 q 161 539 201 510 q 101 609 121 568 q 81 710 81 650 q 106 831 81 778 q 179 920 132 885 q 290 974 226 956 q 432 993 354 993 q 608 963 531 993 q 747 879 685 933 l 700 801 z "},"%":{"ha":992,"x_min":56,"x_max":938,"o":"m 264 601 q 183 617 221 601 q 117 659 144 632 q 72 722 89 686 q 56 800 56 758 q 72 878 56 842 q 117 941 89 914 q 183 984 144 968 q 264 1000 221 1000 q 344 984 307 1000 q 410 941 382 968 q 455 878 439 914 q 471 800 471 842 q 455 722 471 758 q 410 659 439 686 q 344 617 382 632 q 264 601 307 601 m 264 656 q 317 667 292 656 q 360 699 342 679 q 390 745 379 719 q 400 800 400 771 q 389 857 400 831 q 359 903 378 883 q 315 933 340 922 q 264 944 290 944 q 210 933 235 944 q 166 901 185 921 q 137 855 147 881 q 126 800 126 829 q 138 744 126 771 q 167 698 149 718 q 211 667 186 678 q 264 656 236 656 m 729 -14 q 649 1 686 -14 q 583 44 611 17 q 538 108 554 71 q 522 186 522 144 q 538 264 522 228 q 583 327 554 300 q 649 369 611 354 q 729 385 686 385 q 810 369 772 385 q 876 327 849 354 q 921 264 904 300 q 938 186 938 228 q 921 108 938 144 q 876 44 904 71 q 810 1 849 17 q 729 -14 772 -14 m 729 42 q 783 53 758 42 q 826 85 807 65 q 855 131 844 104 q 865 186 865 157 q 854 242 865 215 q 824 288 843 268 q 781 319 806 308 q 729 331 756 331 q 676 319 701 331 q 633 287 651 307 q 603 241 614 267 q 593 186 593 215 q 604 129 593 156 q 634 83 615 103 q 677 53 653 64 q 729 42 701 42 m 90 38 l 478 510 l 856 992 l 904 950 l 517 478 l 138 -6 l 90 38 z "},"⁄":{"ha":214,"x_min":-300,"x_max":514,"o":"m -300 38 l 88 510 l 465 992 l 514 950 l 126 478 l -253 -6 l -300 38 z "},"&":{"ha":926,"x_min":65,"x_max":918,"o":"m 793 0 l 679 119 q 545 22 621 57 q 381 -14 469 -14 q 258 6 315 -14 q 158 60 200 25 q 90 145 115 96 q 65 254 65 194 q 82 346 65 304 q 128 423 99 388 q 194 489 157 458 q 274 547 232 519 q 210 619 236 588 q 169 678 185 651 q 146 731 153 706 q 139 782 139 756 q 158 867 139 828 q 210 936 176 907 q 288 982 243 965 q 386 999 333 999 q 476 985 435 999 q 549 945 518 971 q 599 883 581 919 q 617 804 617 847 q 599 726 617 761 q 553 658 582 690 q 485 597 524 626 q 401 539 446 568 l 678 250 q 722 365 706 303 q 738 494 738 426 l 818 494 q 795 332 817 408 q 733 192 774 256 l 918 0 l 793 0 m 390 63 q 521 92 461 63 q 626 175 581 122 l 328 490 q 206 383 254 439 q 157 251 157 326 q 177 170 157 206 q 231 110 197 135 q 306 74 264 86 q 390 63 347 63 m 226 785 q 231 751 226 768 q 250 713 236 735 q 287 663 264 692 q 347 596 310 635 q 478 695 428 649 q 529 801 529 742 q 489 890 529 856 q 386 925 449 925 q 322 914 351 925 q 272 883 293 903 q 238 839 250 864 q 226 785 226 814 z "},"'":{"ha":274,"x_min":96,"x_max":178,"o":"m 96 724 l 96 994 l 178 994 l 178 724 l 96 724 z "},"(":{"ha":374,"x_min":61,"x_max":328,"o":"m 61 481 q 76 620 61 551 q 118 756 92 689 q 180 891 144 824 q 256 1026 215 958 l 328 992 q 269 889 300 950 q 211 758 238 828 q 167 616 185 689 q 150 476 150 543 q 197 240 150 368 q 326 -14 244 111 l 256 -51 q 115 213 168 79 q 61 481 61 347 z "},")":{"ha":372,"x_min":44,"x_max":311,"o":"m 311 481 q 258 213 311 347 q 117 -51 206 79 l 47 -14 q 120 113 88 49 q 176 240 153 176 q 211 363 199 303 q 224 476 224 422 q 206 616 224 543 q 163 758 189 689 q 105 889 136 828 q 44 992 74 950 l 118 1026 q 194 891 158 958 q 255 756 229 824 q 296 620 281 689 q 311 481 311 551 z "},"*":{"ha":446,"x_min":86,"x_max":360,"o":"m 121 758 l 181 844 l 86 875 l 101 925 l 197 889 l 197 990 l 249 990 l 249 889 l 344 925 l 360 875 l 265 844 l 326 758 l 282 728 l 224 818 l 164 728 l 121 758 z "},"+":{"ha":576,"x_min":72,"x_max":504,"o":"m 504 532 l 504 454 l 332 454 l 332 267 l 244 267 l 244 454 l 72 454 l 72 532 l 244 532 l 244 719 l 332 719 l 332 532 l 504 532 z "},",":{"ha":313,"x_min":111,"x_max":203,"o":"m 119 -112 l 143 4 l 111 4 l 111 136 l 203 136 l 203 4 l 168 -112 l 119 -112 z "},"-":{"ha":586,"x_min":90,"x_max":496,"o":"m 90 335 l 90 422 l 496 422 l 496 335 l 90 335 z "},".":{"ha":263,"x_min":90,"x_max":172,"o":"m 90 0 l 90 136 l 172 136 l 172 0 l 90 0 z "},"/":{"ha":839,"x_min":38,"x_max":800,"o":"m 800 986 l 144 0 l 38 0 l 693 986 l 800 986 z "},":":{"ha":261,"x_min":90,"x_max":171,"o":"m 90 583 l 90 719 l 171 719 l 171 583 l 90 583 m 90 0 l 90 136 l 171 136 l 171 0 l 90 0 z "},";":{"ha":285,"x_min":97,"x_max":189,"o":"m 97 583 l 97 719 l 178 719 l 178 583 l 97 583 m 106 -112 l 129 4 l 97 4 l 97 136 l 189 136 l 189 4 l 154 -112 l 106 -112 z "},"<":{"ha":706,"x_min":46,"x_max":628,"o":"m 46 383 l 628 733 l 628 632 l 183 360 l 628 89 l 628 -15 l 46 332 l 46 383 z "},"=":{"ha":608,"x_min":94,"x_max":514,"o":"m 94 269 l 94 338 l 514 338 l 514 269 l 94 269 m 94 429 l 94 497 l 514 497 l 514 429 l 94 429 z "},">":{"ha":706,"x_min":76,"x_max":658,"o":"m 658 332 l 76 -15 l 76 89 l 521 360 l 76 632 l 76 733 l 658 383 l 658 332 z "},"?":{"ha":661,"x_min":47,"x_max":608,"o":"m 214 281 q 242 426 214 372 q 332 517 271 481 q 393 551 360 533 q 456 593 426 568 q 505 653 485 618 q 525 739 525 688 q 509 818 525 785 q 467 874 493 851 q 406 908 440 897 q 336 919 372 919 q 202 878 261 919 q 113 778 143 838 l 47 819 q 97 896 67 863 q 166 952 128 929 q 248 987 204 975 q 338 999 292 999 q 438 983 389 999 q 524 933 486 967 q 585 850 563 900 q 608 733 608 800 q 592 640 608 678 q 550 574 576 601 q 490 526 524 546 q 421 486 456 506 q 374 458 396 472 q 333 420 351 443 q 305 364 315 397 q 294 281 294 331 l 214 281 m 215 0 l 215 149 l 297 149 l 297 0 l 215 0 z "},"@":{"ha":1163,"x_min":65,"x_max":1085,"o":"m 579 838 q 774 799 682 838 q 935 691 865 761 q 1044 524 1004 621 q 1085 308 1085 426 q 1083 256 1085 289 q 1074 188 1081 224 q 1053 114 1067 151 q 1018 46 1040 76 q 963 -3 996 15 q 882 -22 929 -22 q 826 -12 847 -22 q 792 17 804 -1 q 774 58 779 35 q 765 106 768 81 q 665 36 726 65 q 531 7 604 7 q 377 59 432 7 q 322 193 322 111 q 345 282 322 246 q 405 340 368 318 q 488 370 442 361 q 579 379 533 379 q 686 367 640 379 q 756 347 732 356 q 748 438 756 397 q 721 508 740 479 q 668 554 701 538 q 583 571 635 571 q 479 553 529 571 q 389 506 429 536 l 364 560 q 470 613 414 593 q 592 632 526 632 q 713 606 668 632 q 782 540 758 581 q 812 448 806 499 q 818 347 818 397 l 818 168 q 820 112 818 138 q 830 68 822 86 q 852 40 838 50 q 890 29 867 29 q 961 59 933 29 q 1006 132 989 89 q 1028 224 1022 175 q 1035 311 1035 274 q 1000 499 1035 411 q 903 651 965 586 q 758 753 842 715 q 578 790 675 790 q 399 755 483 790 q 252 657 315 719 q 152 508 189 594 q 115 319 115 422 q 150 134 115 221 q 245 -17 185 47 q 389 -119 306 -82 q 571 -156 472 -156 q 681 -142 631 -156 q 783 -103 732 -128 l 801 -147 q 686 -189 744 -175 q 569 -203 628 -203 q 374 -164 465 -203 q 213 -55 282 -125 q 105 111 144 15 q 65 319 65 207 q 108 533 65 438 q 222 696 150 628 q 386 801 293 764 q 579 838 479 838 m 664 97 q 738 163 722 125 q 754 239 754 200 l 754 294 q 690 311 736 297 q 576 325 643 325 q 506 319 540 325 q 444 297 471 313 q 402 258 418 282 q 386 196 386 233 q 428 102 386 138 q 535 67 469 67 q 603 76 569 67 q 664 97 638 85 z "},"A":{"ha":939,"x_min":17,"x_max":921,"o":"m 429 986 l 511 986 l 921 0 l 818 0 l 690 308 l 247 308 l 121 0 l 17 0 l 429 986 m 668 385 l 469 872 l 268 385 l 668 385 z "},"B":{"ha":925,"x_min":124,"x_max":865,"o":"m 865 254 q 843 152 865 199 q 783 72 821 106 q 696 19 746 38 q 589 0 646 0 l 124 0 l 124 986 l 599 986 q 692 964 650 986 q 763 906 733 942 q 808 826 792 871 q 824 735 824 781 q 786 598 824 660 q 682 506 749 536 q 816 413 767 481 q 865 254 865 344 m 768 271 q 756 341 768 307 q 720 401 743 375 q 666 442 697 426 q 599 458 635 458 l 221 458 l 221 85 l 589 85 q 659 100 626 85 q 716 141 692 115 q 754 201 740 167 q 768 271 768 235 m 221 901 l 221 538 l 560 538 q 627 553 596 538 q 681 593 658 568 q 715 651 703 618 q 728 719 728 683 q 716 790 728 757 q 683 848 704 824 q 632 887 661 872 q 568 901 603 901 l 221 901 z "},"C":{"ha":953,"x_min":58,"x_max":910,"o":"m 58 500 q 90 677 58 589 q 181 835 121 765 q 328 948 240 904 q 526 992 415 992 q 752 932 658 992 q 890 776 846 872 l 814 729 q 756 811 790 778 q 683 865 722 844 q 603 895 644 886 q 521 904 561 904 q 364 868 432 904 q 249 774 296 832 q 179 642 203 715 q 156 494 156 569 q 184 338 156 413 q 262 205 213 263 q 378 113 311 147 q 525 79 446 79 q 610 90 567 79 q 695 123 654 100 q 771 180 736 146 q 829 263 806 214 l 910 221 q 843 123 886 165 q 747 51 800 81 q 635 7 694 22 q 519 -8 576 -8 q 333 36 418 -8 q 188 152 249 81 q 92 315 126 224 q 58 500 58 406 z "},"D":{"ha":993,"x_min":124,"x_max":931,"o":"m 124 0 l 124 986 l 458 986 q 665 947 576 986 q 812 842 753 908 q 901 685 871 775 q 931 494 931 596 q 897 291 931 382 q 802 135 864 200 q 653 35 740 71 q 458 0 567 0 l 124 0 m 833 494 q 808 658 833 583 q 735 786 783 732 q 618 870 688 840 q 458 900 549 900 l 221 900 l 221 86 l 458 86 q 620 117 550 86 q 738 203 690 149 q 809 333 785 258 q 833 494 833 407 z "},"E":{"ha":846,"x_min":124,"x_max":786,"o":"m 786 86 l 786 0 l 124 0 l 124 986 l 774 986 l 774 900 l 221 900 l 221 544 l 703 544 l 703 463 l 221 463 l 221 86 l 786 86 z "},"F":{"ha":818,"x_min":124,"x_max":771,"o":"m 124 0 l 124 986 l 771 986 l 771 900 l 221 900 l 221 538 l 685 538 l 685 457 l 221 457 l 221 0 l 124 0 z "},"G":{"ha":994,"x_min":58,"x_max":918,"o":"m 836 144 q 519 -7 699 -7 q 335 36 419 -7 q 190 150 251 79 q 93 310 128 221 q 58 494 58 400 q 92 683 58 593 q 188 842 126 774 q 332 952 249 911 q 514 993 415 993 q 646 977 586 993 q 752 933 706 961 q 833 865 799 904 q 890 778 867 825 l 815 728 q 689 863 767 819 q 513 906 611 906 q 365 871 431 906 q 252 778 299 836 q 181 647 206 721 q 156 493 156 572 q 184 335 156 410 q 263 203 213 260 q 380 114 313 147 q 526 81 447 81 q 688 120 611 81 q 836 246 765 160 l 836 410 l 617 410 l 617 485 l 918 485 l 918 0 l 836 0 l 836 144 z "},"H":{"ha":1025,"x_min":124,"x_max":901,"o":"m 901 986 l 901 0 l 806 0 l 806 461 l 221 461 l 221 0 l 124 0 l 124 986 l 221 986 l 221 547 l 806 547 l 806 986 l 901 986 z "},"I":{"ha":344,"x_min":124,"x_max":221,"o":"m 124 0 l 124 986 l 221 986 l 221 0 l 124 0 z "},"J":{"ha":668,"x_min":19,"x_max":557,"o":"m 47 124 q 126 88 78 103 q 233 72 174 72 q 353 99 308 72 q 422 179 399 126 q 453 309 446 232 q 460 485 460 386 l 460 986 l 557 986 l 557 485 q 547 280 557 372 q 503 122 536 188 q 406 21 469 57 q 233 -15 342 -15 q 19 46 108 -15 l 47 124 z "},"K":{"ha":893,"x_min":124,"x_max":892,"o":"m 124 0 l 124 985 l 221 985 l 221 413 l 764 986 l 871 986 l 468 553 l 892 0 l 785 0 l 407 496 l 221 303 l 221 0 l 124 0 z "},"L":{"ha":810,"x_min":124,"x_max":790,"o":"m 124 0 l 124 986 l 221 986 l 221 86 l 790 86 l 790 0 l 124 0 z "},"M":{"ha":1218,"x_min":124,"x_max":1094,"o":"m 997 0 l 997 810 l 638 183 l 581 183 l 221 810 l 221 0 l 124 0 l 124 986 l 224 986 l 608 311 l 996 986 l 1094 986 l 1094 0 l 997 0 z "},"N":{"ha":1072,"x_min":124,"x_max":949,"o":"m 221 806 l 221 0 l 124 0 l 124 986 l 199 986 l 851 165 l 851 985 l 949 985 l 949 0 l 864 0 l 221 806 z "},"O":{"ha":1043,"x_min":58,"x_max":983,"o":"m 521 -7 q 333 35 418 -7 q 186 148 247 78 q 92 308 125 218 q 58 493 58 399 q 94 682 58 592 q 192 842 129 772 q 339 952 254 911 q 522 993 424 993 q 710 949 625 993 q 856 835 796 906 q 950 674 917 764 q 983 492 983 585 q 948 303 983 393 q 851 144 913 213 q 704 34 789 75 q 521 -7 619 -7 m 156 493 q 182 338 156 413 q 257 206 208 264 q 372 115 306 149 q 521 81 439 81 q 672 117 604 81 q 788 211 740 153 q 860 343 835 269 q 886 493 886 417 q 859 648 886 574 q 783 779 832 722 q 668 870 735 836 q 521 904 601 904 q 369 869 438 904 q 254 775 301 833 q 181 643 207 717 q 156 493 156 569 z "},"P":{"ha":864,"x_min":124,"x_max":825,"o":"m 124 0 l 124 986 l 532 986 q 649 959 596 986 q 742 888 703 932 q 803 789 781 844 q 825 676 825 733 q 804 559 825 615 q 746 460 783 503 q 656 390 708 417 q 540 364 604 364 l 221 364 l 221 0 l 124 0 m 221 450 l 536 450 q 615 469 579 450 q 675 519 650 488 q 714 591 700 550 q 728 676 728 632 q 712 763 728 722 q 669 835 696 804 q 605 883 642 865 q 528 900 568 900 l 221 900 l 221 450 z "},"Q":{"ha":1040,"x_min":58,"x_max":983,"o":"m 790 88 q 666 18 733 43 q 521 -7 599 -7 q 333 36 418 -7 q 186 149 247 79 q 92 308 125 218 q 58 493 58 399 q 94 682 58 592 q 192 842 129 772 q 339 952 254 911 q 522 993 424 993 q 710 949 625 993 q 856 835 796 906 q 950 674 917 764 q 983 492 983 585 q 947 299 983 390 q 844 138 910 207 l 961 0 l 865 0 l 790 88 m 521 81 q 636 101 583 81 q 733 156 689 121 l 610 303 l 706 303 l 785 208 q 860 341 833 267 q 886 493 886 415 q 859 648 886 574 q 783 779 832 722 q 668 871 735 836 q 521 906 601 906 q 369 870 438 906 q 254 776 301 835 q 181 644 207 718 q 156 493 156 569 q 182 338 156 413 q 257 206 208 264 q 372 115 306 149 q 521 81 439 81 z "},"R":{"ha":907,"x_min":124,"x_max":854,"o":"m 124 0 l 124 986 l 540 986 q 658 959 604 986 q 750 888 711 932 q 810 789 789 844 q 832 676 832 733 q 816 573 832 622 q 772 484 800 524 q 703 417 743 444 q 613 381 663 390 l 854 0 l 744 0 l 513 364 l 221 364 l 221 0 l 124 0 m 221 450 l 543 450 q 622 469 586 450 q 682 519 657 488 q 721 592 707 551 q 735 676 735 632 q 719 762 735 721 q 676 833 703 803 q 612 882 649 864 q 535 900 575 900 l 221 900 l 221 450 z "},"T":{"ha":847,"x_min":24,"x_max":824,"o":"m 824 900 l 472 900 l 472 0 l 375 0 l 375 900 l 24 900 l 24 986 l 824 986 l 824 900 z "},"U":{"ha":1049,"x_min":110,"x_max":940,"o":"m 524 81 q 678 116 617 81 q 777 209 740 151 q 828 340 814 267 q 843 489 843 414 l 843 986 l 940 986 l 940 489 q 918 299 940 389 q 847 142 896 210 q 718 33 797 74 q 525 -7 639 -7 q 328 35 408 -7 q 200 147 249 78 q 131 306 151 217 q 110 489 110 394 l 110 986 l 206 986 l 206 489 q 221 338 206 411 q 273 207 236 264 q 371 115 310 150 q 524 81 432 81 z "},"V":{"ha":943,"x_min":18,"x_max":925,"o":"m 119 986 l 472 121 l 824 986 l 925 986 l 514 0 l 429 0 l 18 986 l 119 986 z "},"W":{"ha":1453,"x_min":17,"x_max":1438,"o":"m 494 979 l 586 979 l 725 629 l 865 979 l 958 979 l 786 558 l 975 113 l 1332 986 l 1438 986 l 1019 0 l 933 0 l 726 488 l 518 0 l 433 0 l 17 986 l 121 986 l 479 113 l 667 558 l 494 979 z "},"X":{"ha":878,"x_min":7,"x_max":871,"o":"m 117 986 l 440 556 l 764 986 l 871 986 l 492 486 l 860 0 l 753 0 l 440 417 l 128 0 l 18 0 l 386 486 l 7 986 l 117 986 z "},"Y":{"ha":904,"x_min":22,"x_max":882,"o":"m 129 986 l 451 456 l 776 986 l 882 986 l 500 367 l 500 0 l 403 0 l 403 369 l 22 986 l 129 986 z "},"Z":{"ha":874,"x_min":43,"x_max":826,"o":"m 43 76 l 714 900 l 54 900 l 54 986 l 826 986 l 826 910 l 164 86 l 825 86 l 825 0 l 43 0 l 43 76 z "},"[":{"ha":358,"x_min":122,"x_max":288,"o":"m 122 -56 l 122 1028 l 288 1028 l 288 949 l 211 949 l 211 24 l 288 24 l 288 -56 l 122 -56 z "},"\\":{"ha":789,"x_min":39,"x_max":750,"o":"m 146 986 l 750 0 l 644 0 l 39 986 l 146 986 z "},"]":{"ha":358,"x_min":69,"x_max":236,"o":"m 69 -56 l 69 24 l 147 24 l 147 949 l 69 949 l 69 1028 l 236 1028 l 236 -56 l 69 -56 z "},"^":{"ha":749,"x_min":60,"x_max":689,"o":"m 60 421 l 335 986 l 415 986 l 689 421 l 606 421 l 375 897 l 140 421 l 60 421 z "},"_":{"ha":710,"x_min":90,"x_max":619,"o":"m 90 -86 l 90 0 l 619 0 l 619 -86 l 90 -86 z "},"`":{"ha":308,"x_min":68,"x_max":250,"o":"m 68 1014 l 167 1014 l 250 885 l 189 861 l 68 1014 z "},"a":{"ha":757,"x_min":46,"x_max":692,"o":"m 286 -14 q 191 3 235 -14 q 115 51 147 21 q 64 123 82 82 q 46 211 46 164 q 68 299 46 258 q 131 368 90 339 q 226 413 171 397 q 349 429 282 429 q 461 419 404 429 q 563 392 518 410 l 563 457 q 508 609 563 553 q 358 665 454 665 q 244 643 303 665 q 126 579 186 621 l 93 642 q 365 736 233 736 q 579 660 501 736 q 657 449 657 583 l 657 122 q 692 83 657 83 l 692 0 q 656 -4 668 -4 q 599 14 619 -4 q 578 64 579 32 l 575 121 q 449 21 525 56 q 286 -14 374 -14 m 308 58 q 444 86 382 58 q 538 160 506 114 q 556 187 550 172 q 563 214 563 201 l 563 332 q 465 360 515 350 q 361 369 414 369 q 199 328 261 369 q 136 218 136 286 q 149 156 136 185 q 185 105 163 126 q 240 71 208 83 q 308 58 272 58 z "},"b":{"ha":857,"x_min":104,"x_max":801,"o":"m 458 -14 q 301 29 372 -14 q 189 140 229 72 l 189 0 l 104 0 l 104 1014 l 199 1014 l 199 572 q 315 691 247 646 q 474 736 383 736 q 610 704 550 736 q 713 619 671 672 q 778 498 756 565 q 801 360 801 431 q 775 215 801 283 q 703 97 749 147 q 594 16 657 46 q 458 -14 531 -14 m 436 69 q 545 94 496 69 q 630 159 594 118 q 685 252 665 200 q 706 360 706 304 q 687 469 706 417 q 634 563 668 522 q 552 628 600 604 q 447 653 504 653 q 367 638 404 653 q 297 599 329 624 q 240 541 265 574 q 199 472 215 508 l 199 247 q 228 177 204 210 q 287 121 253 144 q 360 83 321 97 q 436 69 400 69 z "},"c":{"ha":763,"x_min":54,"x_max":718,"o":"m 54 364 q 81 508 54 440 q 155 627 107 576 q 269 707 203 678 q 417 736 336 736 q 596 690 519 736 q 711 564 672 643 l 619 535 q 534 622 589 590 q 413 653 479 653 q 309 631 357 653 q 226 570 261 608 q 170 479 190 532 q 150 364 150 426 q 171 249 150 303 q 228 155 192 194 q 312 92 264 115 q 414 69 360 69 q 483 79 449 69 q 546 106 517 89 q 596 146 575 124 q 625 193 617 168 l 718 165 q 674 94 703 126 q 605 37 644 61 q 517 -1 565 13 q 418 -14 469 -14 q 272 16 339 -14 q 157 98 206 46 q 81 218 108 150 q 54 364 54 286 z "},"d":{"ha":864,"x_min":56,"x_max":788,"o":"m 401 -14 q 263 17 326 -14 q 153 100 199 49 q 81 219 107 151 q 56 360 56 286 q 81 505 56 436 q 149 625 106 574 q 253 706 193 676 q 386 736 314 736 q 549 688 478 736 q 660 572 619 640 l 660 1014 l 754 1014 l 754 122 q 788 83 754 83 l 788 0 q 754 -4 767 -4 q 696 17 721 -4 q 671 69 671 39 l 671 140 q 554 28 628 69 q 401 -14 481 -14 m 422 69 q 497 83 457 69 q 571 122 536 97 q 630 178 606 146 q 660 249 654 211 l 660 472 q 619 542 646 510 q 559 600 593 575 q 486 639 525 625 q 410 653 447 653 q 304 628 351 653 q 223 562 257 603 q 171 468 189 521 q 153 360 153 415 q 174 249 153 301 q 231 156 194 196 q 316 93 267 117 q 422 69 365 69 z "},"e":{"ha":815,"x_min":54,"x_max":774,"o":"m 417 -14 q 272 16 338 -14 q 157 98 206 46 q 81 218 108 150 q 54 364 54 286 q 81 508 54 440 q 156 626 108 575 q 271 706 204 676 q 415 736 338 736 q 560 706 494 736 q 674 625 626 676 q 747 507 721 574 q 774 365 774 440 q 774 343 774 354 q 772 328 774 332 l 153 328 q 180 220 157 269 q 239 135 203 171 q 322 78 275 99 q 421 58 368 58 q 490 68 456 58 q 554 94 525 78 q 607 135 583 111 q 643 189 631 160 l 725 167 q 678 94 708 126 q 607 37 647 61 q 518 -1 567 13 q 417 -14 469 -14 m 683 400 q 656 506 679 458 q 598 589 633 554 q 516 643 563 624 q 417 663 469 663 q 317 643 364 663 q 234 589 269 624 q 177 506 199 554 q 151 400 156 457 l 683 400 z "},"f":{"ha":458,"x_min":39,"x_max":504,"o":"m 139 0 l 139 649 l 39 649 l 39 724 l 139 724 l 139 743 q 196 952 139 876 q 351 1028 253 1028 q 435 1015 394 1028 q 504 982 475 1003 l 475 914 q 427 938 456 929 q 369 946 399 946 q 268 894 303 946 q 233 746 233 843 l 233 724 l 433 724 l 433 649 l 233 649 l 233 0 l 139 0 z "},"g":{"ha":858,"x_min":56,"x_max":754,"o":"m 394 -10 q 258 22 319 -10 q 151 104 196 53 q 81 222 106 156 q 56 360 56 289 q 80 503 56 435 q 149 624 104 572 q 255 706 193 675 q 392 736 317 736 q 553 690 485 736 q 669 572 621 643 l 669 724 l 754 724 l 754 -3 q 726 -135 754 -78 q 649 -232 697 -193 q 537 -290 601 -271 q 400 -310 472 -310 q 199 -265 275 -310 q 75 -146 122 -221 l 133 -100 q 247 -202 176 -169 q 400 -235 318 -235 q 500 -220 453 -235 q 583 -177 547 -206 q 639 -105 618 -149 q 660 -3 660 -61 l 660 140 q 546 31 618 71 q 394 -10 474 -10 m 421 69 q 503 85 463 69 q 576 126 543 100 q 631 183 608 151 q 660 249 653 215 l 660 472 q 618 544 644 511 q 558 601 592 578 q 487 639 525 625 q 410 653 449 653 q 301 627 349 653 q 219 560 253 601 q 169 465 186 518 q 151 358 151 413 q 172 247 151 300 q 230 155 193 194 q 315 92 267 115 q 421 69 364 69 z "},"h":{"ha":810,"x_min":104,"x_max":713,"o":"m 713 0 l 618 0 l 618 404 q 576 589 618 528 q 451 650 533 650 q 372 634 411 650 q 297 590 332 618 q 237 525 263 563 q 199 443 211 488 l 199 0 l 104 0 l 104 1014 l 199 1014 l 199 560 q 318 689 242 642 q 483 736 394 736 q 589 713 546 736 q 660 649 632 690 q 700 551 688 608 q 713 424 713 493 l 713 0 z "},"i":{"ha":303,"x_min":104,"x_max":199,"o":"m 104 0 l 104 724 l 199 724 l 199 0 l 104 0 m 104 875 l 104 1014 l 199 1014 l 199 875 l 104 875 z "},"j":{"ha":313,"x_min":-162,"x_max":208,"o":"m -4 -251 q -90 -239 -50 -251 q -162 -197 -131 -226 l -117 -133 q -68 -160 -94 -153 q -15 -167 -42 -167 q 33 -157 10 -167 q 74 -130 56 -147 q 103 -89 92 -112 q 114 -37 114 -65 l 114 724 l 208 724 l 208 -32 q 190 -121 208 -81 q 142 -190 172 -161 q 74 -235 113 -219 q -4 -251 36 -251 m 114 875 l 114 1014 l 208 1014 l 208 875 l 114 875 z "},"k":{"ha":736,"x_min":104,"x_max":724,"o":"m 621 0 l 354 371 l 199 226 l 199 0 l 104 0 l 104 1014 l 199 1014 l 199 325 l 606 722 l 713 722 l 417 426 l 724 0 l 621 0 z "},"l":{"ha":378,"x_min":108,"x_max":379,"o":"m 108 1014 l 203 1014 l 203 164 q 225 101 203 124 q 288 78 247 78 q 324 82 303 78 q 363 93 344 86 l 379 17 q 315 -1 353 6 q 249 -8 276 -8 q 146 28 183 -8 q 108 132 108 65 l 108 1014 z "},"m":{"ha":1276,"x_min":104,"x_max":1181,"o":"m 1181 0 l 1086 0 l 1086 404 q 1046 590 1086 531 q 926 650 1006 650 q 848 635 885 650 q 780 592 811 619 q 725 526 749 564 q 689 442 701 488 l 689 0 l 594 0 l 594 404 q 556 592 594 533 q 436 650 517 650 q 290 593 354 650 q 199 443 226 536 l 199 0 l 104 0 l 104 724 l 190 724 l 190 560 q 307 690 235 643 q 467 736 379 736 q 613 685 558 736 q 681 550 668 633 q 960 736 782 736 q 1063 714 1021 736 q 1131 651 1106 692 q 1169 552 1157 610 q 1181 424 1181 494 l 1181 0 z "},"n":{"ha":810,"x_min":104,"x_max":713,"o":"m 713 0 l 618 0 l 618 404 q 580 592 618 533 q 463 650 542 650 q 379 635 421 650 q 302 592 338 619 q 239 526 267 564 q 199 443 211 488 l 199 0 l 104 0 l 104 724 l 190 724 l 190 560 q 317 688 235 639 q 497 736 400 736 q 599 714 557 736 q 665 651 640 692 q 701 553 690 611 q 713 424 713 494 l 713 0 z "},"o":{"ha":826,"x_min":54,"x_max":772,"o":"m 413 -14 q 268 16 333 -14 q 155 97 203 46 q 81 217 107 149 q 54 360 54 285 q 81 504 54 436 q 156 624 108 572 q 269 706 204 675 q 413 736 335 736 q 556 706 490 736 q 670 624 622 675 q 745 504 718 572 q 772 360 772 436 q 746 217 772 285 q 672 97 719 149 q 558 16 624 46 q 413 -14 492 -14 m 150 358 q 171 245 150 297 q 227 153 192 193 q 310 92 263 114 q 413 69 358 69 q 515 92 467 69 q 599 155 563 115 q 656 247 635 194 q 676 361 676 300 q 656 474 676 421 q 599 567 635 528 q 515 630 563 607 q 413 653 467 653 q 311 630 358 653 q 228 567 264 607 q 171 473 192 526 q 150 358 150 419 z "},"p":{"ha":857,"x_min":104,"x_max":801,"o":"m 474 -14 q 312 33 382 -14 q 199 150 242 79 l 199 -296 l 104 -296 l 104 724 l 189 724 l 189 583 q 304 694 233 651 q 458 736 375 736 q 596 705 533 736 q 704 622 658 674 q 776 501 750 569 q 801 361 801 433 q 778 217 801 285 q 710 97 754 149 q 606 16 667 46 q 474 -14 546 -14 m 447 69 q 553 94 506 69 q 635 160 601 119 q 688 253 669 201 q 706 361 706 306 q 685 472 706 419 q 628 565 664 525 q 542 629 592 606 q 436 653 493 653 q 360 638 400 653 q 287 599 321 624 q 228 542 253 575 q 199 474 204 510 l 199 251 q 241 179 215 213 q 299 122 267 146 q 369 83 332 97 q 447 69 407 69 z "},"q":{"ha":857,"x_min":56,"x_max":788,"o":"m 383 -14 q 249 17 310 -14 q 146 101 189 49 q 79 220 103 153 q 56 361 56 288 q 82 504 56 436 q 155 624 108 572 q 265 706 201 675 q 400 736 328 736 q 481 724 442 736 q 556 692 521 713 q 619 644 590 672 q 668 582 647 615 l 668 724 l 753 724 l 753 -169 q 788 -210 753 -208 l 788 -292 q 760 -294 774 -294 q 735 -294 747 -294 q 681 -267 703 -292 q 658 -210 658 -243 l 658 150 q 536 28 606 69 q 383 -14 467 -14 m 413 69 q 491 83 454 69 q 559 120 528 97 q 615 174 590 143 q 658 240 640 206 l 658 464 q 629 535 653 501 q 572 596 606 569 q 497 638 538 622 q 418 653 457 653 q 310 628 360 653 q 226 562 261 603 q 171 468 190 521 q 151 360 151 415 q 171 249 151 301 q 225 156 190 196 q 308 93 260 117 q 413 69 356 69 z "},"r":{"ha":488,"x_min":104,"x_max":465,"o":"m 465 640 q 299 588 369 638 q 199 450 228 538 l 199 0 l 104 0 l 104 724 l 193 724 l 193 550 q 301 681 233 633 q 447 728 369 728 q 465 726 458 728 l 465 640 z "},"s":{"ha":676,"x_min":40,"x_max":626,"o":"m 344 -14 q 179 14 260 -14 q 40 94 99 42 l 83 158 q 208 83 144 108 q 343 58 271 58 q 483 94 431 58 q 535 194 535 129 q 521 245 535 225 q 480 281 507 265 q 412 308 453 296 q 317 332 371 319 q 208 363 254 347 q 133 397 163 378 q 88 445 103 417 q 74 517 74 474 q 95 613 74 571 q 153 681 117 654 q 240 722 190 708 q 344 736 289 736 q 496 709 428 736 q 606 638 564 682 l 560 582 q 462 644 519 624 q 342 665 404 665 q 272 658 304 665 q 216 633 240 650 q 178 591 192 617 q 164 531 164 565 q 174 483 164 501 q 206 452 183 465 q 262 428 228 439 q 344 407 296 418 q 467 374 414 390 q 555 335 519 357 q 608 281 590 313 q 626 203 626 249 q 550 44 626 103 q 344 -14 474 -14 z "},"t":{"ha":465,"x_min":35,"x_max":451,"o":"m 451 35 q 427 24 443 31 q 390 10 411 17 q 343 -3 369 3 q 288 -8 317 -8 q 229 0 257 -8 q 181 26 201 8 q 147 69 160 43 q 135 131 135 96 l 135 649 l 35 649 l 35 724 l 135 724 l 135 968 l 229 968 l 229 724 l 396 724 l 396 649 l 229 649 l 229 157 q 258 98 232 117 q 317 79 283 79 q 388 92 357 79 q 426 111 418 106 l 451 35 z "},"u":{"ha":825,"x_min":97,"x_max":749,"o":"m 331 -14 q 155 65 213 -14 q 97 299 97 143 l 97 724 l 192 724 l 192 315 q 360 69 192 69 q 442 83 401 69 q 516 124 482 97 q 577 186 550 150 q 621 268 604 222 l 621 724 l 715 724 l 715 122 q 749 83 715 83 l 749 0 q 722 -3 732 -3 q 707 -3 711 -3 q 653 21 674 -1 q 632 81 632 43 l 632 164 q 503 33 585 79 q 331 -14 422 -14 z "},"v":{"ha":740,"x_min":26,"x_max":714,"o":"m 321 0 l 26 724 l 124 724 l 372 88 l 622 724 l 714 724 l 419 0 l 321 0 z "},"w":{"ha":1129,"x_min":21,"x_max":1108,"o":"m 1015 724 l 1108 724 l 797 0 l 719 0 l 564 369 l 410 0 l 332 0 l 21 724 l 113 724 l 376 97 l 514 428 l 390 722 l 469 722 l 564 486 l 658 722 l 739 722 l 615 428 l 753 97 l 1015 724 z "},"x":{"ha":700,"x_min":21,"x_max":679,"o":"m 122 724 l 339 440 l 350 419 l 361 440 l 578 724 l 679 724 l 403 360 l 679 0 l 578 0 l 361 282 l 350 301 l 339 282 l 122 0 l 21 0 l 297 360 l 21 724 l 122 724 z "},"y":{"ha":753,"x_min":21,"x_max":725,"o":"m 146 -222 q 167 -224 157 -224 q 188 -225 178 -225 q 227 -218 213 -225 q 256 -187 242 -211 q 287 -119 269 -164 q 336 0 304 -75 l 21 724 l 118 724 l 386 88 l 635 724 l 725 724 l 350 -210 q 299 -280 335 -250 q 203 -310 264 -310 q 176 -309 189 -310 q 146 -306 164 -308 l 146 -222 z "},"z":{"ha":683,"x_min":43,"x_max":635,"o":"m 43 64 l 532 653 l 54 653 l 54 724 l 635 724 l 635 660 l 147 71 l 633 71 l 633 0 l 43 0 l 43 64 z "},"{":{"ha":360,"x_min":74,"x_max":290,"o":"m 214 949 l 214 586 q 206 544 214 569 q 176 500 199 519 q 206 455 199 481 q 214 414 214 429 l 214 36 l 290 36 l 290 -43 l 160 -43 q 138 -34 149 -43 q 128 -1 128 -25 l 128 389 q 114 440 128 417 q 74 465 100 463 l 74 538 q 98 546 88 538 q 115 565 108 554 q 125 590 122 576 q 128 611 128 603 l 128 986 q 140 1020 128 1013 q 160 1028 153 1028 l 290 1028 l 290 949 l 214 949 z "},"|":{"ha":321,"x_min":119,"x_max":201,"o":"m 119 -181 l 119 1076 l 201 1076 l 201 -181 l 119 -181 z "},"}":{"ha":360,"x_min":69,"x_max":285,"o":"m 69 949 l 69 1028 l 200 1028 q 219 1020 207 1028 q 232 986 232 1013 l 232 611 q 235 590 232 603 q 244 565 238 576 q 260 546 250 554 q 285 538 269 538 l 285 465 q 245 440 258 463 q 232 389 232 417 l 232 -1 q 222 -34 232 -25 q 200 -43 211 -43 l 69 -43 l 69 36 l 146 36 l 146 414 q 153 455 146 429 q 182 500 160 481 q 153 544 160 519 q 146 586 146 569 l 146 949 l 69 949 z "},"~":{"ha":710,"x_min":92,"x_max":619,"o":"m 92 335 q 100 365 92 342 q 126 413 108 388 q 172 458 143 438 q 242 478 200 478 q 301 465 274 478 q 356 438 329 453 q 408 410 382 422 q 464 397 435 397 q 508 408 490 397 q 538 431 526 418 q 555 455 550 443 q 560 469 560 467 l 619 469 q 612 445 619 467 q 586 399 604 424 q 538 355 568 375 q 463 335 507 335 q 399 347 428 335 q 342 375 369 360 q 290 403 315 390 q 240 415 265 415 q 199 403 215 415 q 172 376 182 390 q 156 349 161 361 q 151 335 151 336 l 92 335 l 92 335 z "}," ":{"ha":354,"x_min":0,"x_max":0,"o":""},"¡":{"ha":349,"x_min":126,"x_max":221,"o":"m 221 676 l 221 -3 l 126 -3 l 126 676 l 221 676 m 221 993 l 221 838 l 126 838 l 126 993 l 221 993 z "},"¢":{"ha":779,"x_min":60,"x_max":725,"o":"m 383 -167 l 383 -12 q 253 27 313 -7 q 151 113 193 61 q 84 228 108 164 q 60 358 60 292 q 83 494 60 429 q 147 610 106 558 q 249 694 189 661 q 383 735 308 728 l 383 896 l 435 896 l 435 735 q 608 687 539 732 q 717 564 678 642 l 626 535 q 544 619 594 592 q 435 650 494 647 l 435 71 q 493 82 461 72 q 553 107 525 92 q 603 144 582 122 q 632 193 625 167 l 725 165 q 675 87 708 121 q 601 31 642 53 q 516 -3 560 8 q 435 -14 472 -14 l 435 -167 l 383 -167 m 157 358 q 174 259 157 307 q 221 173 190 211 q 293 109 251 135 q 383 75 335 83 l 383 647 q 287 615 329 642 q 216 549 244 589 q 172 458 188 508 q 157 358 157 408 z "},"£":{"ha":693,"x_min":72,"x_max":633,"o":"m 72 517 l 203 517 q 171 574 188 546 q 140 632 154 603 q 117 692 126 661 q 108 756 108 722 q 128 849 108 806 q 182 924 147 892 q 262 974 217 956 q 360 993 307 993 q 502 954 435 993 q 611 847 569 915 l 556 789 q 469 881 522 847 q 357 914 415 914 q 294 901 324 914 q 242 867 264 889 q 208 815 221 844 q 196 750 196 785 q 206 691 196 719 q 229 634 215 663 q 260 577 243 606 q 292 517 276 549 l 539 517 l 539 442 l 319 442 q 331 358 331 400 q 299 224 331 289 q 188 75 267 160 q 289 88 238 88 q 343 83 318 88 q 392 75 368 79 q 438 67 415 71 q 486 63 461 63 q 543 69 514 63 q 610 88 572 75 l 633 15 q 558 -12 597 -3 q 482 -21 519 -21 q 422 -16 450 -21 q 367 -5 394 -11 q 310 7 339 1 q 250 13 282 13 q 177 6 218 13 q 100 -11 136 0 l 75 58 q 156 145 122 106 q 209 219 189 185 q 238 287 229 254 q 247 353 247 319 q 244 399 247 376 q 233 442 240 421 l 72 442 l 72 517 z "},"¤":{"ha":746,"x_min":74,"x_max":674,"o":"m 217 667 q 372 721 279 721 q 458 706 418 721 q 529 667 497 692 l 626 765 l 674 719 l 574 619 q 610 549 597 588 q 622 467 622 510 q 609 385 622 425 q 572 314 596 346 l 674 214 l 632 174 l 529 269 q 459 230 499 244 q 372 215 419 215 q 285 230 325 215 q 214 269 246 244 l 115 174 l 74 214 l 172 313 q 122 467 122 382 q 171 621 122 556 l 74 719 l 119 765 l 217 667 m 201 465 q 215 394 201 428 q 251 336 228 361 q 306 297 275 311 q 372 282 336 282 q 438 297 407 282 q 493 336 469 311 q 530 395 517 361 q 543 468 543 429 q 530 541 543 507 q 493 600 517 575 q 438 639 469 625 q 372 653 407 653 q 306 638 336 653 q 251 599 275 624 q 215 539 228 574 q 201 465 201 504 z "},"¥":{"ha":939,"x_min":40,"x_max":900,"o":"m 600 508 l 717 508 l 717 442 l 563 442 l 517 367 l 517 329 l 718 329 l 718 263 l 517 263 l 517 0 l 419 0 l 419 263 l 221 263 l 221 329 l 419 329 l 419 369 l 376 442 l 221 442 l 221 508 l 340 508 l 40 986 l 146 986 l 468 456 l 793 986 l 900 986 l 600 508 z "},"¦":{"ha":325,"x_min":121,"x_max":204,"o":"m 204 385 l 204 -181 l 121 -181 l 121 385 l 204 385 m 204 1076 l 204 511 l 121 511 l 121 1076 l 204 1076 z "},"§":{"ha":703,"x_min":65,"x_max":643,"o":"m 579 271 q 627 215 611 251 q 643 129 643 178 q 617 15 643 63 q 549 -63 590 -33 q 456 -108 507 -93 q 358 -122 406 -122 q 272 -110 313 -122 q 198 -81 232 -99 q 135 -40 164 -62 q 86 4 107 -18 l 149 63 q 354 -32 247 -32 q 424 -22 390 -32 q 485 8 458 -12 q 529 57 513 28 q 546 125 546 86 q 528 189 546 165 q 485 225 511 213 q 428 242 458 238 q 371 249 397 246 q 170 313 240 260 q 100 469 100 367 q 110 542 100 511 q 136 593 121 574 q 86 657 107 614 q 65 753 65 700 q 88 851 65 807 q 149 926 111 894 q 238 976 188 958 q 346 993 289 993 q 496 953 435 993 q 593 861 557 914 l 518 826 q 488 864 507 849 q 444 889 468 879 q 395 903 421 899 q 346 907 369 907 q 276 897 310 907 q 216 867 242 888 q 175 818 190 847 q 160 750 160 789 q 178 680 160 706 q 224 640 197 654 q 283 621 251 626 q 343 614 315 615 q 441 599 392 610 q 531 564 490 588 q 596 501 571 540 q 621 401 621 463 q 609 324 621 358 q 579 271 597 290 m 192 457 q 226 367 192 394 q 308 329 260 340 q 406 315 356 318 q 490 299 457 311 q 520 342 510 314 q 531 399 531 369 q 513 465 531 439 q 469 506 496 490 q 409 528 442 522 q 346 536 376 535 q 286 540 314 538 q 226 556 258 543 q 201 515 211 540 q 192 457 192 489 z "},"¨":{"ha":457,"x_min":85,"x_max":372,"o":"m 85 879 l 85 1010 l 165 1010 l 165 879 l 85 879 m 292 879 l 292 1010 l 372 1010 l 372 879 l 292 879 z "},"©":{"ha":1156,"x_min":67,"x_max":1089,"o":"m 576 -10 q 373 28 467 -10 q 211 134 279 67 q 105 293 143 201 q 67 493 67 385 q 105 692 67 600 q 211 850 143 783 q 373 955 279 917 q 576 993 467 993 q 781 955 686 993 q 943 850 875 917 q 1050 692 1011 783 q 1089 493 1089 600 q 1050 293 1089 385 q 943 134 1011 201 q 781 28 875 67 q 576 -10 686 -10 m 576 36 q 758 69 674 36 q 906 163 843 103 q 1004 306 968 222 q 1040 490 1040 389 q 1006 672 1040 589 q 908 817 971 756 q 761 913 846 878 q 576 947 676 947 q 393 913 478 947 q 247 817 308 878 q 150 673 185 757 q 115 492 115 589 q 150 311 115 394 q 247 167 185 228 q 392 71 308 106 q 576 36 476 36 m 588 171 q 465 194 524 171 q 362 258 407 217 q 290 360 317 300 q 263 493 263 419 q 282 610 263 551 q 340 714 301 668 q 439 789 379 760 q 579 818 499 818 q 742 778 671 818 q 846 664 814 739 l 754 635 q 719 685 740 665 q 673 715 697 704 q 624 731 649 726 q 579 735 600 735 q 483 713 524 735 q 415 658 442 692 q 374 580 388 624 q 360 493 360 536 q 381 391 360 436 q 433 315 401 346 q 505 269 465 285 q 582 253 544 253 q 688 281 635 253 q 764 358 740 310 l 856 332 q 822 278 846 307 q 764 226 799 250 q 685 186 729 201 q 588 171 640 171 z "},"ª":{"ha":603,"x_min":67,"x_max":524,"o":"m 231 481 q 166 492 196 481 q 114 525 136 504 q 79 574 92 546 q 67 633 67 601 q 82 694 67 667 q 125 742 97 722 q 190 774 153 763 q 274 785 228 785 q 349 778 311 785 q 414 760 386 772 l 414 799 q 379 893 414 858 q 282 928 344 928 q 124 871 208 928 l 96 922 q 289 986 193 986 q 442 935 386 986 q 497 790 497 885 l 497 592 q 524 561 497 563 l 524 489 q 503 487 511 488 q 485 486 494 486 q 445 501 460 488 q 428 536 431 515 l 426 571 q 340 503 392 526 q 231 481 289 481 m 253 543 q 337 559 297 543 q 397 603 376 575 q 414 639 414 619 l 414 711 q 353 728 386 724 q 286 733 319 733 q 183 708 222 733 q 144 639 144 682 q 176 571 144 599 q 253 543 207 543 z "},"«":{"ha":796,"x_min":57,"x_max":708,"o":"m 57 383 l 401 631 l 401 549 l 133 360 l 401 174 l 401 92 l 57 332 l 57 383 m 363 383 l 708 631 l 708 549 l 440 360 l 708 174 l 708 92 l 363 332 l 363 383 z "},"¬":{"ha":808,"x_min":101,"x_max":711,"o":"m 711 506 l 711 175 l 628 175 l 628 419 l 101 419 l 101 506 l 711 506 z "},"­":{"ha":792,"x_min":90,"x_max":700,"o":"m 90 335 l 90 422 l 700 422 l 700 335 l 90 335 z "},"®":{"ha":1156,"x_min":67,"x_max":1089,"o":"m 578 -10 q 374 28 467 -10 q 212 134 281 67 q 105 293 143 201 q 67 493 67 385 q 105 692 67 600 q 212 850 143 783 q 374 955 281 917 q 578 993 467 993 q 781 955 688 993 q 943 850 875 917 q 1050 692 1011 783 q 1089 493 1089 600 q 1050 293 1089 385 q 943 134 1011 201 q 781 28 875 67 q 578 -10 688 -10 m 578 35 q 759 68 675 35 q 906 161 843 101 q 1003 305 968 221 q 1039 492 1039 389 q 1004 672 1039 589 q 908 817 969 756 q 762 913 846 878 q 578 947 678 947 q 393 913 478 947 q 247 817 308 878 q 151 673 186 756 q 117 493 117 590 q 151 311 117 394 q 247 166 186 228 q 393 69 308 104 q 578 35 478 35 m 365 806 l 631 806 q 706 788 671 806 q 765 742 740 771 q 804 678 790 714 q 818 607 818 643 q 778 485 818 539 q 675 419 739 432 l 829 176 l 749 176 l 601 410 l 439 410 l 439 176 l 365 176 l 365 806 m 631 474 q 717 512 688 474 q 746 607 746 550 q 712 702 746 665 q 625 739 678 739 l 439 739 l 439 474 l 631 474 z "},"¯":{"ha":550,"x_min":75,"x_max":476,"o":"m 75 921 l 75 986 l 476 986 l 476 921 l 75 921 z "},"°":{"ha":369,"x_min":69,"x_max":300,"o":"m 69 892 q 103 973 69 940 q 185 1006 136 1006 q 267 973 233 1006 q 300 892 300 940 q 267 808 300 842 q 185 775 233 775 q 103 808 136 775 q 69 892 69 842 m 142 933 q 124 890 124 915 q 142 847 124 865 q 185 829 160 829 q 229 847 211 829 q 246 890 246 867 q 229 933 246 914 q 185 951 213 951 q 142 933 158 951 z "},"±":{"ha":649,"x_min":100,"x_max":549,"o":"m 100 85 l 100 164 l 549 164 l 549 85 l 100 85 m 549 546 l 549 467 l 368 467 l 368 272 l 281 272 l 281 467 l 100 467 l 100 546 l 281 546 l 281 740 l 368 740 l 368 546 l 549 546 z "},"²":{"ha":539,"x_min":50,"x_max":485,"o":"m 50 565 q 60 659 50 619 q 93 728 71 699 q 148 781 115 758 q 225 819 181 803 q 290 844 257 832 q 351 871 324 856 q 397 908 379 886 q 415 963 415 931 q 380 1035 415 1006 q 274 1065 344 1065 q 211 1058 239 1065 q 161 1038 183 1050 q 123 1013 139 1026 q 97 989 107 1000 l 56 1032 q 78 1055 61 1039 q 123 1087 94 1071 q 191 1115 151 1103 q 282 1126 231 1126 q 434 1079 383 1126 q 485 961 485 1032 q 465 888 485 918 q 415 838 444 858 q 352 804 386 817 q 289 782 318 792 q 212 747 243 767 q 162 707 181 728 q 135 665 143 686 q 126 625 126 644 l 478 625 l 478 565 l 50 565 z "},"³":{"ha":542,"x_min":49,"x_max":488,"o":"m 264 557 q 118 590 176 557 q 49 681 60 624 l 86 721 q 101 686 88 704 q 138 653 115 668 q 193 629 161 639 q 263 619 225 619 q 378 647 331 619 q 425 718 425 674 q 369 794 425 767 q 218 821 313 821 l 186 821 l 186 878 l 218 878 q 356 901 306 878 q 406 969 406 924 q 362 1042 406 1015 q 258 1069 318 1069 q 158 1048 200 1069 q 96 992 117 1026 l 54 1039 q 135 1103 79 1079 q 258 1126 192 1126 q 343 1115 304 1126 q 411 1083 382 1103 q 456 1035 440 1063 q 472 974 472 1007 q 346 851 472 878 q 449 802 411 842 q 488 710 488 763 q 469 645 488 674 q 421 597 451 617 q 349 567 390 578 q 264 557 308 557 z "},"´":{"ha":308,"x_min":68,"x_max":250,"o":"m 131 861 l 68 885 l 150 1014 l 250 1014 l 131 861 z "},"µ":{"ha":861,"x_min":114,"x_max":767,"o":"m 114 724 l 208 724 l 208 315 q 379 69 208 69 q 460 83 421 69 q 534 124 500 97 q 595 186 568 150 q 639 268 622 222 l 639 724 l 733 724 l 733 122 q 767 83 733 83 l 767 0 q 740 -3 750 -3 q 721 -3 731 -3 q 669 22 689 0 q 650 72 650 44 l 650 164 q 603 94 632 126 q 537 38 574 63 q 458 0 500 14 q 374 -14 417 -14 q 265 19 307 -14 q 203 104 222 51 l 203 -294 l 114 -294 l 114 724 z "},"¶":{"ha":836,"x_min":47,"x_max":774,"o":"m 47 651 q 150 898 47 810 q 439 986 253 986 l 774 986 l 774 911 l 676 911 l 676 -111 l 593 -111 l 593 321 l 490 321 l 490 -111 l 408 -111 l 408 321 q 258 345 325 322 q 144 411 192 368 q 72 515 97 454 q 47 651 47 575 m 129 654 q 151 542 129 589 q 212 463 174 494 q 301 415 250 432 q 408 396 351 399 l 408 911 q 201 841 272 910 q 129 654 129 772 m 593 911 l 490 911 l 490 396 l 593 396 l 593 911 z "},"·":{"ha":263,"x_min":90,"x_max":172,"o":"m 90 342 l 90 497 l 172 497 l 172 342 l 90 342 z "},"¸":{"ha":393,"x_min":31,"x_max":310,"o":"m 54 -175 q 107 -192 74 -185 q 176 -200 140 -200 q 256 -151 256 -200 q 237 -112 256 -124 q 186 -101 218 -101 q 125 -108 157 -101 q 75 -121 93 -114 l 154 25 l 200 7 l 151 -71 q 178 -64 164 -65 q 204 -62 193 -62 q 281 -84 253 -62 q 310 -147 310 -106 q 274 -219 310 -194 q 168 -244 238 -244 q 93 -237 128 -244 q 31 -218 58 -229 l 54 -175 z "},"¹":{"ha":378,"x_min":47,"x_max":347,"o":"m 347 626 l 347 564 l 68 564 l 68 626 l 181 626 l 181 1056 q 158 1035 174 1047 q 124 1013 143 1024 q 85 995 106 1003 q 47 988 64 988 l 47 1050 q 93 1061 69 1050 q 136 1086 117 1072 q 168 1113 156 1100 q 181 1126 181 1125 l 243 1126 l 243 626 l 347 626 z "},"º":{"ha":624,"x_min":61,"x_max":563,"o":"m 311 481 q 210 501 256 481 q 131 557 164 522 q 79 638 97 592 q 61 733 61 683 q 79 831 61 785 q 131 911 97 876 q 210 966 164 946 q 311 986 256 986 q 413 966 367 986 q 492 911 458 946 q 544 831 525 876 q 563 733 563 785 q 544 638 563 683 q 493 557 526 592 q 413 501 460 522 q 311 481 367 481 m 140 732 q 153 660 140 693 q 190 601 167 626 q 244 563 214 576 q 311 549 275 549 q 377 563 346 549 q 432 603 408 578 q 469 662 456 628 q 482 735 482 696 q 469 807 482 774 q 432 865 456 840 q 377 904 408 890 q 311 918 346 918 q 245 903 276 918 q 191 864 214 889 q 154 805 168 839 q 140 732 140 771 z "},"»":{"ha":796,"x_min":88,"x_max":739,"o":"m 739 332 l 394 92 l 394 174 l 663 360 l 394 549 l 394 631 l 739 383 l 739 332 m 433 332 l 88 92 l 88 174 l 356 360 l 88 549 l 88 631 l 433 383 l 433 332 z "},"¼":{"ha":1146,"x_min":61,"x_max":1096,"o":"m 954 0 l 954 143 l 638 143 l 638 201 l 974 554 l 1017 554 l 1017 204 l 1096 204 l 1096 143 l 1017 143 l 1017 0 l 954 0 m 704 204 l 956 204 l 956 469 l 704 204 m 185 38 l 572 510 l 950 992 l 999 950 l 611 478 l 232 -6 l 185 38 m 361 515 l 361 453 l 82 453 l 82 515 l 194 515 l 194 944 q 172 924 188 936 q 138 902 157 913 q 99 884 119 892 q 61 876 78 876 l 61 939 q 107 950 83 939 q 150 975 131 961 q 182 1001 169 989 q 194 1015 194 1014 l 257 1015 l 257 515 l 361 515 z "},"½":{"ha":1200,"x_min":63,"x_max":1142,"o":"m 717 0 q 727 94 717 54 q 759 164 738 133 q 813 217 781 194 q 888 256 844 239 q 951 279 918 268 q 1010 306 983 290 q 1055 344 1038 322 q 1072 397 1072 365 q 1038 471 1072 440 q 935 501 1004 501 q 874 494 901 501 q 825 474 846 486 q 788 449 804 463 q 763 424 772 435 l 722 468 q 744 490 728 475 q 788 522 761 506 q 854 549 815 538 q 943 561 893 561 q 1091 514 1042 561 q 1140 396 1140 467 q 1121 323 1140 353 q 1073 274 1101 293 q 1012 242 1044 254 q 951 219 979 229 q 876 184 906 204 q 828 143 846 164 q 804 101 811 122 q 797 61 797 79 l 1142 61 l 1142 0 l 717 0 m 138 38 l 525 510 l 903 992 l 951 950 l 564 478 l 185 -6 l 138 38 m 363 515 l 363 453 l 83 453 l 83 515 l 196 515 l 196 944 q 174 924 189 936 q 140 902 158 913 q 100 884 121 892 q 63 876 79 876 l 63 939 q 108 950 85 939 q 151 975 132 961 q 183 1001 171 989 q 196 1015 196 1014 l 258 1015 l 258 515 l 363 515 z "},"¾":{"ha":1163,"x_min":58,"x_max":1108,"o":"m 274 446 q 128 479 186 446 q 58 569 69 513 l 96 610 q 111 575 97 593 q 148 542 125 557 q 203 518 171 528 q 272 508 235 508 q 388 535 340 508 q 435 607 435 563 q 378 683 435 656 q 228 710 322 710 l 196 710 l 196 767 l 228 767 q 365 790 315 767 q 415 858 415 813 q 372 931 415 904 q 268 958 328 958 q 168 937 210 958 q 106 881 126 915 l 64 928 q 145 992 89 968 q 268 1015 201 1015 q 353 1003 314 1015 q 421 972 392 992 q 466 924 450 951 q 482 863 482 896 q 356 740 482 767 q 459 691 421 731 q 497 599 497 651 q 479 534 497 563 q 431 486 461 506 q 359 456 400 467 q 274 446 318 446 m 967 0 l 967 143 l 650 143 l 650 201 l 986 554 l 1029 554 l 1029 204 l 1108 204 l 1108 143 l 1029 143 l 1029 0 l 967 0 m 717 204 l 968 204 l 968 469 l 717 204 m 231 38 l 618 510 l 996 992 l 1044 950 l 657 478 l 278 -6 l 231 38 z "},"¿":{"ha":651,"x_min":47,"x_max":608,"o":"m 442 422 q 413 276 442 331 q 324 186 385 222 q 263 152 296 169 q 200 110 229 135 q 151 50 171 85 q 131 -36 131 15 q 147 -115 131 -82 q 189 -172 163 -149 q 249 -206 215 -194 q 319 -217 283 -217 q 453 -176 394 -217 q 543 -75 513 -135 l 608 -117 q 558 -193 589 -160 q 490 -249 528 -226 q 408 -284 451 -272 q 318 -296 364 -296 q 218 -280 267 -296 q 131 -231 169 -264 q 70 -147 93 -197 q 47 -31 47 -97 q 63 63 47 25 q 106 129 79 101 q 165 177 132 157 q 235 217 199 197 q 282 245 260 231 q 322 283 304 260 q 351 339 340 306 q 361 422 361 372 l 442 422 m 440 703 l 440 554 l 358 554 l 358 703 l 440 703 z "},"À":{"ha":939,"x_min":17,"x_max":921,"o":"m 429 986 l 511 986 l 921 0 l 818 0 l 690 308 l 247 308 l 121 0 l 17 0 l 429 986 m 668 385 l 469 872 l 268 385 l 668 385 m 340 1274 l 439 1274 l 522 1144 l 461 1121 l 340 1274 z "},"Á":{"ha":939,"x_min":17,"x_max":921,"o":"m 429 986 l 511 986 l 921 0 l 818 0 l 690 308 l 247 308 l 121 0 l 17 0 l 429 986 m 668 385 l 469 872 l 268 385 l 668 385 m 479 1121 l 417 1144 l 499 1274 l 599 1274 l 479 1121 z "},"Â":{"ha":939,"x_min":17,"x_max":921,"o":"m 429 986 l 511 986 l 921 0 l 818 0 l 690 308 l 247 308 l 121 0 l 17 0 l 429 986 m 668 385 l 469 872 l 268 385 l 668 385 m 299 1156 l 435 1274 l 504 1274 l 642 1156 l 588 1126 l 469 1214 l 351 1126 l 299 1156 z "},"ˆ":{"ha":458,"x_min":58,"x_max":401,"o":"m 58 896 l 194 1014 l 264 1014 l 401 896 l 347 867 l 229 954 l 111 867 l 58 896 z "},"Ã":{"ha":939,"x_min":17,"x_max":921,"o":"m 429 986 l 511 986 l 921 0 l 818 0 l 690 308 l 247 308 l 121 0 l 17 0 l 429 986 m 668 385 l 469 872 l 268 385 l 668 385 m 556 1146 q 501 1154 524 1146 q 458 1173 478 1163 q 419 1192 438 1183 q 378 1201 400 1201 q 341 1192 354 1201 q 320 1170 328 1182 q 310 1148 313 1158 q 308 1135 308 1138 l 250 1135 q 255 1163 250 1142 q 274 1207 260 1185 q 313 1247 288 1229 q 376 1264 338 1264 q 427 1255 406 1264 q 468 1235 449 1246 q 508 1215 488 1224 q 554 1206 528 1206 q 597 1215 581 1206 q 621 1238 613 1225 q 631 1260 629 1250 q 633 1274 633 1271 l 692 1274 q 686 1246 692 1267 q 666 1203 681 1225 q 624 1163 651 1181 q 556 1146 597 1146 z "},"˜":{"ha":564,"x_min":61,"x_max":503,"o":"m 367 886 q 312 894 335 886 q 269 913 289 903 q 230 933 249 924 q 189 942 211 942 q 152 932 165 942 q 131 910 139 922 q 122 888 124 899 q 119 875 119 878 l 61 875 q 66 903 61 882 q 85 947 71 925 q 124 987 99 969 q 188 1004 149 1004 q 238 995 217 1004 q 279 975 260 986 q 319 955 299 964 q 365 946 339 946 q 408 956 392 946 q 432 978 424 965 q 442 1001 440 990 q 444 1014 444 1011 l 503 1014 q 497 986 503 1007 q 477 943 492 965 q 435 903 463 921 q 367 886 408 886 z "},"Ä":{"ha":939,"x_min":17,"x_max":921,"o":"m 429 986 l 511 986 l 921 0 l 818 0 l 690 308 l 247 308 l 121 0 l 17 0 l 429 986 m 668 385 l 469 872 l 268 385 l 668 385 m 326 1139 l 326 1269 l 407 1269 l 407 1139 l 326 1139 m 533 1139 l 533 1269 l 614 1269 l 614 1139 l 533 1139 z "},"Å":{"ha":939,"x_min":17,"x_max":921,"o":"m 429 986 l 511 986 l 921 0 l 818 0 l 690 308 l 247 308 l 121 0 l 17 0 l 429 986 m 668 385 l 469 872 l 268 385 l 668 385 m 367 1183 q 396 1249 367 1224 q 469 1274 425 1274 q 543 1249 514 1274 q 572 1183 572 1224 q 543 1117 572 1142 q 469 1092 514 1092 q 396 1117 425 1092 q 367 1183 367 1142 m 469 1236 q 430 1222 446 1236 q 414 1183 414 1207 q 430 1144 414 1160 q 469 1129 446 1129 q 509 1144 492 1129 q 526 1183 526 1160 q 510 1222 526 1207 q 469 1236 493 1236 z "},"˚":{"ha":344,"x_min":69,"x_max":275,"o":"m 69 924 q 99 989 69 964 q 172 1014 128 1014 q 246 989 217 1014 q 275 924 275 964 q 246 857 275 882 q 172 832 217 832 q 99 857 128 832 q 69 924 69 882 m 172 976 q 133 962 149 976 q 117 924 117 947 q 133 885 117 900 q 172 869 149 869 q 212 885 194 869 q 229 924 229 900 q 213 962 229 947 q 172 976 196 976 z "},"Æ":{"ha":1335,"x_min":-36,"x_max":1279,"o":"m 599 986 l 1267 986 l 1267 900 l 719 900 l 719 546 l 1192 546 l 1192 460 l 719 460 l 719 86 l 1279 86 l 1279 0 l 625 0 l 625 308 l 265 308 l 69 0 l -36 0 l 599 986 m 618 394 l 618 869 l 310 394 l 618 394 z "},"Ç":{"ha":949,"x_min":54,"x_max":906,"o":"m 408 -175 q 461 -192 428 -185 q 531 -200 494 -200 q 610 -151 610 -200 q 591 -112 610 -124 q 540 -101 572 -101 q 479 -108 511 -101 q 429 -121 447 -114 l 490 -7 q 314 44 394 -1 q 176 161 233 90 q 86 320 118 232 q 54 500 54 408 q 85 677 54 589 q 176 835 117 765 q 324 948 236 904 q 522 992 411 992 q 748 932 654 992 q 886 776 842 872 l 810 729 q 752 811 786 778 q 679 865 718 844 q 599 895 640 886 q 517 904 557 904 q 360 868 428 904 q 245 774 292 832 q 175 642 199 715 q 151 494 151 569 q 180 338 151 413 q 258 205 208 263 q 374 113 307 147 q 521 79 442 79 q 606 90 563 79 q 691 123 650 100 q 767 180 732 146 q 825 263 801 214 l 906 221 q 844 128 883 169 q 757 59 806 88 q 653 14 708 31 q 544 -7 599 -3 l 506 -71 q 533 -64 518 -65 q 558 -62 547 -62 q 635 -84 607 -62 q 664 -147 664 -106 q 628 -219 664 -194 q 522 -244 592 -244 q 447 -237 482 -244 q 385 -218 413 -229 l 408 -175 z "},"È":{"ha":846,"x_min":124,"x_max":786,"o":"m 786 86 l 786 0 l 124 0 l 124 986 l 774 986 l 774 900 l 221 900 l 221 544 l 703 544 l 703 463 l 221 463 l 221 86 l 786 86 m 339 1274 l 438 1274 l 521 1144 l 460 1121 l 339 1274 z "},"É":{"ha":846,"x_min":124,"x_max":786,"o":"m 476 1121 l 414 1144 l 496 1274 l 596 1274 l 476 1121 m 786 86 l 786 0 l 124 0 l 124 986 l 774 986 l 774 900 l 221 900 l 221 544 l 703 544 l 703 463 l 221 463 l 221 86 l 786 86 z "},"Ê":{"ha":846,"x_min":124,"x_max":786,"o":"m 297 1156 l 433 1274 l 503 1274 l 640 1156 l 586 1126 l 468 1214 l 350 1126 l 297 1156 m 786 86 l 786 0 l 124 0 l 124 986 l 774 986 l 774 900 l 221 900 l 221 544 l 703 544 l 703 463 l 221 463 l 221 86 l 786 86 z "},"Ë":{"ha":846,"x_min":124,"x_max":786,"o":"m 324 1139 l 324 1269 l 404 1269 l 404 1139 l 324 1139 m 531 1139 l 531 1269 l 611 1269 l 611 1139 l 531 1139 m 786 86 l 786 0 l 124 0 l 124 986 l 774 986 l 774 900 l 221 900 l 221 544 l 703 544 l 703 463 l 221 463 l 221 86 l 786 86 z "},"Ì":{"ha":344,"x_min":43,"x_max":225,"o":"m 124 0 l 124 986 l 221 986 l 221 0 l 124 0 m 43 1274 l 142 1274 l 225 1144 l 164 1121 l 43 1274 z "},"Í":{"ha":344,"x_min":118,"x_max":300,"o":"m 124 0 l 124 986 l 221 986 l 221 0 l 124 0 m 181 1121 l 118 1144 l 200 1274 l 300 1274 l 181 1121 z "},"Î":{"ha":344,"x_min":1,"x_max":344,"o":"m 124 0 l 124 986 l 221 986 l 221 0 l 124 0 m 1 1156 l 138 1274 l 207 1274 l 344 1156 l 290 1126 l 172 1214 l 54 1126 l 1 1156 z "},"Ï":{"ha":344,"x_min":28,"x_max":315,"o":"m 124 0 l 124 986 l 221 986 l 221 0 l 124 0 m 28 1139 l 28 1269 l 108 1269 l 108 1139 l 28 1139 m 235 1139 l 235 1269 l 315 1269 l 315 1139 l 235 1139 z "},"Ð":{"ha":1001,"x_min":47,"x_max":939,"o":"m 132 0 l 132 458 l 47 458 l 47 533 l 132 533 l 132 986 l 467 986 q 673 947 585 986 q 820 842 761 908 q 909 685 879 775 q 939 494 939 596 q 906 291 939 382 q 810 135 872 200 q 662 35 749 71 q 467 0 575 0 l 132 0 m 842 494 q 817 658 842 583 q 744 786 792 732 q 626 870 696 840 q 467 900 557 900 l 229 900 l 229 533 l 465 533 l 465 458 l 229 458 l 229 86 l 467 86 q 628 117 558 86 q 746 203 699 149 q 817 333 793 258 q 842 494 842 407 z "},"Ñ":{"ha":1072,"x_min":124,"x_max":949,"o":"m 221 806 l 221 0 l 124 0 l 124 986 l 199 986 l 851 165 l 851 985 l 949 985 l 949 0 l 864 0 l 221 806 m 626 1146 q 572 1154 594 1146 q 528 1173 549 1163 q 490 1192 508 1183 q 449 1201 471 1201 q 412 1192 425 1201 q 391 1170 399 1182 q 381 1148 383 1158 q 379 1135 379 1138 l 321 1135 q 326 1163 321 1142 q 344 1207 331 1185 q 383 1247 358 1229 q 447 1264 408 1264 q 498 1255 476 1264 q 539 1235 519 1246 q 578 1215 558 1224 q 625 1206 599 1206 q 667 1215 651 1206 q 692 1238 683 1225 q 702 1260 700 1250 q 704 1274 704 1271 l 763 1274 q 757 1246 763 1267 q 737 1203 751 1225 q 695 1163 722 1181 q 626 1146 668 1146 z "},"Ò":{"ha":1043,"x_min":58,"x_max":983,"o":"m 521 -7 q 333 35 418 -7 q 186 148 247 78 q 92 308 125 218 q 58 493 58 399 q 94 682 58 592 q 192 842 129 772 q 339 952 254 911 q 522 993 424 993 q 710 949 625 993 q 856 835 796 906 q 950 674 917 764 q 983 492 983 585 q 948 303 983 393 q 851 144 913 213 q 704 34 789 75 q 521 -7 619 -7 m 156 493 q 182 338 156 413 q 257 206 208 264 q 372 115 306 149 q 521 81 439 81 q 672 117 604 81 q 788 211 740 153 q 860 343 835 269 q 886 493 886 417 q 859 648 886 574 q 783 779 832 722 q 668 870 735 836 q 521 904 601 904 q 369 869 438 904 q 254 775 301 833 q 181 643 207 717 q 156 493 156 569 m 393 1274 l 492 1274 l 575 1144 l 514 1121 l 393 1274 z "},"Ó":{"ha":1043,"x_min":58,"x_max":983,"o":"m 531 1121 l 468 1144 l 550 1274 l 650 1274 l 531 1121 m 521 -7 q 333 35 418 -7 q 186 148 247 78 q 92 308 125 218 q 58 493 58 399 q 94 682 58 592 q 192 842 129 772 q 339 952 254 911 q 522 993 424 993 q 710 949 625 993 q 856 835 796 906 q 950 674 917 764 q 983 492 983 585 q 948 303 983 393 q 851 144 913 213 q 704 34 789 75 q 521 -7 619 -7 m 156 493 q 182 338 156 413 q 257 206 208 264 q 372 115 306 149 q 521 81 439 81 q 672 117 604 81 q 788 211 740 153 q 860 343 835 269 q 886 493 886 417 q 859 648 886 574 q 783 779 832 722 q 668 870 735 836 q 521 904 601 904 q 369 869 438 904 q 254 775 301 833 q 181 643 207 717 q 156 493 156 569 z "},"Ô":{"ha":1043,"x_min":58,"x_max":983,"o":"m 351 1156 l 488 1274 l 557 1274 l 694 1156 l 640 1126 l 522 1214 l 404 1126 l 351 1156 m 521 -7 q 333 35 418 -7 q 186 148 247 78 q 92 308 125 218 q 58 493 58 399 q 94 682 58 592 q 192 842 129 772 q 339 952 254 911 q 522 993 424 993 q 710 949 625 993 q 856 835 796 906 q 950 674 917 764 q 983 492 983 585 q 948 303 983 393 q 851 144 913 213 q 704 34 789 75 q 521 -7 619 -7 m 156 493 q 182 338 156 413 q 257 206 208 264 q 372 115 306 149 q 521 81 439 81 q 672 117 604 81 q 788 211 740 153 q 860 343 835 269 q 886 493 886 417 q 859 648 886 574 q 783 779 832 722 q 668 870 735 836 q 521 904 601 904 q 369 869 438 904 q 254 775 301 833 q 181 643 207 717 q 156 493 156 569 z "},"Õ":{"ha":1043,"x_min":58,"x_max":983,"o":"m 521 -7 q 333 35 418 -7 q 186 148 247 78 q 92 308 125 218 q 58 493 58 399 q 94 682 58 592 q 192 842 129 772 q 339 952 254 911 q 522 993 424 993 q 710 949 625 993 q 856 835 796 906 q 950 674 917 764 q 983 492 983 585 q 948 303 983 393 q 851 144 913 213 q 704 34 789 75 q 521 -7 619 -7 m 156 493 q 182 338 156 413 q 257 206 208 264 q 372 115 306 149 q 521 81 439 81 q 672 117 604 81 q 788 211 740 153 q 860 343 835 269 q 886 493 886 417 q 859 648 886 574 q 783 779 832 722 q 668 870 735 836 q 521 904 601 904 q 369 869 438 904 q 254 775 301 833 q 181 643 207 717 q 156 493 156 569 m 608 1146 q 553 1154 576 1146 q 510 1173 531 1163 q 472 1192 490 1183 q 431 1201 453 1201 q 394 1192 407 1201 q 373 1170 381 1182 q 363 1148 365 1158 q 361 1135 361 1138 l 303 1135 q 308 1163 303 1142 q 326 1207 313 1185 q 365 1247 340 1229 q 429 1264 390 1264 q 480 1255 458 1264 q 521 1235 501 1246 q 560 1215 540 1224 q 607 1206 581 1206 q 649 1215 633 1206 q 674 1238 665 1225 q 684 1260 682 1250 q 686 1274 686 1271 l 744 1274 q 739 1246 744 1267 q 719 1203 733 1225 q 677 1163 704 1181 q 608 1146 650 1146 z "},"Ö":{"ha":1043,"x_min":58,"x_max":983,"o":"m 379 1139 l 379 1269 l 460 1269 l 460 1139 l 379 1139 m 586 1139 l 586 1269 l 667 1269 l 667 1139 l 586 1139 m 521 -7 q 333 35 418 -7 q 186 148 247 78 q 92 308 125 218 q 58 493 58 399 q 94 682 58 592 q 192 842 129 772 q 339 952 254 911 q 522 993 424 993 q 710 949 625 993 q 856 835 796 906 q 950 674 917 764 q 983 492 983 585 q 948 303 983 393 q 851 144 913 213 q 704 34 789 75 q 521 -7 619 -7 m 156 493 q 182 338 156 413 q 257 206 208 264 q 372 115 306 149 q 521 81 439 81 q 672 117 604 81 q 788 211 740 153 q 860 343 835 269 q 886 493 886 417 q 859 648 886 574 q 783 779 832 722 q 668 870 735 836 q 521 904 601 904 q 369 869 438 904 q 254 775 301 833 q 181 643 207 717 q 156 493 156 569 z "},"×":{"ha":635,"x_min":89,"x_max":547,"o":"m 547 210 l 486 150 l 317 318 l 149 150 l 89 211 l 257 378 l 90 546 l 151 606 l 317 439 l 485 607 l 544 546 l 378 378 l 547 210 z "},"Ø":{"ha":1043,"x_min":58,"x_max":983,"o":"m 903 986 l 824 868 q 941 695 899 794 q 983 492 983 596 q 948 303 983 393 q 851 144 913 213 q 704 34 789 75 q 521 -7 619 -7 q 396 11 454 -7 q 288 61 338 29 l 247 0 l 140 0 l 217 115 q 100 287 142 188 q 58 493 58 386 q 94 682 58 592 q 192 842 129 772 q 339 952 254 911 q 522 993 424 993 q 647 974 589 993 q 754 924 704 956 l 796 986 l 903 986 m 156 493 q 185 329 156 407 q 268 193 215 251 l 704 849 q 618 890 664 875 q 521 904 572 904 q 369 869 438 904 q 254 775 301 833 q 181 643 207 717 q 156 493 156 569 m 886 493 q 856 655 886 578 q 772 790 825 732 l 336 135 q 521 81 418 81 q 672 117 604 81 q 788 211 740 153 q 860 343 835 269 q 886 493 886 417 z "},"Ù":{"ha":1049,"x_min":110,"x_max":940,"o":"m 524 81 q 678 116 617 81 q 777 209 740 151 q 828 340 814 267 q 843 489 843 414 l 843 986 l 940 986 l 940 489 q 918 299 940 389 q 847 142 896 210 q 718 33 797 74 q 525 -7 639 -7 q 328 35 408 -7 q 200 147 249 78 q 131 306 151 217 q 110 489 110 394 l 110 986 l 206 986 l 206 489 q 221 338 206 411 q 273 207 236 264 q 371 115 310 150 q 524 81 432 81 m 396 1274 l 494 1274 l 578 1144 l 517 1121 l 396 1274 z "},"Ú":{"ha":1049,"x_min":110,"x_max":940,"o":"m 535 1121 l 472 1144 l 554 1274 l 654 1274 l 535 1121 m 524 81 q 678 116 617 81 q 777 209 740 151 q 828 340 814 267 q 843 489 843 414 l 843 986 l 940 986 l 940 489 q 918 299 940 389 q 847 142 896 210 q 718 33 797 74 q 525 -7 639 -7 q 328 35 408 -7 q 200 147 249 78 q 131 306 151 217 q 110 489 110 394 l 110 986 l 206 986 l 206 489 q 221 338 206 411 q 273 207 236 264 q 371 115 310 150 q 524 81 432 81 z "},"Û":{"ha":1049,"x_min":110,"x_max":940,"o":"m 354 1156 l 490 1274 l 560 1274 l 697 1156 l 643 1126 l 525 1214 l 407 1126 l 354 1156 m 524 81 q 678 116 617 81 q 777 209 740 151 q 828 340 814 267 q 843 489 843 414 l 843 986 l 940 986 l 940 489 q 918 299 940 389 q 847 142 896 210 q 718 33 797 74 q 525 -7 639 -7 q 328 35 408 -7 q 200 147 249 78 q 131 306 151 217 q 110 489 110 394 l 110 986 l 206 986 l 206 489 q 221 338 206 411 q 273 207 236 264 q 371 115 310 150 q 524 81 432 81 z "},"Ü":{"ha":1049,"x_min":110,"x_max":940,"o":"m 382 1139 l 382 1269 l 463 1269 l 463 1139 l 382 1139 m 589 1139 l 589 1269 l 669 1269 l 669 1139 l 589 1139 m 524 81 q 678 116 617 81 q 777 209 740 151 q 828 340 814 267 q 843 489 843 414 l 843 986 l 940 986 l 940 489 q 918 299 940 389 q 847 142 896 210 q 718 33 797 74 q 525 -7 639 -7 q 328 35 408 -7 q 200 147 249 78 q 131 306 151 217 q 110 489 110 394 l 110 986 l 206 986 l 206 489 q 221 338 206 411 q 273 207 236 264 q 371 115 310 150 q 524 81 432 81 z "},"Ý":{"ha":904,"x_min":22,"x_max":882,"o":"m 129 986 l 451 456 l 776 986 l 882 986 l 500 367 l 500 0 l 403 0 l 403 369 l 22 986 l 129 986 m 460 1121 l 397 1144 l 479 1274 l 579 1274 l 460 1121 z "},"Þ":{"ha":838,"x_min":124,"x_max":799,"o":"m 506 790 q 624 763 569 790 q 717 692 678 736 q 777 593 756 649 q 799 481 799 538 q 778 363 799 419 q 721 264 758 307 q 631 194 683 221 q 515 168 579 168 l 221 168 l 221 0 l 124 0 l 124 986 l 221 986 l 221 790 l 506 790 m 511 256 q 591 274 556 256 q 651 324 626 293 q 690 397 676 356 q 703 481 703 438 q 687 566 703 525 q 644 638 671 607 q 580 686 617 668 q 503 704 543 704 l 221 704 l 221 256 l 511 256 z "},"ß":{"ha":765,"x_min":104,"x_max":713,"o":"m 331 79 q 538 133 460 81 q 615 293 615 186 q 599 382 615 342 q 551 451 582 422 q 478 495 521 479 q 383 511 435 511 l 357 511 l 357 597 l 382 597 q 503 641 457 597 q 550 756 550 685 q 536 822 550 793 q 499 869 522 850 q 445 899 476 889 q 379 908 414 908 q 299 892 333 908 q 241 848 264 876 q 206 782 218 819 q 194 701 194 744 l 194 0 l 104 0 l 104 715 q 125 827 104 776 q 183 915 146 878 q 270 972 219 951 q 382 992 321 992 q 485 975 438 992 q 567 929 532 958 q 621 859 601 900 q 640 769 640 818 q 628 697 640 732 q 597 635 617 663 q 551 587 578 607 q 494 560 525 567 q 656 463 599 538 q 713 288 713 389 q 685 163 713 217 q 607 72 657 110 q 487 15 557 35 q 331 -8 417 -6 l 331 79 z "},"à":{"ha":757,"x_min":46,"x_max":692,"o":"m 286 -14 q 191 3 235 -14 q 115 51 147 21 q 64 123 82 82 q 46 211 46 164 q 68 299 46 258 q 131 368 90 339 q 226 413 171 397 q 349 429 282 429 q 461 419 404 429 q 563 392 518 410 l 563 457 q 508 609 563 553 q 358 665 454 665 q 244 643 303 665 q 126 579 186 621 l 93 642 q 365 736 233 736 q 579 660 501 736 q 657 449 657 583 l 657 122 q 692 83 657 83 l 692 0 q 656 -4 668 -4 q 599 14 619 -4 q 578 64 579 32 l 575 121 q 449 21 525 56 q 286 -14 374 -14 m 308 58 q 444 86 382 58 q 538 160 506 114 q 556 187 550 172 q 563 214 563 201 l 563 332 q 465 360 515 350 q 361 369 414 369 q 199 328 261 369 q 136 218 136 286 q 149 156 136 185 q 185 105 163 126 q 240 71 208 83 q 308 58 272 58 m 236 1014 l 335 1014 l 418 885 l 357 861 l 236 1014 z "},"á":{"ha":757,"x_min":46,"x_max":692,"o":"m 286 -14 q 191 3 235 -14 q 115 51 147 21 q 64 123 82 82 q 46 211 46 164 q 68 299 46 258 q 131 368 90 339 q 226 413 171 397 q 349 429 282 429 q 461 419 404 429 q 563 392 518 410 l 563 457 q 508 609 563 553 q 358 665 454 665 q 244 643 303 665 q 126 579 186 621 l 93 642 q 365 736 233 736 q 579 660 501 736 q 657 449 657 583 l 657 122 q 692 83 657 83 l 692 0 q 656 -4 668 -4 q 599 14 619 -4 q 578 64 579 32 l 575 121 q 449 21 525 56 q 286 -14 374 -14 m 308 58 q 444 86 382 58 q 538 160 506 114 q 556 187 550 172 q 563 214 563 201 l 563 332 q 465 360 515 350 q 361 369 414 369 q 199 328 261 369 q 136 218 136 286 q 149 156 136 185 q 185 105 163 126 q 240 71 208 83 q 308 58 272 58 m 375 861 l 313 885 l 394 1014 l 494 1014 l 375 861 z "},"â":{"ha":757,"x_min":46,"x_max":692,"o":"m 286 -14 q 191 3 235 -14 q 115 51 147 21 q 64 123 82 82 q 46 211 46 164 q 68 299 46 258 q 131 368 90 339 q 226 413 171 397 q 349 429 282 429 q 461 419 404 429 q 563 392 518 410 l 563 457 q 508 609 563 553 q 358 665 454 665 q 244 643 303 665 q 126 579 186 621 l 93 642 q 365 736 233 736 q 579 660 501 736 q 657 449 657 583 l 657 122 q 692 83 657 83 l 692 0 q 656 -4 668 -4 q 599 14 619 -4 q 578 64 579 32 l 575 121 q 449 21 525 56 q 286 -14 374 -14 m 308 58 q 444 86 382 58 q 538 160 506 114 q 556 187 550 172 q 563 214 563 201 l 563 332 q 465 360 515 350 q 361 369 414 369 q 199 328 261 369 q 136 218 136 286 q 149 156 136 185 q 185 105 163 126 q 240 71 208 83 q 308 58 272 58 m 194 896 l 331 1014 l 400 1014 l 538 896 l 483 867 l 365 954 l 247 867 l 194 896 z "},"ã":{"ha":757,"x_min":46,"x_max":692,"o":"m 286 -14 q 191 3 235 -14 q 115 51 147 21 q 64 123 82 82 q 46 211 46 164 q 68 299 46 258 q 131 368 90 339 q 226 413 171 397 q 349 429 282 429 q 461 419 404 429 q 563 392 518 410 l 563 457 q 508 609 563 553 q 358 665 454 665 q 244 643 303 665 q 126 579 186 621 l 93 642 q 365 736 233 736 q 579 660 501 736 q 657 449 657 583 l 657 122 q 692 83 657 83 l 692 0 q 656 -4 668 -4 q 599 14 619 -4 q 578 64 579 32 l 575 121 q 449 21 525 56 q 286 -14 374 -14 m 308 58 q 444 86 382 58 q 538 160 506 114 q 556 187 550 172 q 563 214 563 201 l 563 332 q 465 360 515 350 q 361 369 414 369 q 199 328 261 369 q 136 218 136 286 q 149 156 136 185 q 185 105 163 126 q 240 71 208 83 q 308 58 272 58 m 451 886 q 397 894 419 886 q 353 913 374 903 q 315 933 333 924 q 274 942 296 942 q 237 932 250 942 q 216 910 224 922 q 206 888 208 899 q 204 875 204 878 l 146 875 q 151 903 146 882 q 169 947 156 925 q 208 987 183 969 q 272 1004 233 1004 q 323 995 301 1004 q 364 975 344 986 q 403 955 383 964 q 450 946 424 946 q 492 956 476 946 q 517 978 508 965 q 527 1001 525 990 q 529 1014 529 1011 l 588 1014 q 582 986 588 1007 q 562 943 576 965 q 520 903 547 921 q 451 886 493 886 z "},"ä":{"ha":757,"x_min":46,"x_max":692,"o":"m 286 -14 q 191 3 235 -14 q 115 51 147 21 q 64 123 82 82 q 46 211 46 164 q 68 299 46 258 q 131 368 90 339 q 226 413 171 397 q 349 429 282 429 q 461 419 404 429 q 563 392 518 410 l 563 457 q 508 609 563 553 q 358 665 454 665 q 244 643 303 665 q 126 579 186 621 l 93 642 q 365 736 233 736 q 579 660 501 736 q 657 449 657 583 l 657 122 q 692 83 657 83 l 692 0 q 656 -4 668 -4 q 599 14 619 -4 q 578 64 579 32 l 575 121 q 449 21 525 56 q 286 -14 374 -14 m 308 58 q 444 86 382 58 q 538 160 506 114 q 556 187 550 172 q 563 214 563 201 l 563 332 q 465 360 515 350 q 361 369 414 369 q 199 328 261 369 q 136 218 136 286 q 149 156 136 185 q 185 105 163 126 q 240 71 208 83 q 308 58 272 58 m 222 879 l 222 1010 l 303 1010 l 303 879 l 222 879 m 429 879 l 429 1010 l 510 1010 l 510 879 l 429 879 z "},"å":{"ha":757,"x_min":46,"x_max":692,"o":"m 286 -14 q 191 3 235 -14 q 115 51 147 21 q 64 123 82 82 q 46 211 46 164 q 68 299 46 258 q 131 368 90 339 q 226 413 171 397 q 349 429 282 429 q 461 419 404 429 q 563 392 518 410 l 563 457 q 508 609 563 553 q 358 665 454 665 q 244 643 303 665 q 126 579 186 621 l 93 642 q 365 736 233 736 q 579 660 501 736 q 657 449 657 583 l 657 122 q 692 83 657 83 l 692 0 q 656 -4 668 -4 q 599 14 619 -4 q 578 64 579 32 l 575 121 q 449 21 525 56 q 286 -14 374 -14 m 308 58 q 444 86 382 58 q 538 160 506 114 q 556 187 550 172 q 563 214 563 201 l 563 332 q 465 360 515 350 q 361 369 414 369 q 199 328 261 369 q 136 218 136 286 q 149 156 136 185 q 185 105 163 126 q 240 71 208 83 q 308 58 272 58 m 263 924 q 292 989 263 964 q 365 1014 321 1014 q 439 989 410 1014 q 468 924 468 964 q 439 857 468 882 q 365 832 410 832 q 292 857 321 832 q 263 924 263 882 m 365 976 q 326 962 342 976 q 310 924 310 947 q 326 885 310 900 q 365 869 342 869 q 405 885 388 869 q 422 924 422 900 q 406 962 422 947 q 365 976 389 976 z "},"æ":{"ha":1294,"x_min":46,"x_max":1253,"o":"m 285 -14 q 191 3 235 -14 q 115 51 147 21 q 64 123 82 82 q 46 211 46 164 q 68 299 46 258 q 130 368 90 339 q 225 413 169 397 q 347 429 281 429 q 444 422 396 429 q 533 401 493 414 q 541 456 536 428 q 557 507 546 483 q 492 624 543 582 q 357 665 440 665 q 244 643 303 665 q 125 579 186 621 l 92 642 q 365 736 235 736 q 519 699 456 736 q 615 592 583 661 q 732 697 660 657 q 892 736 804 736 q 1037 706 971 736 q 1151 626 1103 676 q 1226 506 1199 575 q 1253 361 1253 438 q 1252 344 1253 356 q 1251 328 1251 332 l 622 328 q 650 220 626 269 q 711 135 674 171 q 797 78 749 99 q 900 58 846 58 q 969 68 935 58 q 1033 94 1004 78 q 1085 135 1063 111 q 1121 189 1108 160 l 1204 167 q 1157 94 1188 126 q 1085 37 1126 61 q 997 -1 1044 13 q 896 -14 949 -14 q 723 30 800 -14 q 597 146 646 74 q 538 74 574 104 q 460 24 503 43 q 372 -5 417 4 q 285 -14 326 -14 m 307 58 q 444 86 382 58 q 538 160 506 114 q 563 208 560 185 q 542 273 549 236 q 533 342 535 310 q 360 369 450 369 q 197 328 260 369 q 135 218 135 286 q 148 156 135 185 q 185 105 161 126 q 240 71 208 83 q 307 58 271 58 m 1163 392 q 1135 501 1158 451 q 1076 586 1113 550 q 993 642 1040 622 q 890 663 946 663 q 788 642 835 663 q 704 586 740 622 q 647 500 668 550 q 622 392 625 450 l 1163 392 z "},"ç":{"ha":763,"x_min":54,"x_max":718,"o":"m 310 -175 q 363 -192 329 -185 q 432 -200 396 -200 q 511 -151 511 -200 q 492 -112 511 -124 q 442 -101 474 -101 q 381 -108 413 -101 q 331 -121 349 -114 l 389 -12 q 254 24 315 -7 q 149 107 193 56 q 79 224 104 158 q 54 364 54 290 q 81 508 54 440 q 155 627 107 576 q 269 707 203 678 q 417 736 336 736 q 596 690 519 736 q 711 564 672 643 l 619 535 q 534 622 589 590 q 413 653 479 653 q 309 631 357 653 q 226 570 261 608 q 170 479 190 532 q 150 364 150 426 q 171 249 150 303 q 228 155 192 194 q 312 92 264 115 q 414 69 360 69 q 483 79 449 69 q 546 106 517 89 q 596 146 575 124 q 625 193 617 168 l 718 165 q 614 42 689 90 q 443 -12 539 -6 l 407 -71 q 434 -64 419 -65 q 460 -62 449 -62 q 537 -84 508 -62 q 565 -147 565 -106 q 529 -219 565 -194 q 424 -244 493 -244 q 349 -237 383 -244 q 286 -218 314 -229 l 310 -175 z "},"è":{"ha":815,"x_min":54,"x_max":774,"o":"m 417 -14 q 272 16 338 -14 q 157 98 206 46 q 81 218 108 150 q 54 364 54 286 q 81 508 54 440 q 156 626 108 575 q 271 706 204 676 q 415 736 338 736 q 560 706 494 736 q 674 625 626 676 q 747 507 721 574 q 774 365 774 440 q 774 343 774 354 q 772 328 774 332 l 153 328 q 180 220 157 269 q 239 135 203 171 q 322 78 275 99 q 421 58 368 58 q 490 68 456 58 q 554 94 525 78 q 607 135 583 111 q 643 189 631 160 l 725 167 q 678 94 708 126 q 607 37 647 61 q 518 -1 567 13 q 417 -14 469 -14 m 683 400 q 656 506 679 458 q 598 589 633 554 q 516 643 563 624 q 417 663 469 663 q 317 643 364 663 q 234 589 269 624 q 177 506 199 554 q 151 400 156 457 l 683 400 m 283 1014 l 382 1014 l 465 885 l 404 861 l 283 1014 z "},"é":{"ha":815,"x_min":54,"x_max":774,"o":"m 421 861 l 358 885 l 440 1014 l 540 1014 l 421 861 m 417 -14 q 272 16 338 -14 q 157 98 206 46 q 81 218 108 150 q 54 364 54 286 q 81 508 54 440 q 156 626 108 575 q 271 706 204 676 q 415 736 338 736 q 560 706 494 736 q 674 625 626 676 q 747 507 721 574 q 774 365 774 440 q 774 343 774 354 q 772 328 774 332 l 153 328 q 180 220 157 269 q 239 135 203 171 q 322 78 275 99 q 421 58 368 58 q 490 68 456 58 q 554 94 525 78 q 607 135 583 111 q 643 189 631 160 l 725 167 q 678 94 708 126 q 607 37 647 61 q 518 -1 567 13 q 417 -14 469 -14 m 683 400 q 656 506 679 458 q 598 589 633 554 q 516 643 563 624 q 417 663 469 663 q 317 643 364 663 q 234 589 269 624 q 177 506 199 554 q 151 400 156 457 l 683 400 z "},"ê":{"ha":815,"x_min":54,"x_max":774,"o":"m 242 896 l 378 1014 l 447 1014 l 585 896 l 531 867 l 413 954 l 294 867 l 242 896 m 417 -14 q 272 16 338 -14 q 157 98 206 46 q 81 218 108 150 q 54 364 54 286 q 81 508 54 440 q 156 626 108 575 q 271 706 204 676 q 415 736 338 736 q 560 706 494 736 q 674 625 626 676 q 747 507 721 574 q 774 365 774 440 q 774 343 774 354 q 772 328 774 332 l 153 328 q 180 220 157 269 q 239 135 203 171 q 322 78 275 99 q 421 58 368 58 q 490 68 456 58 q 554 94 525 78 q 607 135 583 111 q 643 189 631 160 l 725 167 q 678 94 708 126 q 607 37 647 61 q 518 -1 567 13 q 417 -14 469 -14 m 683 400 q 656 506 679 458 q 598 589 633 554 q 516 643 563 624 q 417 663 469 663 q 317 643 364 663 q 234 589 269 624 q 177 506 199 554 q 151 400 156 457 l 683 400 z "},"ë":{"ha":815,"x_min":54,"x_max":774,"o":"m 268 879 l 268 1010 l 349 1010 l 349 879 l 268 879 m 475 879 l 475 1010 l 556 1010 l 556 879 l 475 879 m 417 -14 q 272 16 338 -14 q 157 98 206 46 q 81 218 108 150 q 54 364 54 286 q 81 508 54 440 q 156 626 108 575 q 271 706 204 676 q 415 736 338 736 q 560 706 494 736 q 674 625 626 676 q 747 507 721 574 q 774 365 774 440 q 774 343 774 354 q 772 328 774 332 l 153 328 q 180 220 157 269 q 239 135 203 171 q 322 78 275 99 q 421 58 368 58 q 490 68 456 58 q 554 94 525 78 q 607 135 583 111 q 643 189 631 160 l 725 167 q 678 94 708 126 q 607 37 647 61 q 518 -1 567 13 q 417 -14 469 -14 m 683 400 q 656 506 679 458 q 598 589 633 554 q 516 643 563 624 q 417 663 469 663 q 317 643 364 663 q 234 589 269 624 q 177 506 199 554 q 151 400 156 457 l 683 400 z "},"ì":{"ha":303,"x_min":22,"x_max":204,"o":"m 104 0 l 104 724 l 199 724 l 199 0 l 104 0 m 22 1014 l 121 1014 l 204 885 l 143 861 l 22 1014 z "},"ı":{"ha":303,"x_min":104,"x_max":199,"o":"m 104 0 l 104 724 l 199 724 l 199 0 l 104 0 z "},"í":{"ha":303,"x_min":97,"x_max":279,"o":"m 160 861 l 97 885 l 179 1014 l 279 1014 l 160 861 m 104 0 l 104 724 l 199 724 l 199 0 l 104 0 z "},"î":{"ha":303,"x_min":-19,"x_max":324,"o":"m -19 896 l 117 1014 l 186 1014 l 324 896 l 269 867 l 151 954 l 33 867 l -19 896 m 104 0 l 104 724 l 199 724 l 199 0 l 104 0 z "},"ï":{"ha":303,"x_min":7,"x_max":294,"o":"m 7 879 l 7 1010 l 88 1010 l 88 879 l 7 879 m 214 879 l 214 1010 l 294 1010 l 294 879 l 214 879 m 104 0 l 104 724 l 199 724 l 199 0 l 104 0 z "},"ð":{"ha":836,"x_min":58,"x_max":776,"o":"m 688 949 l 574 878 q 672 756 633 819 q 734 630 711 693 q 767 505 757 567 q 776 385 776 443 q 747 222 776 294 q 668 96 718 149 q 552 15 618 43 q 411 -14 486 -14 q 274 13 339 -14 q 162 85 210 39 q 86 192 114 131 q 58 324 58 253 q 85 453 58 392 q 158 560 113 514 q 266 632 204 606 q 399 658 328 658 q 567 613 492 658 q 681 496 643 568 q 628 669 667 583 q 501 842 589 756 l 346 744 l 315 788 l 463 878 q 264 1014 385 944 l 397 1014 q 536 914 474 968 l 657 990 l 688 949 m 154 322 q 174 224 154 269 q 230 143 194 178 q 313 89 265 108 q 414 69 360 69 q 518 91 469 69 q 603 149 567 113 q 660 233 639 185 q 681 335 681 281 q 660 431 681 386 q 603 508 639 475 q 520 560 568 542 q 418 579 472 579 q 315 559 364 579 q 231 504 267 539 q 175 422 196 469 q 154 322 154 375 z "},"ñ":{"ha":810,"x_min":104,"x_max":713,"o":"m 713 0 l 618 0 l 618 404 q 580 592 618 533 q 463 650 542 650 q 379 635 421 650 q 302 592 338 619 q 239 526 267 564 q 199 443 211 488 l 199 0 l 104 0 l 104 724 l 190 724 l 190 560 q 317 688 235 639 q 497 736 400 736 q 599 714 557 736 q 665 651 640 692 q 701 553 690 611 q 713 424 713 494 l 713 0 m 497 886 q 442 894 465 886 q 399 913 419 903 q 360 933 379 924 q 319 942 342 942 q 283 932 296 942 q 262 910 269 922 q 252 888 254 899 q 250 875 250 878 l 192 875 q 197 903 192 882 q 215 947 201 925 q 254 987 229 969 q 318 1004 279 1004 q 369 995 347 1004 q 410 975 390 986 q 449 955 429 964 q 496 946 469 946 q 538 956 522 946 q 563 978 554 965 q 573 1001 571 990 q 575 1014 575 1011 l 633 1014 q 628 986 633 1007 q 608 943 622 965 q 566 903 593 921 q 497 886 539 886 z "},"ò":{"ha":826,"x_min":54,"x_max":772,"o":"m 413 -14 q 268 16 333 -14 q 155 97 203 46 q 81 217 107 149 q 54 360 54 285 q 81 504 54 436 q 156 624 108 572 q 269 706 204 675 q 413 736 335 736 q 556 706 490 736 q 670 624 622 675 q 745 504 718 572 q 772 360 772 436 q 746 217 772 285 q 672 97 719 149 q 558 16 624 46 q 413 -14 492 -14 m 150 358 q 171 245 150 297 q 227 153 192 193 q 310 92 263 114 q 413 69 358 69 q 515 92 467 69 q 599 155 563 115 q 656 247 635 194 q 676 361 676 300 q 656 474 676 421 q 599 567 635 528 q 515 630 563 607 q 413 653 467 653 q 311 630 358 653 q 228 567 264 607 q 171 473 192 526 q 150 358 150 419 m 285 1014 l 383 1014 l 467 885 l 406 861 l 285 1014 z "},"ó":{"ha":826,"x_min":54,"x_max":772,"o":"m 421 861 l 358 885 l 440 1014 l 540 1014 l 421 861 m 413 -14 q 268 16 333 -14 q 155 97 203 46 q 81 217 107 149 q 54 360 54 285 q 81 504 54 436 q 156 624 108 572 q 269 706 204 675 q 413 736 335 736 q 556 706 490 736 q 670 624 622 675 q 745 504 718 572 q 772 360 772 436 q 746 217 772 285 q 672 97 719 149 q 558 16 624 46 q 413 -14 492 -14 m 150 358 q 171 245 150 297 q 227 153 192 193 q 310 92 263 114 q 413 69 358 69 q 515 92 467 69 q 599 155 563 115 q 656 247 635 194 q 676 361 676 300 q 656 474 676 421 q 599 567 635 528 q 515 630 563 607 q 413 653 467 653 q 311 630 358 653 q 228 567 264 607 q 171 473 192 526 q 150 358 150 419 z "},"ô":{"ha":826,"x_min":54,"x_max":772,"o":"m 242 896 l 378 1014 l 447 1014 l 585 896 l 531 867 l 413 954 l 294 867 l 242 896 m 413 -14 q 268 16 333 -14 q 155 97 203 46 q 81 217 107 149 q 54 360 54 285 q 81 504 54 436 q 156 624 108 572 q 269 706 204 675 q 413 736 335 736 q 556 706 490 736 q 670 624 622 675 q 745 504 718 572 q 772 360 772 436 q 746 217 772 285 q 672 97 719 149 q 558 16 624 46 q 413 -14 492 -14 m 150 358 q 171 245 150 297 q 227 153 192 193 q 310 92 263 114 q 413 69 358 69 q 515 92 467 69 q 599 155 563 115 q 656 247 635 194 q 676 361 676 300 q 656 474 676 421 q 599 567 635 528 q 515 630 563 607 q 413 653 467 653 q 311 630 358 653 q 228 567 264 607 q 171 473 192 526 q 150 358 150 419 z "},"õ":{"ha":826,"x_min":54,"x_max":772,"o":"m 413 -14 q 268 16 333 -14 q 155 97 203 46 q 81 217 107 149 q 54 360 54 285 q 81 504 54 436 q 156 624 108 572 q 269 706 204 675 q 413 736 335 736 q 556 706 490 736 q 670 624 622 675 q 745 504 718 572 q 772 360 772 436 q 746 217 772 285 q 672 97 719 149 q 558 16 624 46 q 413 -14 492 -14 m 150 358 q 171 245 150 297 q 227 153 192 193 q 310 92 263 114 q 413 69 358 69 q 515 92 467 69 q 599 155 563 115 q 656 247 635 194 q 676 361 676 300 q 656 474 676 421 q 599 567 635 528 q 515 630 563 607 q 413 653 467 653 q 311 630 358 653 q 228 567 264 607 q 171 473 192 526 q 150 358 150 419 m 500 886 q 445 894 468 886 q 402 913 422 903 q 363 933 382 924 q 322 942 344 942 q 285 932 299 942 q 265 910 272 922 q 255 888 257 899 q 253 875 253 878 l 194 875 q 199 903 194 882 q 218 947 204 925 q 257 987 232 969 q 321 1004 282 1004 q 372 995 350 1004 q 413 975 393 986 q 452 955 432 964 q 499 946 472 946 q 541 956 525 946 q 565 978 557 965 q 576 1001 574 990 q 578 1014 578 1011 l 636 1014 q 631 986 636 1007 q 610 943 625 965 q 569 903 596 921 q 500 886 542 886 z "},"ö":{"ha":826,"x_min":54,"x_max":772,"o":"m 269 879 l 269 1010 l 350 1010 l 350 879 l 269 879 m 476 879 l 476 1010 l 557 1010 l 557 879 l 476 879 m 413 -14 q 268 16 333 -14 q 155 97 203 46 q 81 217 107 149 q 54 360 54 285 q 81 504 54 436 q 156 624 108 572 q 269 706 204 675 q 413 736 335 736 q 556 706 490 736 q 670 624 622 675 q 745 504 718 572 q 772 360 772 436 q 746 217 772 285 q 672 97 719 149 q 558 16 624 46 q 413 -14 492 -14 m 150 358 q 171 245 150 297 q 227 153 192 193 q 310 92 263 114 q 413 69 358 69 q 515 92 467 69 q 599 155 563 115 q 656 247 635 194 q 676 361 676 300 q 656 474 676 421 q 599 567 635 528 q 515 630 563 607 q 413 653 467 653 q 311 630 358 653 q 228 567 264 607 q 171 473 192 526 q 150 358 150 419 z "},"÷":{"ha":746,"x_min":93,"x_max":653,"o":"m 332 554 l 332 681 l 414 681 l 414 554 l 332 554 m 332 103 l 332 228 l 414 228 l 414 103 l 332 103 m 93 353 l 93 432 l 653 432 l 653 353 l 93 353 z "},"ø":{"ha":826,"x_min":54,"x_max":772,"o":"m 129 -1 l 183 69 q 88 197 122 122 q 54 360 54 272 q 81 504 54 436 q 156 624 108 572 q 269 706 204 675 q 413 736 335 736 q 513 722 465 736 q 600 682 560 708 l 632 726 l 697 726 l 640 651 q 738 523 703 599 q 772 360 772 447 q 746 217 772 285 q 672 97 719 149 q 558 16 624 46 q 413 -14 492 -14 q 312 0 360 -14 q 224 39 264 14 l 193 -1 l 129 -1 m 413 69 q 515 92 467 69 q 599 155 563 115 q 656 247 635 194 q 676 361 676 300 q 652 482 676 426 q 588 578 628 538 l 276 111 q 413 69 338 69 m 150 358 q 174 237 150 292 q 238 142 197 182 l 549 610 q 413 653 486 653 q 311 630 358 653 q 228 567 264 607 q 171 473 192 526 q 150 358 150 419 z "},"ù":{"ha":825,"x_min":97,"x_max":749,"o":"m 331 -14 q 155 65 213 -14 q 97 299 97 143 l 97 724 l 192 724 l 192 315 q 360 69 192 69 q 442 83 401 69 q 516 124 482 97 q 577 186 550 150 q 621 268 604 222 l 621 724 l 715 724 l 715 122 q 749 83 715 83 l 749 0 q 722 -3 732 -3 q 707 -3 711 -3 q 653 21 674 -1 q 632 81 632 43 l 632 164 q 503 33 585 79 q 331 -14 422 -14 m 275 1014 l 374 1014 l 457 885 l 396 861 l 275 1014 z "},"ú":{"ha":825,"x_min":97,"x_max":749,"o":"m 413 861 l 350 885 l 432 1014 l 532 1014 l 413 861 m 331 -14 q 155 65 213 -14 q 97 299 97 143 l 97 724 l 192 724 l 192 315 q 360 69 192 69 q 442 83 401 69 q 516 124 482 97 q 577 186 550 150 q 621 268 604 222 l 621 724 l 715 724 l 715 122 q 749 83 715 83 l 749 0 q 722 -3 732 -3 q 707 -3 711 -3 q 653 21 674 -1 q 632 81 632 43 l 632 164 q 503 33 585 79 q 331 -14 422 -14 z "},"û":{"ha":825,"x_min":97,"x_max":749,"o":"m 232 896 l 368 1014 l 438 1014 l 575 896 l 521 867 l 403 954 l 285 867 l 232 896 m 331 -14 q 155 65 213 -14 q 97 299 97 143 l 97 724 l 192 724 l 192 315 q 360 69 192 69 q 442 83 401 69 q 516 124 482 97 q 577 186 550 150 q 621 268 604 222 l 621 724 l 715 724 l 715 122 q 749 83 715 83 l 749 0 q 722 -3 732 -3 q 707 -3 711 -3 q 653 21 674 -1 q 632 81 632 43 l 632 164 q 503 33 585 79 q 331 -14 422 -14 z "},"ü":{"ha":825,"x_min":97,"x_max":749,"o":"m 260 879 l 260 1010 l 340 1010 l 340 879 l 260 879 m 467 879 l 467 1010 l 547 1010 l 547 879 l 467 879 m 331 -14 q 155 65 213 -14 q 97 299 97 143 l 97 724 l 192 724 l 192 315 q 360 69 192 69 q 442 83 401 69 q 516 124 482 97 q 577 186 550 150 q 621 268 604 222 l 621 724 l 715 724 l 715 122 q 749 83 715 83 l 749 0 q 722 -3 732 -3 q 707 -3 711 -3 q 653 21 674 -1 q 632 81 632 43 l 632 164 q 503 33 585 79 q 331 -14 422 -14 z "},"ý":{"ha":753,"x_min":21,"x_max":725,"o":"m 146 -222 q 167 -224 157 -224 q 188 -225 178 -225 q 227 -218 213 -225 q 256 -187 242 -211 q 287 -119 269 -164 q 336 0 304 -75 l 21 724 l 118 724 l 386 88 l 635 724 l 725 724 l 350 -210 q 299 -280 335 -250 q 203 -310 264 -310 q 176 -309 189 -310 q 146 -306 164 -308 l 146 -222 m 396 861 l 333 885 l 415 1014 l 515 1014 l 396 861 z "},"þ":{"ha":838,"x_min":104,"x_max":785,"o":"m 785 357 q 756 213 783 282 q 680 92 728 144 q 568 9 632 40 q 429 -22 504 -22 q 292 15 353 -22 q 200 103 232 53 l 200 -296 l 104 -296 l 104 986 l 200 986 l 200 603 q 298 699 240 660 q 442 739 356 739 q 585 705 522 739 q 693 616 649 671 q 761 493 738 561 q 785 357 785 425 m 688 358 q 669 469 688 415 q 619 563 651 522 q 540 628 586 604 q 438 653 493 653 q 360 639 396 653 q 294 601 324 625 q 240 547 264 578 q 200 483 217 517 l 200 239 q 222 174 200 206 q 278 118 244 142 q 351 80 311 94 q 428 65 392 65 q 533 90 485 65 q 615 156 581 115 q 668 249 649 196 q 688 358 688 301 z "},"ÿ":{"ha":753,"x_min":21,"x_max":725,"o":"m 146 -222 q 167 -224 157 -224 q 188 -225 178 -225 q 227 -218 213 -225 q 256 -187 242 -211 q 287 -119 269 -164 q 336 0 304 -75 l 21 724 l 118 724 l 386 88 l 635 724 l 725 724 l 350 -210 q 299 -280 335 -250 q 203 -310 264 -310 q 176 -309 189 -310 q 146 -306 164 -308 l 146 -222 m 243 879 l 243 1010 l 324 1010 l 324 879 l 243 879 m 450 879 l 450 1010 l 531 1010 l 531 879 l 450 879 z "},"Ā":{"ha":939,"x_min":17,"x_max":921,"o":"m 429 986 l 511 986 l 921 0 l 818 0 l 690 308 l 247 308 l 121 0 l 17 0 l 429 986 m 668 385 l 469 872 l 268 385 l 668 385 m 269 1181 l 269 1246 l 671 1246 l 671 1181 l 269 1181 z "},"ā":{"ha":757,"x_min":46,"x_max":692,"o":"m 286 -14 q 191 3 235 -14 q 115 51 147 21 q 64 123 82 82 q 46 211 46 164 q 68 299 46 258 q 131 368 90 339 q 226 413 171 397 q 349 429 282 429 q 461 419 404 429 q 563 392 518 410 l 563 457 q 508 609 563 553 q 358 665 454 665 q 244 643 303 665 q 126 579 186 621 l 93 642 q 365 736 233 736 q 579 660 501 736 q 657 449 657 583 l 657 122 q 692 83 657 83 l 692 0 q 656 -4 668 -4 q 599 14 619 -4 q 578 64 579 32 l 575 121 q 449 21 525 56 q 286 -14 374 -14 m 308 58 q 444 86 382 58 q 538 160 506 114 q 556 187 550 172 q 563 214 563 201 l 563 332 q 465 360 515 350 q 361 369 414 369 q 199 328 261 369 q 136 218 136 286 q 149 156 136 185 q 185 105 163 126 q 240 71 208 83 q 308 58 272 58 m 165 921 l 165 986 l 567 986 l 567 921 l 165 921 z "},"Ă":{"ha":939,"x_min":17,"x_max":921,"o":"m 429 986 l 511 986 l 921 0 l 818 0 l 690 308 l 247 308 l 121 0 l 17 0 l 429 986 m 668 385 l 469 872 l 268 385 l 668 385 m 469 1182 q 522 1208 499 1182 q 549 1274 544 1235 l 606 1274 q 595 1219 606 1244 q 566 1174 585 1193 q 522 1144 547 1156 q 469 1133 497 1133 q 372 1174 411 1133 q 333 1274 333 1214 l 392 1274 q 415 1210 392 1238 q 469 1182 439 1182 z "},"˘":{"ha":392,"x_min":60,"x_max":332,"o":"m 196 922 q 248 949 225 922 q 275 1014 271 975 l 332 1014 q 322 959 332 985 q 292 915 311 933 q 249 885 274 896 q 196 874 224 874 q 99 914 138 874 q 60 1014 60 954 l 118 1014 q 142 950 118 978 q 196 922 165 922 z "},"ă":{"ha":757,"x_min":46,"x_max":692,"o":"m 286 -14 q 191 3 235 -14 q 115 51 147 21 q 64 123 82 82 q 46 211 46 164 q 68 299 46 258 q 131 368 90 339 q 226 413 171 397 q 349 429 282 429 q 461 419 404 429 q 563 392 518 410 l 563 457 q 508 609 563 553 q 358 665 454 665 q 244 643 303 665 q 126 579 186 621 l 93 642 q 365 736 233 736 q 579 660 501 736 q 657 449 657 583 l 657 122 q 692 83 657 83 l 692 0 q 656 -4 668 -4 q 599 14 619 -4 q 578 64 579 32 l 575 121 q 449 21 525 56 q 286 -14 374 -14 m 308 58 q 444 86 382 58 q 538 160 506 114 q 556 187 550 172 q 563 214 563 201 l 563 332 q 465 360 515 350 q 361 369 414 369 q 199 328 261 369 q 136 218 136 286 q 149 156 136 185 q 185 105 163 126 q 240 71 208 83 q 308 58 272 58 m 365 922 q 417 949 394 922 q 444 1014 440 975 l 501 1014 q 491 959 501 985 q 462 915 481 933 q 418 885 443 896 q 365 874 393 874 q 268 914 307 874 q 229 1014 229 954 l 288 1014 q 311 950 288 978 q 365 922 335 922 z "},"Ą":{"ha":938,"x_min":17,"x_max":921,"o":"m 853 -243 q 775 -205 801 -232 q 749 -142 749 -178 q 774 -72 749 -107 q 853 0 799 -37 l 818 0 l 690 308 l 247 308 l 121 0 l 17 0 l 429 986 l 511 986 l 921 0 q 833 -69 858 -39 q 807 -129 807 -99 q 879 -190 807 -181 l 853 -243 m 668 385 l 469 872 l 268 385 l 668 385 z "},"˛":{"ha":333,"x_min":76,"x_max":249,"o":"m 181 -243 q 103 -205 129 -232 q 76 -142 76 -178 q 110 -61 76 -101 q 218 24 143 -21 l 249 0 q 160 -69 186 -39 q 135 -129 135 -99 q 207 -190 135 -181 l 181 -243 l 181 -243 z "},"ą":{"ha":757,"x_min":46,"x_max":692,"o":"m 624 -243 q 546 -205 572 -232 q 519 -142 519 -178 q 544 -72 519 -107 q 624 0 569 -37 q 578 64 581 13 l 575 121 q 449 21 525 56 q 286 -14 374 -14 q 191 3 235 -14 q 115 51 147 21 q 64 123 82 82 q 46 211 46 164 q 68 299 46 258 q 131 368 90 339 q 226 413 171 397 q 349 429 282 429 q 461 419 404 429 q 563 392 518 410 l 563 457 q 508 609 563 553 q 358 665 454 665 q 244 643 303 665 q 126 579 186 621 l 93 642 q 365 736 233 736 q 579 660 501 736 q 657 449 657 583 l 657 122 q 692 83 657 83 l 692 0 q 603 -69 629 -39 q 578 -129 578 -99 q 650 -190 578 -181 l 624 -243 m 308 58 q 444 86 382 58 q 538 160 506 114 q 556 187 550 172 q 563 214 563 201 l 563 332 q 465 360 515 350 q 361 369 414 369 q 199 328 261 369 q 136 218 136 286 q 149 156 136 185 q 185 105 163 126 q 240 71 208 83 q 308 58 272 58 z "},"Ć":{"ha":953,"x_min":58,"x_max":910,"o":"m 533 1121 l 471 1144 l 553 1274 l 653 1274 l 533 1121 m 58 500 q 90 677 58 589 q 181 835 121 765 q 328 948 240 904 q 526 992 415 992 q 752 932 658 992 q 890 776 846 872 l 814 729 q 756 811 790 778 q 683 865 722 844 q 603 895 644 886 q 521 904 561 904 q 364 868 432 904 q 249 774 296 832 q 179 642 203 715 q 156 494 156 569 q 184 338 156 413 q 262 205 213 263 q 378 113 311 147 q 525 79 446 79 q 610 90 567 79 q 695 123 654 100 q 771 180 736 146 q 829 263 806 214 l 910 221 q 843 123 886 165 q 747 51 800 81 q 635 7 694 22 q 519 -8 576 -8 q 333 36 418 -8 q 188 152 249 81 q 92 315 126 224 q 58 500 58 406 z "},"ć":{"ha":763,"x_min":54,"x_max":718,"o":"m 422 861 l 360 885 l 442 1014 l 542 1014 l 422 861 m 54 364 q 81 508 54 440 q 155 627 107 576 q 269 707 203 678 q 417 736 336 736 q 596 690 519 736 q 711 564 672 643 l 619 535 q 534 622 589 590 q 413 653 479 653 q 309 631 357 653 q 226 570 261 608 q 170 479 190 532 q 150 364 150 426 q 171 249 150 303 q 228 155 192 194 q 312 92 264 115 q 414 69 360 69 q 483 79 449 69 q 546 106 517 89 q 596 146 575 124 q 625 193 617 168 l 718 165 q 674 94 703 126 q 605 37 644 61 q 517 -1 565 13 q 418 -14 469 -14 q 272 16 339 -14 q 157 98 206 46 q 81 218 108 150 q 54 364 54 286 z "},"Ĉ":{"ha":953,"x_min":58,"x_max":910,"o":"m 353 1156 l 489 1274 l 558 1274 l 696 1156 l 642 1126 l 524 1214 l 406 1126 l 353 1156 m 58 500 q 90 677 58 589 q 181 835 121 765 q 328 948 240 904 q 526 992 415 992 q 752 932 658 992 q 890 776 846 872 l 814 729 q 756 811 790 778 q 683 865 722 844 q 603 895 644 886 q 521 904 561 904 q 364 868 432 904 q 249 774 296 832 q 179 642 203 715 q 156 494 156 569 q 184 338 156 413 q 262 205 213 263 q 378 113 311 147 q 525 79 446 79 q 610 90 567 79 q 695 123 654 100 q 771 180 736 146 q 829 263 806 214 l 910 221 q 843 123 886 165 q 747 51 800 81 q 635 7 694 22 q 519 -8 576 -8 q 333 36 418 -8 q 188 152 249 81 q 92 315 126 224 q 58 500 58 406 z "},"ĉ":{"ha":763,"x_min":54,"x_max":718,"o":"m 243 896 l 379 1014 l 449 1014 l 586 896 l 532 867 l 414 954 l 296 867 l 243 896 m 54 364 q 81 508 54 440 q 155 627 107 576 q 269 707 203 678 q 417 736 336 736 q 596 690 519 736 q 711 564 672 643 l 619 535 q 534 622 589 590 q 413 653 479 653 q 309 631 357 653 q 226 570 261 608 q 170 479 190 532 q 150 364 150 426 q 171 249 150 303 q 228 155 192 194 q 312 92 264 115 q 414 69 360 69 q 483 79 449 69 q 546 106 517 89 q 596 146 575 124 q 625 193 617 168 l 718 165 q 674 94 703 126 q 605 37 644 61 q 517 -1 565 13 q 418 -14 469 -14 q 272 16 339 -14 q 157 98 206 46 q 81 218 108 150 q 54 364 54 286 z "},"Ċ":{"ha":953,"x_min":58,"x_max":910,"o":"m 58 500 q 90 677 58 589 q 181 835 121 765 q 328 948 240 904 q 526 992 415 992 q 752 932 658 992 q 890 776 846 872 l 814 729 q 756 811 790 778 q 683 865 722 844 q 603 895 644 886 q 521 904 561 904 q 364 868 432 904 q 249 774 296 832 q 179 642 203 715 q 156 494 156 569 q 184 338 156 413 q 262 205 213 263 q 378 113 311 147 q 525 79 446 79 q 610 90 567 79 q 695 123 654 100 q 771 180 736 146 q 829 263 806 214 l 910 221 q 843 123 886 165 q 747 51 800 81 q 635 7 694 22 q 519 -8 576 -8 q 333 36 418 -8 q 188 152 249 81 q 92 315 126 224 q 58 500 58 406 m 481 1139 l 481 1274 l 567 1274 l 567 1139 l 481 1139 z "},"˙":{"ha":225,"x_min":69,"x_max":156,"o":"m 69 879 l 69 1014 l 156 1014 l 156 879 l 69 879 z "},"ċ":{"ha":763,"x_min":54,"x_max":718,"o":"m 54 364 q 81 508 54 440 q 155 627 107 576 q 269 707 203 678 q 417 736 336 736 q 596 690 519 736 q 711 564 672 643 l 619 535 q 534 622 589 590 q 413 653 479 653 q 309 631 357 653 q 226 570 261 608 q 170 479 190 532 q 150 364 150 426 q 171 249 150 303 q 228 155 192 194 q 312 92 264 115 q 414 69 360 69 q 483 79 449 69 q 546 106 517 89 q 596 146 575 124 q 625 193 617 168 l 718 165 q 674 94 703 126 q 605 37 644 61 q 517 -1 565 13 q 418 -14 469 -14 q 272 16 339 -14 q 157 98 206 46 q 81 218 108 150 q 54 364 54 286 m 371 879 l 371 1014 l 457 1014 l 457 879 l 371 879 z "},"Č":{"ha":953,"x_min":58,"x_max":910,"o":"m 406 1274 l 524 1186 l 642 1274 l 696 1246 l 558 1126 l 489 1126 l 353 1246 l 406 1274 m 58 500 q 90 677 58 589 q 181 835 121 765 q 328 948 240 904 q 526 992 415 992 q 752 932 658 992 q 890 776 846 872 l 814 729 q 756 811 790 778 q 683 865 722 844 q 603 895 644 886 q 521 904 561 904 q 364 868 432 904 q 249 774 296 832 q 179 642 203 715 q 156 494 156 569 q 184 338 156 413 q 262 205 213 263 q 378 113 311 147 q 525 79 446 79 q 610 90 567 79 q 695 123 654 100 q 771 180 736 146 q 829 263 806 214 l 910 221 q 843 123 886 165 q 747 51 800 81 q 635 7 694 22 q 519 -8 576 -8 q 333 36 418 -8 q 188 152 249 81 q 92 315 126 224 q 58 500 58 406 z "},"ˇ":{"ha":458,"x_min":58,"x_max":401,"o":"m 111 1014 l 229 926 l 347 1014 l 401 986 l 264 867 l 194 867 l 58 986 l 111 1014 z "},"č":{"ha":763,"x_min":54,"x_max":718,"o":"m 296 1014 l 414 926 l 532 1014 l 586 986 l 449 867 l 379 867 l 243 986 l 296 1014 m 54 364 q 81 508 54 440 q 155 627 107 576 q 269 707 203 678 q 417 736 336 736 q 596 690 519 736 q 711 564 672 643 l 619 535 q 534 622 589 590 q 413 653 479 653 q 309 631 357 653 q 226 570 261 608 q 170 479 190 532 q 150 364 150 426 q 171 249 150 303 q 228 155 192 194 q 312 92 264 115 q 414 69 360 69 q 483 79 449 69 q 546 106 517 89 q 596 146 575 124 q 625 193 617 168 l 718 165 q 674 94 703 126 q 605 37 644 61 q 517 -1 565 13 q 418 -14 469 -14 q 272 16 339 -14 q 157 98 206 46 q 81 218 108 150 q 54 364 54 286 z "},"Ď":{"ha":993,"x_min":124,"x_max":931,"o":"m 360 1274 l 478 1186 l 596 1274 l 650 1246 l 513 1126 l 443 1126 l 307 1246 l 360 1274 m 124 0 l 124 986 l 458 986 q 665 947 576 986 q 812 842 753 908 q 901 685 871 775 q 931 494 931 596 q 897 291 931 382 q 802 135 864 200 q 653 35 740 71 q 458 0 567 0 l 124 0 m 833 494 q 808 658 833 583 q 735 786 783 732 q 618 870 688 840 q 458 900 549 900 l 221 900 l 221 86 l 458 86 q 620 117 550 86 q 738 203 690 149 q 809 333 785 258 q 833 494 833 407 z "},"ď":{"ha":864,"x_min":56,"x_max":986,"o":"m 867 861 l 804 885 l 886 1014 l 986 1014 l 867 861 m 401 -14 q 263 17 326 -14 q 153 100 199 49 q 81 219 107 151 q 56 360 56 286 q 81 505 56 436 q 149 625 106 574 q 253 706 193 676 q 386 736 314 736 q 549 688 478 736 q 660 572 619 640 l 660 1014 l 754 1014 l 754 122 q 788 83 754 83 l 788 0 q 754 -4 767 -4 q 696 17 721 -4 q 671 69 671 39 l 671 140 q 554 28 628 69 q 401 -14 481 -14 m 422 69 q 497 83 457 69 q 571 122 536 97 q 630 178 606 146 q 660 249 654 211 l 660 472 q 619 542 646 510 q 559 600 593 575 q 486 639 525 625 q 410 653 447 653 q 304 628 351 653 q 223 562 257 603 q 171 468 189 521 q 153 360 153 415 q 174 249 153 301 q 231 156 194 196 q 316 93 267 117 q 422 69 365 69 z "},"Đ":{"ha":1001,"x_min":47,"x_max":939,"o":"m 132 0 l 132 458 l 47 458 l 47 533 l 132 533 l 132 986 l 467 986 q 673 947 585 986 q 820 842 761 908 q 909 685 879 775 q 939 494 939 596 q 906 291 939 382 q 810 135 872 200 q 662 35 749 71 q 467 0 575 0 l 132 0 m 842 494 q 817 658 842 583 q 744 786 792 732 q 626 870 696 840 q 467 900 557 900 l 229 900 l 229 533 l 465 533 l 465 458 l 229 458 l 229 86 l 467 86 q 628 117 558 86 q 746 203 699 149 q 817 333 793 258 q 842 494 842 407 z "},"đ":{"ha":864,"x_min":56,"x_max":851,"o":"m 401 -14 q 263 17 326 -14 q 153 100 199 49 q 81 219 107 151 q 56 360 56 286 q 81 505 56 436 q 149 625 106 574 q 253 706 193 676 q 386 736 314 736 q 549 688 478 736 q 660 572 619 640 l 660 857 l 501 857 l 501 921 l 660 921 l 660 1014 l 754 1014 l 754 921 l 851 921 l 851 857 l 754 857 l 754 122 q 788 83 754 83 l 788 0 q 754 -4 767 -4 q 696 17 721 -4 q 671 69 671 39 l 671 140 q 554 28 628 69 q 401 -14 481 -14 m 422 69 q 497 83 457 69 q 571 122 536 97 q 630 178 606 146 q 660 249 654 211 l 660 472 q 619 542 646 510 q 559 600 593 575 q 486 639 525 625 q 410 653 447 653 q 304 628 351 653 q 223 562 257 603 q 171 468 189 521 q 153 360 153 415 q 174 249 153 301 q 231 156 194 196 q 316 93 267 117 q 422 69 365 69 z "},"Ē":{"ha":846,"x_min":124,"x_max":786,"o":"m 786 86 l 786 0 l 124 0 l 124 986 l 774 986 l 774 900 l 221 900 l 221 544 l 703 544 l 703 463 l 221 463 l 221 86 l 786 86 m 268 1181 l 268 1246 l 669 1246 l 669 1181 l 268 1181 z "},"ē":{"ha":815,"x_min":54,"x_max":774,"o":"m 417 -14 q 272 16 338 -14 q 157 98 206 46 q 81 218 108 150 q 54 364 54 286 q 81 508 54 440 q 156 626 108 575 q 271 706 204 676 q 415 736 338 736 q 560 706 494 736 q 674 625 626 676 q 747 507 721 574 q 774 365 774 440 q 774 343 774 354 q 772 328 774 332 l 153 328 q 180 220 157 269 q 239 135 203 171 q 322 78 275 99 q 421 58 368 58 q 490 68 456 58 q 554 94 525 78 q 607 135 583 111 q 643 189 631 160 l 725 167 q 678 94 708 126 q 607 37 647 61 q 518 -1 567 13 q 417 -14 469 -14 m 683 400 q 656 506 679 458 q 598 589 633 554 q 516 643 563 624 q 417 663 469 663 q 317 643 364 663 q 234 589 269 624 q 177 506 199 554 q 151 400 156 457 l 683 400 m 211 921 l 211 986 l 613 986 l 613 921 l 211 921 z "},"Ĕ":{"ha":846,"x_min":124,"x_max":786,"o":"m 786 86 l 786 0 l 124 0 l 124 986 l 774 986 l 774 900 l 221 900 l 221 544 l 703 544 l 703 463 l 221 463 l 221 86 l 786 86 m 468 1182 q 520 1208 497 1182 q 547 1274 543 1235 l 604 1274 q 594 1219 604 1244 q 565 1174 583 1193 q 521 1144 546 1156 q 468 1133 496 1133 q 371 1174 410 1133 q 332 1274 332 1214 l 390 1274 q 414 1210 390 1238 q 468 1182 438 1182 z "},"ĕ":{"ha":815,"x_min":54,"x_max":774,"o":"m 417 -14 q 272 16 338 -14 q 157 98 206 46 q 81 218 108 150 q 54 364 54 286 q 81 508 54 440 q 156 626 108 575 q 271 706 204 676 q 415 736 338 736 q 560 706 494 736 q 674 625 626 676 q 747 507 721 574 q 774 365 774 440 q 774 343 774 354 q 772 328 774 332 l 153 328 q 180 220 157 269 q 239 135 203 171 q 322 78 275 99 q 421 58 368 58 q 490 68 456 58 q 554 94 525 78 q 607 135 583 111 q 643 189 631 160 l 725 167 q 678 94 708 126 q 607 37 647 61 q 518 -1 567 13 q 417 -14 469 -14 m 683 400 q 656 506 679 458 q 598 589 633 554 q 516 643 563 624 q 417 663 469 663 q 317 643 364 663 q 234 589 269 624 q 177 506 199 554 q 151 400 156 457 l 683 400 m 413 922 q 465 949 442 922 q 492 1014 488 975 l 549 1014 q 538 959 549 985 q 509 915 528 933 q 465 885 490 896 q 413 874 440 874 q 315 914 354 874 q 276 1014 276 954 l 335 1014 q 358 950 335 978 q 413 922 382 922 z "},"Ė":{"ha":846,"x_min":124,"x_max":786,"o":"m 786 86 l 786 0 l 124 0 l 124 986 l 774 986 l 774 900 l 221 900 l 221 544 l 703 544 l 703 463 l 221 463 l 221 86 l 786 86 m 425 1139 l 425 1274 l 511 1274 l 511 1139 l 425 1139 z "},"ė":{"ha":815,"x_min":54,"x_max":774,"o":"m 417 -14 q 272 16 338 -14 q 157 98 206 46 q 81 218 108 150 q 54 364 54 286 q 81 508 54 440 q 156 626 108 575 q 271 706 204 676 q 415 736 338 736 q 560 706 494 736 q 674 625 626 676 q 747 507 721 574 q 774 365 774 440 q 774 343 774 354 q 772 328 774 332 l 153 328 q 180 220 157 269 q 239 135 203 171 q 322 78 275 99 q 421 58 368 58 q 490 68 456 58 q 554 94 525 78 q 607 135 583 111 q 643 189 631 160 l 725 167 q 678 94 708 126 q 607 37 647 61 q 518 -1 567 13 q 417 -14 469 -14 m 683 400 q 656 506 679 458 q 598 589 633 554 q 516 643 563 624 q 417 663 469 663 q 317 643 364 663 q 234 589 269 624 q 177 506 199 554 q 151 400 156 457 l 683 400 m 369 879 l 369 1014 l 456 1014 l 456 879 l 369 879 z "},"Ę":{"ha":846,"x_min":124,"x_max":786,"o":"m 786 86 l 786 0 q 698 -69 724 -39 q 672 -129 672 -99 q 744 -190 672 -181 l 718 -243 q 640 -205 667 -232 q 614 -142 614 -178 q 639 -72 614 -107 q 718 0 664 -37 l 124 0 l 124 986 l 774 986 l 774 900 l 221 900 l 221 544 l 703 544 l 703 463 l 221 463 l 221 86 l 786 86 z "},"ę":{"ha":815,"x_min":54,"x_max":774,"o":"m 404 -251 q 326 -213 353 -240 q 300 -150 300 -186 q 323 -83 300 -117 q 397 -12 346 -49 q 259 22 322 -8 q 151 104 196 53 q 80 222 106 156 q 54 364 54 289 q 81 508 54 440 q 156 626 108 575 q 271 706 204 676 q 415 736 338 736 q 560 706 494 736 q 674 625 626 676 q 747 507 721 574 q 774 365 774 440 q 774 343 774 354 q 772 328 774 332 l 153 328 q 180 220 157 269 q 239 135 203 171 q 322 78 275 99 q 421 58 368 58 q 490 68 456 58 q 554 94 525 78 q 607 135 583 111 q 643 189 631 160 l 725 167 q 627 49 696 96 q 469 -10 558 1 q 383 -78 408 -49 q 358 -137 358 -107 q 431 -199 358 -189 l 404 -251 m 683 400 q 656 506 679 458 q 598 589 633 554 q 516 643 563 624 q 417 663 469 663 q 317 643 364 663 q 234 589 269 624 q 177 506 199 554 q 151 400 156 457 l 683 400 z "},"Ě":{"ha":846,"x_min":124,"x_max":786,"o":"m 350 1274 l 468 1186 l 586 1274 l 640 1246 l 503 1126 l 433 1126 l 297 1246 l 350 1274 m 786 86 l 786 0 l 124 0 l 124 986 l 774 986 l 774 900 l 221 900 l 221 544 l 703 544 l 703 463 l 221 463 l 221 86 l 786 86 z "},"ě":{"ha":815,"x_min":54,"x_max":774,"o":"m 294 1014 l 413 926 l 531 1014 l 585 986 l 447 867 l 378 867 l 242 986 l 294 1014 m 417 -14 q 272 16 338 -14 q 157 98 206 46 q 81 218 108 150 q 54 364 54 286 q 81 508 54 440 q 156 626 108 575 q 271 706 204 676 q 415 736 338 736 q 560 706 494 736 q 674 625 626 676 q 747 507 721 574 q 774 365 774 440 q 774 343 774 354 q 772 328 774 332 l 153 328 q 180 220 157 269 q 239 135 203 171 q 322 78 275 99 q 421 58 368 58 q 490 68 456 58 q 554 94 525 78 q 607 135 583 111 q 643 189 631 160 l 725 167 q 678 94 708 126 q 607 37 647 61 q 518 -1 567 13 q 417 -14 469 -14 m 683 400 q 656 506 679 458 q 598 589 633 554 q 516 643 563 624 q 417 663 469 663 q 317 643 364 663 q 234 589 269 624 q 177 506 199 554 q 151 400 156 457 l 683 400 z "},"Ĝ":{"ha":994,"x_min":58,"x_max":918,"o":"m 342 1156 l 478 1274 l 547 1274 l 685 1156 l 631 1126 l 513 1214 l 394 1126 l 342 1156 m 836 144 q 519 -7 699 -7 q 335 36 419 -7 q 190 150 251 79 q 93 310 128 221 q 58 494 58 400 q 92 683 58 593 q 188 842 126 774 q 332 952 249 911 q 514 993 415 993 q 646 977 586 993 q 752 933 706 961 q 833 865 799 904 q 890 778 867 825 l 815 728 q 689 863 767 819 q 513 906 611 906 q 365 871 431 906 q 252 778 299 836 q 181 647 206 721 q 156 493 156 572 q 184 335 156 410 q 263 203 213 260 q 380 114 313 147 q 526 81 447 81 q 688 120 611 81 q 836 246 765 160 l 836 410 l 617 410 l 617 485 l 918 485 l 918 0 l 836 0 l 836 144 z "},"ĝ":{"ha":857,"x_min":54,"x_max":753,"o":"m 281 896 l 417 1014 l 486 1014 l 624 896 l 569 867 l 451 954 l 333 867 l 281 896 m 393 -10 q 256 22 318 -10 q 149 104 194 53 q 79 222 104 156 q 54 360 54 289 q 78 503 54 435 q 147 624 103 572 q 253 706 192 675 q 390 736 315 736 q 551 690 483 736 q 668 572 619 643 l 668 724 l 753 724 l 753 -3 q 724 -135 753 -78 q 648 -232 696 -193 q 535 -290 600 -271 q 399 -310 471 -310 q 197 -265 274 -310 q 74 -146 121 -221 l 132 -100 q 246 -202 175 -169 q 399 -235 317 -235 q 499 -220 451 -235 q 581 -177 546 -206 q 638 -105 617 -149 q 658 -3 658 -61 l 658 140 q 544 31 617 71 q 393 -10 472 -10 m 419 69 q 501 85 461 69 q 574 126 542 100 q 629 183 607 151 q 658 249 651 215 l 658 472 q 617 544 643 511 q 557 601 590 578 q 485 639 524 625 q 408 653 447 653 q 299 627 347 653 q 218 560 251 601 q 167 465 185 518 q 150 358 150 413 q 171 247 150 300 q 228 155 192 194 q 314 92 265 115 q 419 69 363 69 z "},"Ğ":{"ha":994,"x_min":58,"x_max":918,"o":"m 836 144 q 519 -7 699 -7 q 335 36 419 -7 q 190 150 251 79 q 93 310 128 221 q 58 494 58 400 q 92 683 58 593 q 188 842 126 774 q 332 952 249 911 q 514 993 415 993 q 646 977 586 993 q 752 933 706 961 q 833 865 799 904 q 890 778 867 825 l 815 728 q 689 863 767 819 q 513 906 611 906 q 365 871 431 906 q 252 778 299 836 q 181 647 206 721 q 156 493 156 572 q 184 335 156 410 q 263 203 213 260 q 380 114 313 147 q 526 81 447 81 q 688 120 611 81 q 836 246 765 160 l 836 410 l 617 410 l 617 485 l 918 485 l 918 0 l 836 0 l 836 144 m 513 1182 q 565 1208 542 1182 q 592 1274 588 1235 l 649 1274 q 638 1219 649 1244 q 609 1174 628 1193 q 565 1144 590 1156 q 513 1133 540 1133 q 415 1174 454 1133 q 376 1274 376 1214 l 435 1274 q 458 1210 435 1238 q 513 1182 482 1182 z "},"ğ":{"ha":857,"x_min":54,"x_max":753,"o":"m 393 -10 q 256 22 318 -10 q 149 104 194 53 q 79 222 104 156 q 54 360 54 289 q 78 503 54 435 q 147 624 103 572 q 253 706 192 675 q 390 736 315 736 q 551 690 483 736 q 668 572 619 643 l 668 724 l 753 724 l 753 -3 q 724 -135 753 -78 q 648 -232 696 -193 q 535 -290 600 -271 q 399 -310 471 -310 q 197 -265 274 -310 q 74 -146 121 -221 l 132 -100 q 246 -202 175 -169 q 399 -235 317 -235 q 499 -220 451 -235 q 581 -177 546 -206 q 638 -105 617 -149 q 658 -3 658 -61 l 658 140 q 544 31 617 71 q 393 -10 472 -10 m 419 69 q 501 85 461 69 q 574 126 542 100 q 629 183 607 151 q 658 249 651 215 l 658 472 q 617 544 643 511 q 557 601 590 578 q 485 639 524 625 q 408 653 447 653 q 299 627 347 653 q 218 560 251 601 q 167 465 185 518 q 150 358 150 413 q 171 247 150 300 q 228 155 192 194 q 314 92 265 115 q 419 69 363 69 m 451 922 q 503 949 481 922 q 531 1014 526 975 l 588 1014 q 577 959 588 985 q 548 915 567 933 q 504 885 529 896 q 451 874 479 874 q 354 914 393 874 q 315 1014 315 954 l 374 1014 q 397 950 374 978 q 451 922 421 922 z "},"Ġ":{"ha":994,"x_min":58,"x_max":918,"o":"m 836 144 q 519 -7 699 -7 q 335 36 419 -7 q 190 150 251 79 q 93 310 128 221 q 58 494 58 400 q 92 683 58 593 q 188 842 126 774 q 332 952 249 911 q 514 993 415 993 q 646 977 586 993 q 752 933 706 961 q 833 865 799 904 q 890 778 867 825 l 815 728 q 689 863 767 819 q 513 906 611 906 q 365 871 431 906 q 252 778 299 836 q 181 647 206 721 q 156 493 156 572 q 184 335 156 410 q 263 203 213 260 q 380 114 313 147 q 526 81 447 81 q 688 120 611 81 q 836 246 765 160 l 836 410 l 617 410 l 617 485 l 918 485 l 918 0 l 836 0 l 836 144 m 469 1139 l 469 1274 l 556 1274 l 556 1139 l 469 1139 z "},"ġ":{"ha":857,"x_min":54,"x_max":753,"o":"m 393 -10 q 256 22 318 -10 q 149 104 194 53 q 79 222 104 156 q 54 360 54 289 q 78 503 54 435 q 147 624 103 572 q 253 706 192 675 q 390 736 315 736 q 551 690 483 736 q 668 572 619 643 l 668 724 l 753 724 l 753 -3 q 724 -135 753 -78 q 648 -232 696 -193 q 535 -290 600 -271 q 399 -310 471 -310 q 197 -265 274 -310 q 74 -146 121 -221 l 132 -100 q 246 -202 175 -169 q 399 -235 317 -235 q 499 -220 451 -235 q 581 -177 546 -206 q 638 -105 617 -149 q 658 -3 658 -61 l 658 140 q 544 31 617 71 q 393 -10 472 -10 m 419 69 q 501 85 461 69 q 574 126 542 100 q 629 183 607 151 q 658 249 651 215 l 658 472 q 617 544 643 511 q 557 601 590 578 q 485 639 524 625 q 408 653 447 653 q 299 627 347 653 q 218 560 251 601 q 167 465 185 518 q 150 358 150 413 q 171 247 150 300 q 228 155 192 194 q 314 92 265 115 q 419 69 363 69 m 408 879 l 408 1014 l 494 1014 l 494 879 l 408 879 z "},"Ģ":{"ha":994,"x_min":58,"x_max":918,"o":"m 479 -276 l 503 -174 l 475 -174 l 475 -68 l 563 -68 l 563 -174 l 528 -276 l 479 -276 m 836 144 q 519 -7 699 -7 q 335 36 419 -7 q 190 150 251 79 q 93 310 128 221 q 58 494 58 400 q 92 683 58 593 q 188 842 126 774 q 332 952 249 911 q 514 993 415 993 q 646 977 586 993 q 752 933 706 961 q 833 865 799 904 q 890 778 867 825 l 815 728 q 689 863 767 819 q 513 906 611 906 q 365 871 431 906 q 252 778 299 836 q 181 647 206 721 q 156 493 156 572 q 184 335 156 410 q 263 203 213 260 q 380 114 313 147 q 526 81 447 81 q 688 120 611 81 q 836 246 765 160 l 836 410 l 617 410 l 617 485 l 918 485 l 918 0 l 836 0 l 836 144 z "},"":{"ha":214,"x_min":79,"x_max":167,"o":"m 83 -276 l 107 -174 l 79 -174 l 79 -68 l 167 -68 l 167 -174 l 132 -276 l 83 -276 z "},"ģ":{"ha":857,"x_min":54,"x_max":753,"o":"m 464 1028 l 440 925 l 468 925 l 468 819 l 381 819 l 381 925 l 415 1028 l 464 1028 m 393 -10 q 256 22 318 -10 q 149 104 194 53 q 79 222 104 156 q 54 360 54 289 q 78 503 54 435 q 147 624 103 572 q 253 706 192 675 q 390 736 315 736 q 551 690 483 736 q 668 572 619 643 l 668 724 l 753 724 l 753 -3 q 724 -135 753 -78 q 648 -232 696 -193 q 535 -290 600 -271 q 399 -310 471 -310 q 197 -265 274 -310 q 74 -146 121 -221 l 132 -100 q 246 -202 175 -169 q 399 -235 317 -235 q 499 -220 451 -235 q 581 -177 546 -206 q 638 -105 617 -149 q 658 -3 658 -61 l 658 140 q 544 31 617 71 q 393 -10 472 -10 m 419 69 q 501 85 461 69 q 574 126 542 100 q 629 183 607 151 q 658 249 651 215 l 658 472 q 617 544 643 511 q 557 601 590 578 q 485 639 524 625 q 408 653 447 653 q 299 627 347 653 q 218 560 251 601 q 167 465 185 518 q 150 358 150 413 q 171 247 150 300 q 228 155 192 194 q 314 92 265 115 q 419 69 363 69 z "},"Ĥ":{"ha":1025,"x_min":124,"x_max":901,"o":"m 344 1156 l 481 1274 l 550 1274 l 688 1156 l 633 1126 l 515 1214 l 397 1126 l 344 1156 m 901 986 l 901 0 l 806 0 l 806 461 l 221 461 l 221 0 l 124 0 l 124 986 l 221 986 l 221 547 l 806 547 l 806 986 l 901 986 z "},"ĥ":{"ha":810,"x_min":104,"x_max":713,"o":"m 306 894 l 435 1011 l 500 1011 l 631 894 l 579 865 l 468 953 l 356 865 l 306 894 m 713 0 l 618 0 l 618 404 q 576 589 618 528 q 451 650 533 650 q 372 634 411 650 q 297 590 332 618 q 237 525 263 563 q 199 443 211 488 l 199 0 l 104 0 l 104 1014 l 199 1014 l 199 560 q 318 689 242 642 q 483 736 394 736 q 589 713 546 736 q 660 649 632 690 q 700 551 688 608 q 713 424 713 493 l 713 0 z "},"Ħ":{"ha":1039,"x_min":61,"x_max":978,"o":"m 908 986 l 908 818 l 978 818 l 978 764 l 908 764 l 908 0 l 813 0 l 813 461 l 228 461 l 228 0 l 131 0 l 131 764 l 61 764 l 61 818 l 131 818 l 131 986 l 228 986 l 228 818 l 813 818 l 813 986 l 908 986 m 813 547 l 813 764 l 228 764 l 228 547 l 813 547 z "},"ħ":{"ha":810,"x_min":19,"x_max":713,"o":"m 713 0 l 618 0 l 618 404 q 576 589 618 528 q 451 650 533 650 q 372 634 411 650 q 297 590 332 618 q 237 525 263 563 q 199 443 211 488 l 199 0 l 104 0 l 104 857 l 19 857 l 19 921 l 104 921 l 104 1014 l 199 1014 l 199 921 l 369 921 l 369 857 l 199 857 l 199 560 q 318 689 242 642 q 483 736 394 736 q 589 713 546 736 q 660 649 632 690 q 700 551 688 608 q 713 424 713 493 l 713 0 z "},"Ĩ":{"ha":344,"x_min":-47,"x_max":394,"o":"m 124 0 l 124 986 l 221 986 l 221 0 l 124 0 m 258 1146 q 203 1154 226 1146 q 160 1173 181 1163 q 122 1192 140 1183 q 81 1201 103 1201 q 44 1192 57 1201 q 23 1170 31 1182 q 13 1148 15 1158 q 11 1135 11 1138 l -47 1135 q -42 1163 -47 1142 q -24 1207 -37 1185 q 15 1247 -10 1229 q 79 1264 40 1264 q 130 1255 108 1264 q 171 1235 151 1246 q 210 1215 190 1224 q 257 1206 231 1206 q 299 1215 283 1206 q 324 1238 315 1225 q 334 1260 332 1250 q 336 1274 336 1271 l 394 1274 q 389 1246 394 1267 q 369 1203 383 1225 q 327 1163 354 1181 q 258 1146 300 1146 z "},"ĩ":{"ha":303,"x_min":-68,"x_max":374,"o":"m 104 0 l 104 724 l 199 724 l 199 0 l 104 0 m 238 886 q 183 894 206 886 q 140 913 160 903 q 101 933 119 924 q 60 942 82 942 q 23 932 36 942 q 2 910 10 922 q -8 888 -6 899 q -10 875 -10 878 l -68 875 q -63 903 -68 882 q -44 947 -58 925 q -6 987 -31 969 q 58 1004 19 1004 q 109 995 88 1004 q 150 975 131 986 q 190 955 169 964 q 236 946 210 946 q 278 956 263 946 q 303 978 294 965 q 313 1001 311 990 q 315 1014 315 1011 l 374 1014 q 368 986 374 1007 q 348 943 363 965 q 306 903 333 921 q 238 886 279 886 z "},"Ī":{"ha":344,"x_min":-28,"x_max":374,"o":"m 124 0 l 124 986 l 221 986 l 221 0 l 124 0 m -28 1181 l -28 1246 l 374 1246 l 374 1181 l -28 1181 z "},"ī":{"ha":303,"x_min":-49,"x_max":353,"o":"m 104 0 l 104 724 l 199 724 l 199 0 l 104 0 m -49 921 l -49 986 l 353 986 l 353 921 l -49 921 z "},"Ĭ":{"ha":344,"x_min":36,"x_max":308,"o":"m 124 0 l 124 986 l 221 986 l 221 0 l 124 0 m 172 1182 q 224 1208 201 1182 q 251 1274 247 1235 l 308 1274 q 298 1219 308 1244 q 269 1174 288 1193 q 225 1144 250 1156 q 172 1133 200 1133 q 75 1174 114 1133 q 36 1274 36 1214 l 94 1274 q 118 1210 94 1238 q 172 1182 142 1182 z "},"ĭ":{"ha":303,"x_min":15,"x_max":288,"o":"m 104 0 l 104 724 l 199 724 l 199 0 l 104 0 m 151 922 q 203 949 181 922 q 231 1014 226 975 l 288 1014 q 277 959 288 985 q 248 915 267 933 q 204 885 229 896 q 151 874 179 874 q 54 914 93 874 q 15 1014 15 954 l 74 1014 q 97 950 74 978 q 151 922 121 922 z "},"Į":{"ha":344,"x_min":49,"x_max":221,"o":"m 153 -243 q 75 -205 101 -232 q 49 -142 49 -178 q 74 -72 49 -107 q 153 0 99 -37 l 124 0 l 124 986 l 221 986 l 221 0 q 133 -69 158 -39 q 107 -129 107 -99 q 179 -190 107 -181 l 153 -243 l 153 -243 z "},"į":{"ha":303,"x_min":26,"x_max":199,"o":"m 131 -243 q 53 -205 79 -232 q 26 -142 26 -178 q 51 -72 26 -107 q 131 0 76 -37 l 104 0 l 104 724 l 199 724 l 199 0 q 110 -69 136 -39 q 85 -129 85 -99 q 157 -190 85 -181 l 131 -243 m 104 875 l 104 1014 l 199 1014 l 199 875 l 104 875 z "},"İ":{"ha":344,"x_min":124,"x_max":221,"o":"m 124 0 l 124 986 l 221 986 l 221 0 l 124 0 m 129 1139 l 129 1274 l 215 1274 l 215 1139 l 129 1139 z "},"Ĳ":{"ha":1013,"x_min":124,"x_max":901,"o":"m 124 0 l 124 986 l 221 986 l 221 0 l 124 0 m 392 124 q 470 88 422 103 q 578 72 518 72 q 698 99 653 72 q 767 179 743 126 q 797 309 790 232 q 804 485 804 386 l 804 986 l 901 986 l 901 485 q 891 280 901 372 q 847 122 881 188 q 750 21 814 57 q 578 -15 686 -15 q 364 46 453 -15 l 392 124 z "},"ĳ":{"ha":615,"x_min":104,"x_max":511,"o":"m 104 0 l 104 724 l 199 724 l 199 0 l 104 0 m 104 875 l 104 1014 l 199 1014 l 199 875 l 104 875 m 299 -251 q 213 -239 253 -251 q 140 -197 172 -226 l 186 -133 q 235 -160 208 -153 q 288 -167 261 -167 q 335 -157 313 -167 q 376 -130 358 -147 q 406 -89 394 -112 q 417 -37 417 -65 l 417 724 l 511 724 l 511 -32 q 493 -121 511 -81 q 445 -190 475 -161 q 377 -235 415 -219 q 299 -251 339 -251 m 417 875 l 417 1014 l 511 1014 l 511 875 l 417 875 z "},"Ĵ":{"ha":668,"x_min":19,"x_max":682,"o":"m 339 1156 l 475 1274 l 544 1274 l 682 1156 l 628 1126 l 510 1214 l 392 1126 l 339 1156 m 47 124 q 126 88 78 103 q 233 72 174 72 q 353 99 308 72 q 422 179 399 126 q 453 309 446 232 q 460 485 460 386 l 460 986 l 557 986 l 557 485 q 547 280 557 372 q 503 122 536 188 q 406 21 469 57 q 233 -15 342 -15 q 19 46 108 -15 l 47 124 z "},"ĵ":{"ha":303,"x_min":-174,"x_max":324,"o":"m -15 -251 q -101 -239 -61 -251 q -174 -197 -142 -226 l -126 -133 q -78 -160 -106 -153 q -25 -167 -51 -167 q 23 -157 0 -167 q 64 -130 46 -147 q 93 -89 82 -112 q 104 -37 104 -65 l 104 724 l 199 724 l 199 -32 q 181 -121 199 -81 q 133 -190 163 -161 q 65 -235 103 -219 q -15 -251 26 -251 m -19 896 l 117 1014 l 186 1014 l 324 896 l 269 867 l 151 954 l 33 867 l -19 896 z "},"ȷ":{"ha":303,"x_min":-174,"x_max":199,"o":"m -15 -251 q -101 -239 -61 -251 q -174 -197 -142 -226 l -126 -133 q -78 -160 -106 -153 q -25 -167 -51 -167 q 23 -157 0 -167 q 64 -130 46 -147 q 93 -89 82 -112 q 104 -37 104 -65 l 104 724 l 199 724 l 199 -32 q 181 -121 199 -81 q 133 -190 163 -161 q 65 -235 103 -219 q -15 -251 26 -251 z "},"Ķ":{"ha":893,"x_min":124,"x_max":892,"o":"m 415 -276 l 439 -174 l 411 -174 l 411 -68 l 499 -68 l 499 -174 l 464 -276 l 415 -276 m 124 0 l 124 985 l 221 985 l 221 413 l 764 986 l 871 986 l 468 553 l 892 0 l 785 0 l 407 496 l 221 303 l 221 0 l 124 0 z "},"ķ":{"ha":736,"x_min":104,"x_max":724,"o":"m 339 -276 l 363 -174 l 335 -174 l 335 -68 l 422 -68 l 422 -174 l 388 -276 l 339 -276 m 621 0 l 354 371 l 199 226 l 199 0 l 104 0 l 104 1014 l 199 1014 l 199 325 l 606 722 l 713 722 l 417 426 l 724 0 l 621 0 z "},"ĸ":{"ha":736,"x_min":104,"x_max":724,"o":"m 621 0 l 354 371 l 199 226 l 199 0 l 104 0 l 104 724 l 199 724 l 199 325 l 606 722 l 713 722 l 417 426 l 724 0 l 621 0 z "},"Ĺ":{"ha":810,"x_min":124,"x_max":790,"o":"m 485 1121 l 422 1144 l 504 1274 l 604 1274 l 485 1121 m 124 0 l 124 986 l 221 986 l 221 86 l 790 86 l 790 0 l 124 0 z "},"ĺ":{"ha":378,"x_min":92,"x_max":379,"o":"m 154 1074 l 92 1097 l 174 1226 l 274 1226 l 154 1074 m 108 1014 l 203 1014 l 203 164 q 225 101 203 124 q 288 78 247 78 q 324 82 303 78 q 363 93 344 86 l 379 17 q 315 -1 353 6 q 249 -8 276 -8 q 146 28 183 -8 q 108 132 108 65 l 108 1014 z "},"Ļ":{"ha":810,"x_min":124,"x_max":790,"o":"m 419 -276 l 443 -174 l 415 -174 l 415 -68 l 503 -68 l 503 -174 l 468 -276 l 419 -276 m 124 0 l 124 986 l 221 986 l 221 86 l 790 86 l 790 0 l 124 0 z "},"ļ":{"ha":378,"x_min":108,"x_max":379,"o":"m 199 -276 l 222 -174 l 194 -174 l 194 -68 l 282 -68 l 282 -174 l 247 -276 l 199 -276 m 108 1014 l 203 1014 l 203 164 q 225 101 203 124 q 288 78 247 78 q 324 82 303 78 q 363 93 344 86 l 379 17 q 315 -1 353 6 q 249 -8 276 -8 q 146 28 183 -8 q 108 132 108 65 l 108 1014 z "},"Ľ":{"ha":810,"x_min":124,"x_max":790,"o":"m 528 861 l 465 885 l 547 1014 l 647 1014 l 528 861 m 124 0 l 124 986 l 221 986 l 221 86 l 790 86 l 790 0 l 124 0 z "},"ľ":{"ha":378,"x_min":108,"x_max":449,"o":"m 329 861 l 267 885 l 349 1014 l 449 1014 l 329 861 m 108 1014 l 203 1014 l 203 164 q 225 101 203 124 q 288 78 247 78 q 324 82 303 78 q 363 93 344 86 l 379 17 q 315 -1 353 6 q 249 -8 276 -8 q 146 28 183 -8 q 108 132 108 65 l 108 1014 z "},"Ŀ":{"ha":810,"x_min":124,"x_max":790,"o":"m 124 0 l 124 986 l 221 986 l 221 86 l 790 86 l 790 0 l 124 0 m 508 483 l 508 639 l 590 639 l 590 483 l 508 483 z "},"ŀ":{"ha":436,"x_min":108,"x_max":414,"o":"m 108 1014 l 203 1014 l 203 164 q 225 101 203 124 q 288 78 247 78 q 324 82 303 78 q 363 93 344 86 l 379 17 q 315 -1 353 6 q 249 -8 276 -8 q 146 28 183 -8 q 108 132 108 65 l 108 1014 m 332 365 l 332 521 l 414 521 l 414 365 l 332 365 z "},"Ł":{"ha":819,"x_min":22,"x_max":800,"o":"m 133 0 l 133 385 l 53 318 l 22 374 l 133 465 l 133 986 l 231 986 l 231 546 l 446 725 l 476 671 l 231 465 l 231 86 l 800 86 l 800 0 l 133 0 z "},"ł":{"ha":406,"x_min":14,"x_max":406,"o":"m 135 471 l 46 401 l 14 456 l 135 551 l 135 1014 l 229 1014 l 229 625 l 353 724 l 386 669 l 229 546 l 229 164 q 251 101 229 124 q 314 78 274 78 q 350 82 329 78 q 389 93 371 86 l 406 17 q 341 -1 379 6 q 275 -8 303 -8 q 172 28 210 -8 q 135 132 135 65 l 135 471 z "},"Ń":{"ha":1072,"x_min":124,"x_max":949,"o":"m 549 1121 l 486 1144 l 568 1274 l 668 1274 l 549 1121 m 221 806 l 221 0 l 124 0 l 124 986 l 199 986 l 851 165 l 851 985 l 949 985 l 949 0 l 864 0 l 221 806 z "},"ń":{"ha":810,"x_min":104,"x_max":713,"o":"m 419 861 l 357 885 l 439 1014 l 539 1014 l 419 861 m 713 0 l 618 0 l 618 404 q 580 592 618 533 q 463 650 542 650 q 379 635 421 650 q 302 592 338 619 q 239 526 267 564 q 199 443 211 488 l 199 0 l 104 0 l 104 724 l 190 724 l 190 560 q 317 688 235 639 q 497 736 400 736 q 599 714 557 736 q 665 651 640 692 q 701 553 690 611 q 713 424 713 494 l 713 0 z "},"Ņ":{"ha":1072,"x_min":124,"x_max":949,"o":"m 497 -276 l 521 -174 l 493 -174 l 493 -68 l 581 -68 l 581 -174 l 546 -276 l 497 -276 m 221 806 l 221 0 l 124 0 l 124 986 l 199 986 l 851 165 l 851 985 l 949 985 l 949 0 l 864 0 l 221 806 z "},"ņ":{"ha":810,"x_min":104,"x_max":713,"o":"m 358 -276 l 382 -174 l 354 -174 l 354 -68 l 442 -68 l 442 -174 l 407 -276 l 358 -276 m 713 0 l 618 0 l 618 404 q 580 592 618 533 q 463 650 542 650 q 379 635 421 650 q 302 592 338 619 q 239 526 267 564 q 199 443 211 488 l 199 0 l 104 0 l 104 724 l 190 724 l 190 560 q 317 688 235 639 q 497 736 400 736 q 599 714 557 736 q 665 651 640 692 q 701 553 690 611 q 713 424 713 494 l 713 0 z "},"Ň":{"ha":1072,"x_min":124,"x_max":949,"o":"m 422 1274 l 540 1186 l 658 1274 l 713 1246 l 575 1126 l 506 1126 l 369 1246 l 422 1274 m 221 806 l 221 0 l 124 0 l 124 986 l 199 986 l 851 165 l 851 985 l 949 985 l 949 0 l 864 0 l 221 806 z "},"ň":{"ha":810,"x_min":104,"x_max":713,"o":"m 293 1014 l 411 926 l 529 1014 l 583 986 l 446 867 l 376 867 l 240 986 l 293 1014 m 713 0 l 618 0 l 618 404 q 580 592 618 533 q 463 650 542 650 q 379 635 421 650 q 302 592 338 619 q 239 526 267 564 q 199 443 211 488 l 199 0 l 104 0 l 104 724 l 190 724 l 190 560 q 317 688 235 639 q 497 736 400 736 q 599 714 557 736 q 665 651 640 692 q 701 553 690 611 q 713 424 713 494 l 713 0 z "},"ŉ":{"ha":810,"x_min":-4,"x_max":713,"o":"m 58 861 l -4 885 l 49 967 l 49 1014 l 179 1014 l 58 861 m 713 0 l 618 0 l 618 404 q 580 592 618 533 q 463 650 542 650 q 379 635 421 650 q 302 592 338 619 q 239 526 267 564 q 199 443 211 488 l 199 0 l 104 0 l 104 724 l 190 724 l 190 560 q 317 688 235 639 q 497 736 400 736 q 599 714 557 736 q 665 651 640 692 q 701 553 690 611 q 713 424 713 494 l 713 0 z "},"ʼ":{"ha":756,"x_min":300,"x_max":483,"o":"m 363 861 l 300 885 l 353 967 l 353 1014 l 483 1014 l 363 861 z "},"Ŋ":{"ha":1064,"x_min":124,"x_max":940,"o":"m 221 804 l 221 0 l 124 0 l 124 986 l 197 986 l 844 169 l 844 985 l 940 985 l 940 -35 q 922 -123 940 -83 q 874 -191 904 -162 q 805 -235 843 -219 q 726 -251 767 -251 q 641 -239 682 -251 q 568 -197 600 -226 l 615 -133 q 663 -160 636 -153 q 715 -167 689 -167 q 763 -157 740 -167 q 805 -130 786 -147 q 835 -89 824 -112 q 846 -37 846 -65 l 846 13 l 221 804 z "},"ŋ":{"ha":810,"x_min":104,"x_max":713,"o":"m 500 -251 q 414 -239 454 -251 q 342 -197 374 -226 l 388 -133 q 436 -160 410 -153 q 489 -167 463 -167 q 537 -157 514 -167 q 578 -130 560 -147 q 607 -89 596 -112 q 618 -37 618 -65 l 618 404 q 580 592 618 533 q 463 650 542 650 q 379 635 421 650 q 302 592 338 619 q 239 526 267 564 q 199 443 211 488 l 199 0 l 104 0 l 104 724 l 190 724 l 190 560 q 317 688 235 639 q 497 736 400 736 q 599 714 557 736 q 665 651 640 692 q 701 553 690 611 q 713 424 713 494 l 713 -32 q 694 -121 713 -81 q 647 -190 676 -161 q 578 -235 617 -219 q 500 -251 540 -251 z "},"Ō":{"ha":1043,"x_min":58,"x_max":983,"o":"m 322 1181 l 322 1246 l 724 1246 l 724 1181 l 322 1181 m 521 -7 q 333 35 418 -7 q 186 148 247 78 q 92 308 125 218 q 58 493 58 399 q 94 682 58 592 q 192 842 129 772 q 339 952 254 911 q 522 993 424 993 q 710 949 625 993 q 856 835 796 906 q 950 674 917 764 q 983 492 983 585 q 948 303 983 393 q 851 144 913 213 q 704 34 789 75 q 521 -7 619 -7 m 156 493 q 182 338 156 413 q 257 206 208 264 q 372 115 306 149 q 521 81 439 81 q 672 117 604 81 q 788 211 740 153 q 860 343 835 269 q 886 493 886 417 q 859 648 886 574 q 783 779 832 722 q 668 870 735 836 q 521 904 601 904 q 369 869 438 904 q 254 775 301 833 q 181 643 207 717 q 156 493 156 569 z "},"ō":{"ha":826,"x_min":54,"x_max":772,"o":"m 213 921 l 213 986 l 614 986 l 614 921 l 213 921 m 413 -14 q 268 16 333 -14 q 155 97 203 46 q 81 217 107 149 q 54 360 54 285 q 81 504 54 436 q 156 624 108 572 q 269 706 204 675 q 413 736 335 736 q 556 706 490 736 q 670 624 622 675 q 745 504 718 572 q 772 360 772 436 q 746 217 772 285 q 672 97 719 149 q 558 16 624 46 q 413 -14 492 -14 m 150 358 q 171 245 150 297 q 227 153 192 193 q 310 92 263 114 q 413 69 358 69 q 515 92 467 69 q 599 155 563 115 q 656 247 635 194 q 676 361 676 300 q 656 474 676 421 q 599 567 635 528 q 515 630 563 607 q 413 653 467 653 q 311 630 358 653 q 228 567 264 607 q 171 473 192 526 q 150 358 150 419 z "},"Ŏ":{"ha":1043,"x_min":58,"x_max":983,"o":"m 521 -7 q 333 35 418 -7 q 186 148 247 78 q 92 308 125 218 q 58 493 58 399 q 94 682 58 592 q 192 842 129 772 q 339 952 254 911 q 522 993 424 993 q 710 949 625 993 q 856 835 796 906 q 950 674 917 764 q 983 492 983 585 q 948 303 983 393 q 851 144 913 213 q 704 34 789 75 q 521 -7 619 -7 m 156 493 q 182 338 156 413 q 257 206 208 264 q 372 115 306 149 q 521 81 439 81 q 672 117 604 81 q 788 211 740 153 q 860 343 835 269 q 886 493 886 417 q 859 648 886 574 q 783 779 832 722 q 668 870 735 836 q 521 904 601 904 q 369 869 438 904 q 254 775 301 833 q 181 643 207 717 q 156 493 156 569 m 522 1182 q 574 1208 551 1182 q 601 1274 597 1235 l 658 1274 q 648 1219 658 1244 q 619 1174 638 1193 q 575 1144 600 1156 q 522 1133 550 1133 q 425 1174 464 1133 q 386 1274 386 1214 l 444 1274 q 468 1210 444 1238 q 522 1182 492 1182 z "},"ŏ":{"ha":826,"x_min":54,"x_max":772,"o":"m 413 -14 q 268 16 333 -14 q 155 97 203 46 q 81 217 107 149 q 54 360 54 285 q 81 504 54 436 q 156 624 108 572 q 269 706 204 675 q 413 736 335 736 q 556 706 490 736 q 670 624 622 675 q 745 504 718 572 q 772 360 772 436 q 746 217 772 285 q 672 97 719 149 q 558 16 624 46 q 413 -14 492 -14 m 150 358 q 171 245 150 297 q 227 153 192 193 q 310 92 263 114 q 413 69 358 69 q 515 92 467 69 q 599 155 563 115 q 656 247 635 194 q 676 361 676 300 q 656 474 676 421 q 599 567 635 528 q 515 630 563 607 q 413 653 467 653 q 311 630 358 653 q 228 567 264 607 q 171 473 192 526 q 150 358 150 419 m 413 922 q 465 949 442 922 q 492 1014 488 975 l 549 1014 q 538 959 549 985 q 509 915 528 933 q 465 885 490 896 q 413 874 440 874 q 315 914 354 874 q 276 1014 276 954 l 335 1014 q 358 950 335 978 q 413 922 382 922 z "},"Ő":{"ha":1043,"x_min":58,"x_max":983,"o":"m 435 1121 l 383 1144 l 463 1274 l 551 1274 l 435 1121 m 610 1121 l 557 1144 l 636 1274 l 725 1274 l 610 1121 m 521 -7 q 333 35 418 -7 q 186 148 247 78 q 92 308 125 218 q 58 493 58 399 q 94 682 58 592 q 192 842 129 772 q 339 952 254 911 q 522 993 424 993 q 710 949 625 993 q 856 835 796 906 q 950 674 917 764 q 983 492 983 585 q 948 303 983 393 q 851 144 913 213 q 704 34 789 75 q 521 -7 619 -7 m 156 493 q 182 338 156 413 q 257 206 208 264 q 372 115 306 149 q 521 81 439 81 q 672 117 604 81 q 788 211 740 153 q 860 343 835 269 q 886 493 886 417 q 859 648 886 574 q 783 779 832 722 q 668 870 735 836 q 521 904 601 904 q 369 869 438 904 q 254 775 301 833 q 181 643 207 717 q 156 493 156 569 z "},"˝":{"ha":453,"x_min":60,"x_max":401,"o":"m 111 861 l 60 885 l 139 1014 l 228 1014 l 111 861 m 286 861 l 233 885 l 313 1014 l 401 1014 l 286 861 z "},"ő":{"ha":826,"x_min":54,"x_max":772,"o":"m 325 861 l 274 885 l 353 1014 l 442 1014 l 325 861 m 500 861 l 447 885 l 526 1014 l 615 1014 l 500 861 m 413 -14 q 268 16 333 -14 q 155 97 203 46 q 81 217 107 149 q 54 360 54 285 q 81 504 54 436 q 156 624 108 572 q 269 706 204 675 q 413 736 335 736 q 556 706 490 736 q 670 624 622 675 q 745 504 718 572 q 772 360 772 436 q 746 217 772 285 q 672 97 719 149 q 558 16 624 46 q 413 -14 492 -14 m 150 358 q 171 245 150 297 q 227 153 192 193 q 310 92 263 114 q 413 69 358 69 q 515 92 467 69 q 599 155 563 115 q 656 247 635 194 q 676 361 676 300 q 656 474 676 421 q 599 567 635 528 q 515 630 563 607 q 413 653 467 653 q 311 630 358 653 q 228 567 264 607 q 171 473 192 526 q 150 358 150 419 z "},"Œ":{"ha":1601,"x_min":58,"x_max":1544,"o":"m 1544 86 l 1544 0 l 889 0 l 889 250 q 828 149 865 196 q 744 67 792 101 q 641 13 697 32 q 522 -7 585 -7 q 334 35 419 -7 q 188 148 249 78 q 92 308 126 218 q 58 493 58 399 q 94 682 58 592 q 192 842 129 772 q 339 952 254 911 q 522 993 424 993 q 643 973 586 993 q 747 918 700 953 q 830 836 794 883 q 889 736 865 789 l 889 986 l 1532 986 l 1532 900 l 986 900 l 986 546 l 1457 546 l 1457 460 l 986 460 l 986 86 l 1544 86 m 521 81 q 672 116 604 81 q 788 210 740 151 q 860 342 835 268 q 886 494 886 417 q 859 648 886 574 q 783 780 832 722 q 668 872 735 838 q 521 906 601 906 q 369 870 438 906 q 254 776 301 835 q 181 644 207 718 q 156 493 156 569 q 182 338 156 413 q 257 206 208 264 q 372 115 306 149 q 521 81 439 81 z "},"œ":{"ha":1436,"x_min":54,"x_max":1394,"o":"m 411 -14 q 271 15 336 -14 q 158 94 206 44 q 82 213 110 144 q 54 358 54 281 q 82 507 54 438 q 158 627 110 576 q 272 707 207 678 q 414 736 338 736 q 602 674 519 736 q 722 507 685 613 q 843 676 761 615 q 1036 736 925 736 q 1181 707 1115 736 q 1294 624 1247 678 q 1368 494 1342 569 q 1394 328 1394 419 l 775 328 q 803 222 779 271 q 864 136 826 172 q 950 79 901 100 q 1053 58 999 58 q 1126 68 1090 58 q 1191 94 1161 78 q 1243 135 1221 111 q 1276 189 1265 160 l 1357 167 q 1308 93 1339 126 q 1235 36 1276 60 q 1147 -1 1194 13 q 1049 -14 1099 -14 q 948 2 996 -14 q 858 48 900 18 q 781 119 815 78 q 725 213 747 161 q 597 47 679 107 q 411 -14 515 -14 m 413 69 q 516 92 468 69 q 599 153 564 114 q 656 246 635 193 q 676 360 676 299 q 656 474 676 421 q 599 567 635 528 q 516 630 564 607 q 414 653 468 653 q 311 630 360 653 q 227 567 263 607 q 171 472 192 526 q 150 357 150 418 q 171 243 150 296 q 227 152 192 190 q 310 92 263 114 q 413 69 358 69 m 1303 392 q 1276 501 1299 451 q 1218 586 1254 550 q 1135 642 1182 622 q 1035 663 1088 663 q 935 642 981 663 q 854 586 889 622 q 798 500 819 550 q 774 392 776 450 l 1303 392 z "},"Ŕ":{"ha":907,"x_min":124,"x_max":854,"o":"m 450 1124 l 388 1147 l 469 1276 l 569 1276 l 450 1124 m 124 0 l 124 986 l 540 986 q 658 959 604 986 q 750 888 711 932 q 810 789 789 844 q 832 676 832 733 q 816 573 832 622 q 772 484 800 524 q 703 417 743 444 q 613 381 663 390 l 854 0 l 744 0 l 513 364 l 221 364 l 221 0 l 124 0 m 221 450 l 543 450 q 622 469 586 450 q 682 519 657 488 q 721 592 707 551 q 735 676 735 632 q 719 762 735 721 q 676 833 703 803 q 612 882 649 864 q 535 900 575 900 l 221 900 l 221 450 z "},"ŕ":{"ha":488,"x_min":104,"x_max":465,"o":"m 288 861 l 225 885 l 307 1014 l 407 1014 l 288 861 m 465 640 q 299 588 369 638 q 199 450 228 538 l 199 0 l 104 0 l 104 724 l 193 724 l 193 550 q 301 681 233 633 q 447 728 369 728 q 465 726 458 728 l 465 640 z "},"Ŗ":{"ha":907,"x_min":124,"x_max":854,"o":"m 411 -276 l 435 -174 l 407 -174 l 407 -68 l 494 -68 l 494 -174 l 460 -276 l 411 -276 m 124 0 l 124 986 l 540 986 q 658 959 604 986 q 750 888 711 932 q 810 789 789 844 q 832 676 832 733 q 816 573 832 622 q 772 484 800 524 q 703 417 743 444 q 613 381 663 390 l 854 0 l 744 0 l 513 364 l 221 364 l 221 0 l 124 0 m 221 450 l 543 450 q 622 469 586 450 q 682 519 657 488 q 721 592 707 551 q 735 676 735 632 q 719 762 735 721 q 676 833 703 803 q 612 882 649 864 q 535 900 575 900 l 221 900 l 221 450 z "},"ŗ":{"ha":488,"x_min":101,"x_max":465,"o":"m 106 -276 l 129 -174 l 101 -174 l 101 -68 l 189 -68 l 189 -174 l 154 -276 l 106 -276 m 465 640 q 299 588 369 638 q 199 450 228 538 l 199 0 l 104 0 l 104 724 l 193 724 l 193 550 q 301 681 233 633 q 447 728 369 728 q 465 726 458 728 l 465 640 z "},"Ř":{"ha":907,"x_min":124,"x_max":854,"o":"m 322 1276 l 440 1189 l 558 1276 l 613 1249 l 475 1129 l 406 1129 l 269 1249 l 322 1276 m 124 0 l 124 986 l 540 986 q 658 959 604 986 q 750 888 711 932 q 810 789 789 844 q 832 676 832 733 q 816 573 832 622 q 772 484 800 524 q 703 417 743 444 q 613 381 663 390 l 854 0 l 744 0 l 513 364 l 221 364 l 221 0 l 124 0 m 221 450 l 543 450 q 622 469 586 450 q 682 519 657 488 q 721 592 707 551 q 735 676 735 632 q 719 762 735 721 q 676 833 703 803 q 612 882 649 864 q 535 900 575 900 l 221 900 l 221 450 z "},"ř":{"ha":488,"x_min":104,"x_max":465,"o":"m 161 1014 l 279 926 l 397 1014 l 451 986 l 314 867 l 244 867 l 108 986 l 161 1014 m 465 640 q 299 588 369 638 q 199 450 228 538 l 199 0 l 104 0 l 104 724 l 193 724 l 193 550 q 301 681 233 633 q 447 728 369 728 q 465 726 458 728 l 465 640 z "},"Ś":{"ha":843,"x_min":44,"x_max":796,"o":"m 444 1143 l 382 1167 l 464 1296 l 564 1296 l 444 1143 m 700 801 q 589 878 658 849 q 431 907 519 907 q 240 858 300 907 q 181 724 181 808 q 197 651 181 679 q 246 601 213 622 q 331 565 279 581 q 454 535 383 550 q 597 497 533 518 q 704 445 660 476 q 772 369 749 414 q 796 258 796 325 q 769 140 796 190 q 696 57 743 90 q 583 8 649 24 q 440 -8 518 -8 q 44 135 211 -8 l 93 214 q 156 161 119 186 q 238 117 193 136 q 335 88 283 99 q 443 78 386 78 q 627 120 561 78 q 693 249 693 163 q 674 326 693 294 q 618 380 656 357 q 525 419 581 403 q 396 453 469 436 q 260 490 318 471 q 161 539 201 510 q 101 609 121 568 q 81 710 81 650 q 106 831 81 778 q 179 920 132 885 q 290 974 226 956 q 432 993 354 993 q 608 963 531 993 q 747 879 685 933 l 700 801 z "},"ś":{"ha":676,"x_min":40,"x_max":626,"o":"m 350 861 l 288 885 l 369 1014 l 469 1014 l 350 861 m 344 -14 q 179 14 260 -14 q 40 94 99 42 l 83 158 q 208 83 144 108 q 343 58 271 58 q 483 94 431 58 q 535 194 535 129 q 521 245 535 225 q 480 281 507 265 q 412 308 453 296 q 317 332 371 319 q 208 363 254 347 q 133 397 163 378 q 88 445 103 417 q 74 517 74 474 q 95 613 74 571 q 153 681 117 654 q 240 722 190 708 q 344 736 289 736 q 496 709 428 736 q 606 638 564 682 l 560 582 q 462 644 519 624 q 342 665 404 665 q 272 658 304 665 q 216 633 240 650 q 178 591 192 617 q 164 531 164 565 q 174 483 164 501 q 206 452 183 465 q 262 428 228 439 q 344 407 296 418 q 467 374 414 390 q 555 335 519 357 q 608 281 590 313 q 626 203 626 249 q 550 44 626 103 q 344 -14 474 -14 z "},"Ŝ":{"ha":843,"x_min":44,"x_max":796,"o":"m 265 1178 l 401 1296 l 471 1296 l 608 1178 l 554 1149 l 436 1236 l 318 1149 l 265 1178 m 700 801 q 589 878 658 849 q 431 907 519 907 q 240 858 300 907 q 181 724 181 808 q 197 651 181 679 q 246 601 213 622 q 331 565 279 581 q 454 535 383 550 q 597 497 533 518 q 704 445 660 476 q 772 369 749 414 q 796 258 796 325 q 769 140 796 190 q 696 57 743 90 q 583 8 649 24 q 440 -8 518 -8 q 44 135 211 -8 l 93 214 q 156 161 119 186 q 238 117 193 136 q 335 88 283 99 q 443 78 386 78 q 627 120 561 78 q 693 249 693 163 q 674 326 693 294 q 618 380 656 357 q 525 419 581 403 q 396 453 469 436 q 260 490 318 471 q 161 539 201 510 q 101 609 121 568 q 81 710 81 650 q 106 831 81 778 q 179 920 132 885 q 290 974 226 956 q 432 993 354 993 q 608 963 531 993 q 747 879 685 933 l 700 801 z "},"ŝ":{"ha":676,"x_min":40,"x_max":626,"o":"m 171 896 l 307 1014 l 376 1014 l 514 896 l 460 867 l 342 954 l 224 867 l 171 896 m 344 -14 q 179 14 260 -14 q 40 94 99 42 l 83 158 q 208 83 144 108 q 343 58 271 58 q 483 94 431 58 q 535 194 535 129 q 521 245 535 225 q 480 281 507 265 q 412 308 453 296 q 317 332 371 319 q 208 363 254 347 q 133 397 163 378 q 88 445 103 417 q 74 517 74 474 q 95 613 74 571 q 153 681 117 654 q 240 722 190 708 q 344 736 289 736 q 496 709 428 736 q 606 638 564 682 l 560 582 q 462 644 519 624 q 342 665 404 665 q 272 658 304 665 q 216 633 240 650 q 178 591 192 617 q 164 531 164 565 q 174 483 164 501 q 206 452 183 465 q 262 428 228 439 q 344 407 296 418 q 467 374 414 390 q 555 335 519 357 q 608 281 590 313 q 626 203 626 249 q 550 44 626 103 q 344 -14 474 -14 z "},"Ş":{"ha":844,"x_min":44,"x_max":796,"o":"m 339 -175 q 392 -192 358 -185 q 461 -200 425 -200 q 540 -151 540 -200 q 522 -112 540 -124 q 471 -101 503 -101 q 410 -108 442 -101 q 360 -121 378 -114 l 421 -8 q 44 135 203 -1 l 93 214 q 156 161 119 186 q 238 117 193 136 q 335 88 283 99 q 443 78 386 78 q 627 120 561 78 q 693 249 693 163 q 674 326 693 294 q 618 380 656 357 q 525 419 581 403 q 396 453 469 436 q 260 490 318 471 q 161 539 201 510 q 101 609 121 568 q 81 710 81 650 q 106 831 81 778 q 179 920 132 885 q 290 974 226 956 q 432 993 354 993 q 608 963 531 993 q 747 879 685 933 l 700 801 q 589 878 658 849 q 431 907 519 907 q 240 858 300 907 q 181 724 181 808 q 197 651 181 679 q 246 601 213 622 q 331 565 279 581 q 454 535 383 550 q 597 497 533 518 q 704 445 660 476 q 772 369 749 414 q 796 258 796 325 q 772 145 796 193 q 706 65 749 97 q 605 14 664 32 q 475 -7 546 -4 l 436 -71 q 463 -64 449 -65 q 489 -62 478 -62 q 566 -84 538 -62 q 594 -147 594 -106 q 558 -219 594 -194 q 453 -244 522 -244 q 378 -237 413 -244 q 315 -218 343 -229 l 339 -175 z "},"ş":{"ha":678,"x_min":40,"x_max":626,"o":"m 238 -175 q 290 -192 257 -185 q 360 -200 324 -200 q 439 -151 439 -200 q 420 -112 439 -124 q 369 -101 401 -101 q 308 -108 340 -101 q 258 -121 276 -114 l 317 -12 q 165 19 238 -8 q 40 94 93 46 l 83 158 q 208 83 144 108 q 343 58 271 58 q 483 94 431 58 q 535 194 535 129 q 521 245 535 225 q 480 281 507 265 q 412 308 453 296 q 317 332 371 319 q 208 363 254 347 q 133 397 163 378 q 88 445 103 417 q 74 517 74 474 q 95 613 74 571 q 153 681 117 654 q 240 722 190 708 q 344 736 289 736 q 496 709 428 736 q 606 638 564 682 l 560 582 q 462 644 519 624 q 342 665 404 665 q 272 658 304 665 q 216 633 240 650 q 178 591 192 617 q 164 531 164 565 q 174 483 164 501 q 206 452 183 465 q 262 428 228 439 q 344 407 296 418 q 467 374 414 390 q 555 335 519 357 q 608 281 590 313 q 626 203 626 249 q 558 51 626 108 q 371 -12 489 -6 l 335 -71 q 362 -64 347 -65 q 388 -62 376 -62 q 465 -84 436 -62 q 493 -147 493 -106 q 457 -219 493 -194 q 351 -244 421 -244 q 276 -237 311 -244 q 214 -218 242 -229 l 238 -175 z "},"Š":{"ha":843,"x_min":44,"x_max":796,"o":"m 318 1296 l 436 1208 l 554 1296 l 608 1268 l 471 1149 l 401 1149 l 265 1268 l 318 1296 m 700 801 q 589 878 658 849 q 431 907 519 907 q 240 858 300 907 q 181 724 181 808 q 197 651 181 679 q 246 601 213 622 q 331 565 279 581 q 454 535 383 550 q 597 497 533 518 q 704 445 660 476 q 772 369 749 414 q 796 258 796 325 q 769 140 796 190 q 696 57 743 90 q 583 8 649 24 q 440 -8 518 -8 q 44 135 211 -8 l 93 214 q 156 161 119 186 q 238 117 193 136 q 335 88 283 99 q 443 78 386 78 q 627 120 561 78 q 693 249 693 163 q 674 326 693 294 q 618 380 656 357 q 525 419 581 403 q 396 453 469 436 q 260 490 318 471 q 161 539 201 510 q 101 609 121 568 q 81 710 81 650 q 106 831 81 778 q 179 920 132 885 q 290 974 226 956 q 432 993 354 993 q 608 963 531 993 q 747 879 685 933 l 700 801 z "},"š":{"ha":676,"x_min":40,"x_max":626,"o":"m 224 1014 l 342 926 l 460 1014 l 514 986 l 376 867 l 307 867 l 171 986 l 224 1014 m 344 -14 q 179 14 260 -14 q 40 94 99 42 l 83 158 q 208 83 144 108 q 343 58 271 58 q 483 94 431 58 q 535 194 535 129 q 521 245 535 225 q 480 281 507 265 q 412 308 453 296 q 317 332 371 319 q 208 363 254 347 q 133 397 163 378 q 88 445 103 417 q 74 517 74 474 q 95 613 74 571 q 153 681 117 654 q 240 722 190 708 q 344 736 289 736 q 496 709 428 736 q 606 638 564 682 l 560 582 q 462 644 519 624 q 342 665 404 665 q 272 658 304 665 q 216 633 240 650 q 178 591 192 617 q 164 531 164 565 q 174 483 164 501 q 206 452 183 465 q 262 428 228 439 q 344 407 296 418 q 467 374 414 390 q 555 335 519 357 q 608 281 590 313 q 626 203 626 249 q 550 44 626 103 q 344 -14 474 -14 z "},"Ţ":{"ha":846,"x_min":22,"x_max":822,"o":"m 315 -175 q 368 -192 335 -185 q 438 -200 401 -200 q 517 -151 517 -200 q 498 -112 517 -124 q 447 -101 479 -101 q 386 -108 418 -101 q 336 -121 354 -114 l 401 0 l 374 0 l 374 900 l 22 900 l 22 986 l 822 986 l 822 900 l 471 900 l 471 0 l 457 0 l 413 -71 q 440 -64 425 -65 q 465 -62 454 -62 q 542 -84 514 -62 q 571 -147 571 -106 q 535 -219 571 -194 q 429 -244 499 -244 q 354 -237 389 -244 q 292 -218 319 -229 l 315 -175 z "},"ţ":{"ha":465,"x_min":35,"x_max":451,"o":"m 179 -175 q 232 -192 199 -185 q 301 -200 265 -200 q 381 -151 381 -200 q 362 -112 381 -124 q 311 -101 343 -101 q 250 -108 282 -101 q 200 -121 218 -114 l 261 -7 q 172 34 208 0 q 135 131 135 68 l 135 649 l 35 649 l 35 724 l 135 724 l 135 968 l 229 968 l 229 724 l 396 724 l 396 649 l 229 649 l 229 157 q 258 98 232 117 q 317 79 283 79 q 388 92 357 79 q 426 111 418 106 l 451 35 q 401 13 436 28 q 317 -7 365 -1 l 276 -71 q 303 -64 289 -65 q 329 -62 318 -62 q 406 -84 378 -62 q 435 -147 435 -106 q 399 -219 435 -194 q 293 -244 363 -244 q 218 -237 253 -244 q 156 -218 183 -229 l 179 -175 z "},"Ť":{"ha":847,"x_min":24,"x_max":824,"o":"m 308 1274 l 426 1186 l 544 1274 l 599 1246 l 461 1126 l 392 1126 l 256 1246 l 308 1274 m 824 900 l 472 900 l 472 0 l 375 0 l 375 900 l 24 900 l 24 986 l 824 986 l 824 900 z "},"ť":{"ha":465,"x_min":35,"x_max":503,"o":"m 383 861 l 321 885 l 403 1014 l 503 1014 l 383 861 m 451 35 q 427 24 443 31 q 390 10 411 17 q 343 -3 369 3 q 288 -8 317 -8 q 229 0 257 -8 q 181 26 201 8 q 147 69 160 43 q 135 131 135 96 l 135 649 l 35 649 l 35 724 l 135 724 l 135 968 l 229 968 l 229 724 l 396 724 l 396 649 l 229 649 l 229 157 q 258 98 232 117 q 317 79 283 79 q 388 92 357 79 q 426 111 418 106 l 451 35 z "},"Ŧ":{"ha":890,"x_min":46,"x_max":846,"o":"m 846 900 l 494 900 l 494 563 l 800 563 l 800 508 l 494 508 l 494 0 l 397 0 l 397 508 l 92 508 l 92 563 l 397 563 l 397 900 l 46 900 l 46 986 l 846 986 l 846 900 z "},"ŧ":{"ha":468,"x_min":36,"x_max":453,"o":"m 453 35 q 428 24 444 31 q 392 10 413 17 q 344 -3 371 3 q 289 -8 318 -8 q 231 0 258 -8 q 182 26 203 8 q 149 69 161 43 q 136 131 136 96 l 136 426 l 36 426 l 36 490 l 136 490 l 136 649 l 36 649 l 36 724 l 136 724 l 136 968 l 231 968 l 231 724 l 397 724 l 397 649 l 231 649 l 231 490 l 397 490 l 397 426 l 231 426 l 231 157 q 259 98 233 117 q 318 79 285 79 q 389 92 358 79 q 428 111 419 106 l 453 35 z "},"Ũ":{"ha":1049,"x_min":110,"x_max":940,"o":"m 524 81 q 678 116 617 81 q 777 209 740 151 q 828 340 814 267 q 843 489 843 414 l 843 986 l 940 986 l 940 489 q 918 299 940 389 q 847 142 896 210 q 718 33 797 74 q 525 -7 639 -7 q 328 35 408 -7 q 200 147 249 78 q 131 306 151 217 q 110 489 110 394 l 110 986 l 206 986 l 206 489 q 221 338 206 411 q 273 207 236 264 q 371 115 310 150 q 524 81 432 81 m 611 1146 q 556 1154 579 1146 q 513 1173 533 1163 q 474 1192 493 1183 q 433 1201 456 1201 q 397 1192 410 1201 q 376 1170 383 1182 q 366 1148 368 1158 q 364 1135 364 1138 l 306 1135 q 310 1163 306 1142 q 329 1207 315 1185 q 368 1247 343 1229 q 432 1264 393 1264 q 483 1255 461 1264 q 524 1235 504 1246 q 563 1215 543 1224 q 610 1206 583 1206 q 652 1215 636 1206 q 676 1238 668 1225 q 687 1260 685 1250 q 689 1274 689 1271 l 747 1274 q 742 1246 747 1267 q 722 1203 736 1225 q 680 1163 707 1181 q 611 1146 653 1146 z "},"ũ":{"ha":825,"x_min":97,"x_max":749,"o":"m 331 -14 q 155 65 213 -14 q 97 299 97 143 l 97 724 l 192 724 l 192 315 q 360 69 192 69 q 442 83 401 69 q 516 124 482 97 q 577 186 550 150 q 621 268 604 222 l 621 724 l 715 724 l 715 122 q 749 83 715 83 l 749 0 q 722 -3 732 -3 q 707 -3 711 -3 q 653 21 674 -1 q 632 81 632 43 l 632 164 q 503 33 585 79 q 331 -14 422 -14 m 490 886 q 435 894 458 886 q 392 913 413 903 q 353 933 372 924 q 313 942 335 942 q 276 932 289 942 q 255 910 263 922 q 245 888 247 899 q 243 875 243 878 l 185 875 q 190 903 185 882 q 208 947 194 925 q 247 987 222 969 q 311 1004 272 1004 q 362 995 340 1004 q 403 975 383 986 q 442 955 422 964 q 489 946 463 946 q 531 956 515 946 q 556 978 547 965 q 566 1001 564 990 q 568 1014 568 1011 l 626 1014 q 621 986 626 1007 q 601 943 615 965 q 559 903 586 921 q 490 886 532 886 z "},"Ū":{"ha":1049,"x_min":110,"x_max":940,"o":"m 524 81 q 678 116 617 81 q 777 209 740 151 q 828 340 814 267 q 843 489 843 414 l 843 986 l 940 986 l 940 489 q 918 299 940 389 q 847 142 896 210 q 718 33 797 74 q 525 -7 639 -7 q 328 35 408 -7 q 200 147 249 78 q 131 306 151 217 q 110 489 110 394 l 110 986 l 206 986 l 206 489 q 221 338 206 411 q 273 207 236 264 q 371 115 310 150 q 524 81 432 81 m 325 1181 l 325 1246 l 726 1246 l 726 1181 l 325 1181 z "},"ū":{"ha":825,"x_min":97,"x_max":749,"o":"m 331 -14 q 155 65 213 -14 q 97 299 97 143 l 97 724 l 192 724 l 192 315 q 360 69 192 69 q 442 83 401 69 q 516 124 482 97 q 577 186 550 150 q 621 268 604 222 l 621 724 l 715 724 l 715 122 q 749 83 715 83 l 749 0 q 722 -3 732 -3 q 707 -3 711 -3 q 653 21 674 -1 q 632 81 632 43 l 632 164 q 503 33 585 79 q 331 -14 422 -14 m 204 921 l 204 986 l 606 986 l 606 921 l 204 921 z "},"Ŭ":{"ha":1049,"x_min":110,"x_max":940,"o":"m 524 81 q 678 116 617 81 q 777 209 740 151 q 828 340 814 267 q 843 489 843 414 l 843 986 l 940 986 l 940 489 q 918 299 940 389 q 847 142 896 210 q 718 33 797 74 q 525 -7 639 -7 q 328 35 408 -7 q 200 147 249 78 q 131 306 151 217 q 110 489 110 394 l 110 986 l 206 986 l 206 489 q 221 338 206 411 q 273 207 236 264 q 371 115 310 150 q 524 81 432 81 m 525 1182 q 577 1208 554 1182 q 604 1274 600 1235 l 661 1274 q 651 1219 661 1244 q 622 1174 640 1193 q 578 1144 603 1156 q 525 1133 553 1133 q 428 1174 467 1133 q 389 1274 389 1214 l 447 1274 q 471 1210 447 1238 q 525 1182 494 1182 z "},"ŭ":{"ha":825,"x_min":97,"x_max":749,"o":"m 331 -14 q 155 65 213 -14 q 97 299 97 143 l 97 724 l 192 724 l 192 315 q 360 69 192 69 q 442 83 401 69 q 516 124 482 97 q 577 186 550 150 q 621 268 604 222 l 621 724 l 715 724 l 715 122 q 749 83 715 83 l 749 0 q 722 -3 732 -3 q 707 -3 711 -3 q 653 21 674 -1 q 632 81 632 43 l 632 164 q 503 33 585 79 q 331 -14 422 -14 m 404 922 q 456 949 433 922 q 483 1014 479 975 l 540 1014 q 530 959 540 985 q 501 915 519 933 q 457 885 482 896 q 404 874 432 874 q 307 914 346 874 q 268 1014 268 954 l 326 1014 q 350 950 326 978 q 404 922 374 922 z "},"Ů":{"ha":1049,"x_min":110,"x_max":940,"o":"m 422 1183 q 451 1249 422 1224 q 525 1274 481 1274 q 599 1249 569 1274 q 628 1183 628 1224 q 599 1117 628 1142 q 525 1092 569 1092 q 451 1117 481 1092 q 422 1183 422 1142 m 525 1236 q 485 1222 501 1236 q 469 1183 469 1207 q 485 1144 469 1160 q 525 1129 501 1129 q 565 1144 547 1129 q 582 1183 582 1160 q 565 1222 582 1207 q 525 1236 549 1236 m 524 81 q 678 116 617 81 q 777 209 740 151 q 828 340 814 267 q 843 489 843 414 l 843 986 l 940 986 l 940 489 q 918 299 940 389 q 847 142 896 210 q 718 33 797 74 q 525 -7 639 -7 q 328 35 408 -7 q 200 147 249 78 q 131 306 151 217 q 110 489 110 394 l 110 986 l 206 986 l 206 489 q 221 338 206 411 q 273 207 236 264 q 371 115 310 150 q 524 81 432 81 z "},"ů":{"ha":825,"x_min":97,"x_max":749,"o":"m 301 924 q 331 989 301 964 q 404 1014 360 1014 q 478 989 449 1014 q 507 924 507 964 q 478 857 507 882 q 404 832 449 832 q 331 857 360 832 q 301 924 301 882 m 404 976 q 365 962 381 976 q 349 924 349 947 q 365 885 349 900 q 404 869 381 869 q 444 885 426 869 q 461 924 461 900 q 444 962 461 947 q 404 976 428 976 m 331 -14 q 155 65 213 -14 q 97 299 97 143 l 97 724 l 192 724 l 192 315 q 360 69 192 69 q 442 83 401 69 q 516 124 482 97 q 577 186 550 150 q 621 268 604 222 l 621 724 l 715 724 l 715 122 q 749 83 715 83 l 749 0 q 722 -3 732 -3 q 707 -3 711 -3 q 653 21 674 -1 q 632 81 632 43 l 632 164 q 503 33 585 79 q 331 -14 422 -14 z "},"Ű":{"ha":1049,"x_min":110,"x_max":940,"o":"m 524 81 q 678 116 617 81 q 777 209 740 151 q 828 340 814 267 q 843 489 843 414 l 843 986 l 940 986 l 940 489 q 918 299 940 389 q 847 142 896 210 q 718 33 797 74 q 525 -7 639 -7 q 328 35 408 -7 q 200 147 249 78 q 131 306 151 217 q 110 489 110 394 l 110 986 l 206 986 l 206 489 q 221 338 206 411 q 273 207 236 264 q 371 115 310 150 q 524 81 432 81 m 436 1121 l 385 1144 l 464 1274 l 553 1274 l 436 1121 m 611 1121 l 558 1144 l 638 1274 l 726 1274 l 611 1121 z "},"ű":{"ha":825,"x_min":97,"x_max":749,"o":"m 331 -14 q 155 65 213 -14 q 97 299 97 143 l 97 724 l 192 724 l 192 315 q 360 69 192 69 q 442 83 401 69 q 516 124 482 97 q 577 186 550 150 q 621 268 604 222 l 621 724 l 715 724 l 715 122 q 749 83 715 83 l 749 0 q 722 -3 732 -3 q 707 -3 711 -3 q 653 21 674 -1 q 632 81 632 43 l 632 164 q 503 33 585 79 q 331 -14 422 -14 m 315 861 l 264 885 l 343 1014 l 432 1014 l 315 861 m 490 861 l 438 885 l 517 1014 l 606 1014 l 490 861 z "},"Ų":{"ha":1050,"x_min":110,"x_max":940,"o":"m 524 81 q 678 116 617 81 q 777 209 740 151 q 828 340 814 267 q 843 489 843 414 l 843 986 l 940 986 l 940 489 q 919 304 940 392 q 852 149 899 217 q 731 40 806 82 q 551 -6 657 -1 q 465 -74 490 -44 q 440 -133 440 -103 q 513 -194 440 -185 l 486 -247 q 408 -209 435 -236 q 382 -146 382 -182 q 407 -76 382 -111 q 485 -4 432 -42 q 308 47 379 3 q 192 160 236 92 q 129 313 149 228 q 110 489 110 399 l 110 986 l 206 986 l 206 489 q 221 338 206 411 q 273 207 236 264 q 371 115 310 150 q 524 81 432 81 z "},"ų":{"ha":825,"x_min":97,"x_max":749,"o":"m 331 -14 q 155 65 213 -14 q 97 299 97 143 l 97 724 l 192 724 l 192 315 q 360 69 192 69 q 442 83 401 69 q 516 124 482 97 q 577 186 550 150 q 621 268 604 222 l 621 724 l 715 724 l 715 122 q 749 83 715 83 l 749 0 q 660 -69 686 -39 q 635 -129 635 -99 q 707 -190 635 -181 l 681 -243 q 603 -205 629 -232 q 576 -142 576 -178 q 601 -72 576 -107 q 682 1 626 -36 q 645 29 658 8 q 632 81 632 50 l 632 164 q 503 33 585 79 q 331 -14 422 -14 z "},"Ŵ":{"ha":1453,"x_min":17,"x_max":1438,"o":"m 554 1156 l 690 1274 l 760 1274 l 897 1156 l 843 1126 l 725 1214 l 607 1126 l 554 1156 m 494 979 l 586 979 l 725 629 l 865 979 l 958 979 l 786 558 l 975 113 l 1332 986 l 1438 986 l 1019 0 l 933 0 l 726 488 l 518 0 l 433 0 l 17 986 l 121 986 l 479 113 l 667 558 l 494 979 z "},"ŵ":{"ha":1129,"x_min":21,"x_max":1108,"o":"m 393 896 l 529 1014 l 599 1014 l 736 896 l 682 867 l 564 954 l 446 867 l 393 896 m 1015 724 l 1108 724 l 797 0 l 719 0 l 564 369 l 410 0 l 332 0 l 21 724 l 113 724 l 376 97 l 514 428 l 390 722 l 469 722 l 564 486 l 658 722 l 739 722 l 615 428 l 753 97 l 1015 724 z "},"Ŷ":{"ha":904,"x_min":22,"x_max":882,"o":"m 129 986 l 451 456 l 776 986 l 882 986 l 500 367 l 500 0 l 403 0 l 403 369 l 22 986 l 129 986 m 281 1156 l 417 1274 l 486 1274 l 624 1156 l 569 1126 l 451 1214 l 333 1126 l 281 1156 z "},"ŷ":{"ha":753,"x_min":21,"x_max":725,"o":"m 146 -222 q 167 -224 157 -224 q 188 -225 178 -225 q 227 -218 213 -225 q 256 -187 242 -211 q 287 -119 269 -164 q 336 0 304 -75 l 21 724 l 118 724 l 386 88 l 635 724 l 725 724 l 350 -210 q 299 -280 335 -250 q 203 -310 264 -310 q 176 -309 189 -310 q 146 -306 164 -308 l 146 -222 m 215 896 l 351 1014 l 421 1014 l 558 896 l 504 867 l 386 954 l 268 867 l 215 896 z "},"Ÿ":{"ha":904,"x_min":22,"x_max":882,"o":"m 129 986 l 451 456 l 776 986 l 882 986 l 500 367 l 500 0 l 403 0 l 403 369 l 22 986 l 129 986 m 307 1139 l 307 1269 l 388 1269 l 388 1139 l 307 1139 m 514 1139 l 514 1269 l 594 1269 l 594 1139 l 514 1139 z "},"Ź":{"ha":874,"x_min":43,"x_max":826,"o":"m 468 1121 l 406 1144 l 488 1274 l 588 1274 l 468 1121 m 43 76 l 714 900 l 54 900 l 54 986 l 826 986 l 826 910 l 164 86 l 825 86 l 825 0 l 43 0 l 43 76 z "},"ź":{"ha":683,"x_min":43,"x_max":635,"o":"m 364 861 l 301 885 l 383 1014 l 483 1014 l 364 861 m 43 64 l 532 653 l 54 653 l 54 724 l 635 724 l 635 660 l 147 71 l 633 71 l 633 0 l 43 0 l 43 64 z "},"Ż":{"ha":874,"x_min":43,"x_max":826,"o":"m 43 76 l 714 900 l 54 900 l 54 986 l 826 986 l 826 910 l 164 86 l 825 86 l 825 0 l 43 0 l 43 76 m 417 1139 l 417 1274 l 503 1274 l 503 1139 l 417 1139 z "},"ż":{"ha":683,"x_min":43,"x_max":635,"o":"m 43 64 l 532 653 l 54 653 l 54 724 l 635 724 l 635 660 l 147 71 l 633 71 l 633 0 l 43 0 l 43 64 m 311 879 l 311 1014 l 397 1014 l 397 879 l 311 879 z "},"Ž":{"ha":874,"x_min":43,"x_max":826,"o":"m 342 1274 l 460 1186 l 578 1274 l 632 1246 l 494 1126 l 425 1126 l 289 1246 l 342 1274 m 43 76 l 714 900 l 54 900 l 54 986 l 826 986 l 826 910 l 164 86 l 825 86 l 825 0 l 43 0 l 43 76 z "},"ž":{"ha":683,"x_min":43,"x_max":635,"o":"m 236 1014 l 354 926 l 472 1014 l 526 986 l 389 867 l 319 867 l 183 986 l 236 1014 m 43 64 l 532 653 l 54 653 l 54 724 l 635 724 l 635 660 l 147 71 l 633 71 l 633 0 l 43 0 l 43 64 z "},"Ə":{"ha":1024,"x_min":40,"x_max":965,"o":"m 507 -8 q 324 31 410 -8 q 176 136 239 69 q 76 293 113 203 q 40 486 40 383 q 40 513 40 499 q 43 532 40 526 l 858 532 q 820 679 851 611 q 741 797 789 747 q 631 875 693 847 q 497 903 568 903 q 400 889 447 903 q 313 849 353 875 q 244 788 274 824 q 199 710 214 753 l 107 751 q 174 849 132 804 q 268 925 215 893 q 382 975 321 957 q 507 993 443 993 q 685 953 601 993 q 831 845 768 914 q 929 685 893 776 q 965 488 965 593 q 930 293 965 383 q 832 135 894 203 q 686 30 769 68 q 507 -8 603 -8 m 507 79 q 640 107 578 79 q 751 184 703 135 q 828 301 799 233 q 861 447 857 368 l 144 447 q 179 301 149 368 q 258 184 210 233 q 371 107 307 135 q 507 79 435 79 z "},"ƒ":{"ha":731,"x_min":42,"x_max":683,"o":"m 200 -251 q 115 -239 156 -251 q 42 -197 74 -226 l 89 -133 q 137 -160 110 -153 q 190 -167 164 -167 q 238 -157 214 -167 q 279 -130 261 -147 q 308 -89 297 -112 q 319 -37 319 -65 l 319 564 l 218 564 l 218 639 l 319 639 l 319 743 q 376 952 319 876 q 532 1028 432 1028 q 613 1015 572 1028 q 683 982 654 1003 l 656 914 q 607 938 636 929 q 549 946 578 946 q 448 894 482 946 q 414 746 414 843 l 414 639 l 613 639 l 613 564 l 414 564 l 414 -35 q 396 -123 414 -83 q 348 -191 378 -162 q 279 -235 318 -219 q 200 -251 240 -251 z "},"Ǆ":{"ha":1865,"x_min":124,"x_max":1819,"o":"m 1333 1274 l 1451 1186 l 1569 1274 l 1624 1246 l 1486 1126 l 1417 1126 l 1281 1246 l 1333 1274 m 1036 76 l 1707 900 l 1047 900 l 1047 986 l 1819 986 l 1819 910 l 1157 86 l 1818 86 l 1818 0 l 1036 0 l 1036 76 m 124 0 l 124 986 l 458 986 q 665 947 576 986 q 812 842 753 908 q 901 685 871 775 q 931 494 931 596 q 897 291 931 382 q 802 135 864 200 q 653 35 740 71 q 458 0 567 0 l 124 0 m 833 494 q 808 658 833 583 q 735 786 783 732 q 618 870 688 840 q 458 900 549 900 l 221 900 l 221 86 l 458 86 q 620 117 550 86 q 738 203 690 149 q 809 333 785 258 q 833 494 833 407 z "},"ǅ":{"ha":1675,"x_min":124,"x_max":1628,"o":"m 1229 1014 l 1347 926 l 1465 1014 l 1519 986 l 1382 867 l 1313 867 l 1176 986 l 1229 1014 m 1036 64 l 1525 653 l 1047 653 l 1047 724 l 1628 724 l 1628 660 l 1140 71 l 1626 71 l 1626 0 l 1036 0 l 1036 64 m 124 0 l 124 986 l 458 986 q 665 947 576 986 q 812 842 753 908 q 901 685 871 775 q 931 494 931 596 q 897 291 931 382 q 802 135 864 200 q 653 35 740 71 q 458 0 567 0 l 124 0 m 833 494 q 808 658 833 583 q 735 786 783 732 q 618 870 688 840 q 458 900 549 900 l 221 900 l 221 86 l 458 86 q 620 117 550 86 q 738 203 690 149 q 809 333 785 258 q 833 494 833 407 z "},"ǆ":{"ha":1546,"x_min":56,"x_max":1499,"o":"m 1100 1014 l 1218 926 l 1336 1014 l 1390 986 l 1253 867 l 1183 867 l 1047 986 l 1100 1014 m 907 64 l 1396 653 l 918 653 l 918 724 l 1499 724 l 1499 660 l 1011 71 l 1497 71 l 1497 0 l 907 0 l 907 64 m 401 -14 q 263 17 326 -14 q 153 100 199 49 q 81 219 107 151 q 56 360 56 286 q 81 505 56 436 q 149 625 106 574 q 253 706 193 676 q 386 736 314 736 q 549 688 478 736 q 660 572 619 640 l 660 1014 l 754 1014 l 754 122 q 788 83 754 83 l 788 0 q 754 -4 767 -4 q 696 17 721 -4 q 671 69 671 39 l 671 140 q 554 28 628 69 q 401 -14 481 -14 m 422 69 q 497 83 457 69 q 571 122 536 97 q 630 178 606 146 q 660 249 654 211 l 660 472 q 619 542 646 510 q 559 600 593 575 q 486 639 525 625 q 410 653 447 653 q 304 628 351 653 q 223 562 257 603 q 171 468 189 521 q 153 360 153 415 q 174 249 153 301 q 231 156 194 196 q 316 93 267 117 q 422 69 365 69 z "},"Ǉ":{"ha":1478,"x_min":124,"x_max":1367,"o":"m 857 124 q 935 88 888 103 q 1043 72 983 72 q 1163 99 1118 72 q 1232 179 1208 126 q 1263 309 1256 232 q 1269 485 1269 386 l 1269 986 l 1367 986 l 1367 485 q 1356 280 1367 372 q 1313 122 1346 188 q 1215 21 1279 57 q 1043 -15 1151 -15 q 829 46 918 -15 l 857 124 m 124 0 l 124 986 l 221 986 l 221 86 l 790 86 l 790 0 l 124 0 z "},"ǈ":{"ha":1121,"x_min":124,"x_max":1018,"o":"m 806 -251 q 719 -239 760 -251 q 647 -197 679 -226 l 693 -133 q 742 -160 715 -153 q 794 -167 768 -167 q 842 -157 819 -167 q 883 -130 865 -147 q 913 -89 901 -112 q 924 -37 924 -65 l 924 724 l 1018 724 l 1018 -32 q 1000 -121 1018 -81 q 952 -190 982 -161 q 884 -235 922 -219 q 806 -251 846 -251 m 924 875 l 924 1014 l 1018 1014 l 1018 875 l 924 875 m 124 0 l 124 986 l 221 986 l 221 86 l 790 86 l 790 0 l 124 0 z "},"ǉ":{"ha":690,"x_min":108,"x_max":586,"o":"m 374 -251 q 288 -239 328 -251 q 215 -197 247 -226 l 261 -133 q 310 -160 283 -153 q 363 -167 336 -167 q 410 -157 388 -167 q 451 -130 433 -147 q 481 -89 469 -112 q 492 -37 492 -65 l 492 724 l 586 724 l 586 -32 q 568 -121 586 -81 q 520 -190 550 -161 q 452 -235 490 -219 q 374 -251 414 -251 m 492 875 l 492 1014 l 586 1014 l 586 875 l 492 875 m 108 1014 l 203 1014 l 203 164 q 225 101 203 124 q 288 78 247 78 q 324 82 303 78 q 363 93 344 86 l 379 17 q 315 -1 353 6 q 249 -8 276 -8 q 146 28 183 -8 q 108 132 108 65 l 108 1014 z "},"Ǌ":{"ha":1740,"x_min":124,"x_max":1629,"o":"m 1119 124 q 1198 88 1150 103 q 1306 72 1246 72 q 1426 99 1381 72 q 1494 179 1471 126 q 1525 309 1518 232 q 1532 485 1532 386 l 1532 986 l 1629 986 l 1629 485 q 1619 280 1629 372 q 1575 122 1608 188 q 1478 21 1542 57 q 1306 -15 1414 -15 q 1092 46 1181 -15 l 1119 124 m 221 806 l 221 0 l 124 0 l 124 986 l 199 986 l 851 165 l 851 985 l 949 985 l 949 0 l 864 0 l 221 806 z "},"ǋ":{"ha":1385,"x_min":124,"x_max":1281,"o":"m 1068 -251 q 982 -239 1022 -251 q 910 -197 942 -226 l 956 -133 q 1004 -160 978 -153 q 1057 -167 1031 -167 q 1105 -157 1082 -167 q 1146 -130 1128 -147 q 1175 -89 1164 -112 q 1186 -37 1186 -65 l 1186 724 l 1281 724 l 1281 -32 q 1263 -121 1281 -81 q 1215 -190 1244 -161 q 1147 -235 1185 -219 q 1068 -251 1108 -251 m 1186 875 l 1186 1014 l 1281 1014 l 1281 875 l 1186 875 m 221 806 l 221 0 l 124 0 l 124 986 l 199 986 l 851 165 l 851 985 l 949 985 l 949 0 l 864 0 l 221 806 z "},"ǌ":{"ha":1122,"x_min":104,"x_max":1018,"o":"m 806 -251 q 719 -239 760 -251 q 647 -197 679 -226 l 693 -133 q 742 -160 715 -153 q 794 -167 768 -167 q 842 -157 819 -167 q 883 -130 865 -147 q 913 -89 901 -112 q 924 -37 924 -65 l 924 724 l 1018 724 l 1018 -32 q 1000 -121 1018 -81 q 952 -190 982 -161 q 884 -235 922 -219 q 806 -251 846 -251 m 924 875 l 924 1014 l 1018 1014 l 1018 875 l 924 875 m 713 0 l 618 0 l 618 404 q 580 592 618 533 q 463 650 542 650 q 379 635 421 650 q 302 592 338 619 q 239 526 267 564 q 199 443 211 488 l 199 0 l 104 0 l 104 724 l 190 724 l 190 560 q 317 688 235 639 q 497 736 400 736 q 599 714 557 736 q 665 651 640 692 q 701 553 690 611 q 713 424 713 494 l 713 0 z "},"Ǫ":{"ha":1043,"x_min":58,"x_max":983,"o":"m 483 -247 q 406 -209 432 -236 q 379 -146 379 -182 q 404 -76 379 -111 q 482 -4 429 -42 q 308 49 386 4 q 175 162 231 93 q 89 317 119 231 q 58 493 58 403 q 94 682 58 592 q 192 842 129 772 q 339 952 254 911 q 522 993 424 993 q 710 949 625 993 q 856 835 796 906 q 950 674 917 764 q 983 492 983 585 q 951 310 983 397 q 860 154 918 222 q 722 43 801 86 q 549 -6 642 0 q 463 -73 488 -43 q 438 -133 438 -103 q 510 -194 438 -185 l 483 -247 m 156 493 q 182 338 156 413 q 257 206 208 264 q 372 115 306 149 q 521 81 439 81 q 672 117 604 81 q 788 211 740 153 q 860 343 835 269 q 886 493 886 417 q 859 648 886 574 q 783 779 832 722 q 668 870 735 836 q 521 904 601 904 q 369 869 438 904 q 254 775 301 833 q 181 643 207 717 q 156 493 156 569 z "},"ǫ":{"ha":826,"x_min":54,"x_max":772,"o":"m 400 -251 q 322 -213 349 -240 q 296 -150 296 -186 q 319 -83 296 -117 q 393 -12 342 -49 q 256 22 318 -8 q 149 103 193 53 q 79 220 104 154 q 54 360 54 286 q 81 504 54 436 q 156 624 108 572 q 269 706 204 675 q 413 736 335 736 q 556 706 490 736 q 670 624 622 675 q 745 504 718 572 q 772 360 772 436 q 749 228 772 290 q 686 115 726 165 q 590 33 646 65 q 465 -10 533 0 q 379 -78 404 -49 q 354 -137 354 -107 q 426 -199 354 -189 l 400 -251 m 150 358 q 171 245 150 297 q 227 153 192 193 q 310 92 263 114 q 413 69 358 69 q 515 92 467 69 q 599 155 563 115 q 656 247 635 194 q 676 361 676 300 q 656 474 676 421 q 599 567 635 528 q 515 630 563 607 q 413 653 467 653 q 311 630 358 653 q 228 567 264 607 q 171 473 192 526 q 150 358 150 419 z "},"Ǳ":{"ha":1846,"x_min":124,"x_max":1799,"o":"m 1015 76 l 1686 900 l 1026 900 l 1026 986 l 1799 986 l 1799 910 l 1136 86 l 1797 86 l 1797 0 l 1015 0 l 1015 76 m 124 0 l 124 986 l 458 986 q 665 947 576 986 q 812 842 753 908 q 901 685 871 775 q 931 494 931 596 q 897 291 931 382 q 802 135 864 200 q 653 35 740 71 q 458 0 567 0 l 124 0 m 833 494 q 808 658 833 583 q 735 786 783 732 q 618 870 688 840 q 458 900 549 900 l 221 900 l 221 86 l 458 86 q 620 117 550 86 q 738 203 690 149 q 809 333 785 258 q 833 494 833 407 z "},"ǲ":{"ha":1675,"x_min":124,"x_max":1628,"o":"m 1036 64 l 1525 653 l 1047 653 l 1047 724 l 1628 724 l 1628 660 l 1140 71 l 1626 71 l 1626 0 l 1036 0 l 1036 64 m 124 0 l 124 986 l 458 986 q 665 947 576 986 q 812 842 753 908 q 901 685 871 775 q 931 494 931 596 q 897 291 931 382 q 802 135 864 200 q 653 35 740 71 q 458 0 567 0 l 124 0 m 833 494 q 808 658 833 583 q 735 786 783 732 q 618 870 688 840 q 458 900 549 900 l 221 900 l 221 86 l 458 86 q 620 117 550 86 q 738 203 690 149 q 809 333 785 258 q 833 494 833 407 z "},"ǳ":{"ha":1546,"x_min":56,"x_max":1499,"o":"m 907 64 l 1396 653 l 918 653 l 918 724 l 1499 724 l 1499 660 l 1011 71 l 1497 71 l 1497 0 l 907 0 l 907 64 m 401 -14 q 263 17 326 -14 q 153 100 199 49 q 81 219 107 151 q 56 360 56 286 q 81 505 56 436 q 149 625 106 574 q 253 706 193 676 q 386 736 314 736 q 549 688 478 736 q 660 572 619 640 l 660 1014 l 754 1014 l 754 122 q 788 83 754 83 l 788 0 q 754 -4 767 -4 q 696 17 721 -4 q 671 69 671 39 l 671 140 q 554 28 628 69 q 401 -14 481 -14 m 422 69 q 497 83 457 69 q 571 122 536 97 q 630 178 606 146 q 660 249 654 211 l 660 472 q 619 542 646 510 q 559 600 593 575 q 486 639 525 625 q 410 653 447 653 q 304 628 351 653 q 223 562 257 603 q 171 468 189 521 q 153 360 153 415 q 174 249 153 301 q 231 156 194 196 q 316 93 267 117 q 422 69 365 69 z "},"Ǵ":{"ha":994,"x_min":58,"x_max":918,"o":"m 526 1121 l 464 1144 l 546 1274 l 646 1274 l 526 1121 m 836 144 q 519 -7 699 -7 q 335 36 419 -7 q 190 150 251 79 q 93 310 128 221 q 58 494 58 400 q 92 683 58 593 q 188 842 126 774 q 332 952 249 911 q 514 993 415 993 q 646 977 586 993 q 752 933 706 961 q 833 865 799 904 q 890 778 867 825 l 815 728 q 689 863 767 819 q 513 906 611 906 q 365 871 431 906 q 252 778 299 836 q 181 647 206 721 q 156 493 156 572 q 184 335 156 410 q 263 203 213 260 q 380 114 313 147 q 526 81 447 81 q 688 120 611 81 q 836 246 765 160 l 836 410 l 617 410 l 617 485 l 918 485 l 918 0 l 836 0 l 836 144 z "},"ǵ":{"ha":857,"x_min":54,"x_max":753,"o":"m 432 861 l 369 885 l 451 1014 l 551 1014 l 432 861 m 393 -10 q 256 22 318 -10 q 149 104 194 53 q 79 222 104 156 q 54 360 54 289 q 78 503 54 435 q 147 624 103 572 q 253 706 192 675 q 390 736 315 736 q 551 690 483 736 q 668 572 619 643 l 668 724 l 753 724 l 753 -3 q 724 -135 753 -78 q 648 -232 696 -193 q 535 -290 600 -271 q 399 -310 471 -310 q 197 -265 274 -310 q 74 -146 121 -221 l 132 -100 q 246 -202 175 -169 q 399 -235 317 -235 q 499 -220 451 -235 q 581 -177 546 -206 q 638 -105 617 -149 q 658 -3 658 -61 l 658 140 q 544 31 617 71 q 393 -10 472 -10 m 419 69 q 501 85 461 69 q 574 126 542 100 q 629 183 607 151 q 658 249 651 215 l 658 472 q 617 544 643 511 q 557 601 590 578 q 485 639 524 625 q 408 653 447 653 q 299 627 347 653 q 218 560 251 601 q 167 465 185 518 q 150 358 150 413 q 171 247 150 300 q 228 155 192 194 q 314 92 265 115 q 419 69 363 69 z "},"Ǻ":{"ha":939,"x_min":17,"x_max":921,"o":"m 511 1124 q 556 1092 539 1114 q 572 1040 572 1071 q 559 992 572 1013 q 522 960 546 971 l 921 0 l 818 0 l 690 308 l 247 308 l 121 0 l 17 0 l 418 958 q 381 991 394 969 q 367 1040 367 1013 q 392 1102 367 1078 q 457 1129 417 1126 l 504 1275 l 604 1275 l 511 1124 m 668 385 l 469 872 l 268 385 l 668 385 m 469 1093 q 430 1078 446 1093 q 414 1040 414 1064 q 430 1001 414 1017 q 469 986 446 986 q 509 1001 492 986 q 526 1040 526 1017 q 510 1078 526 1064 q 469 1093 493 1093 z "},"ǻ":{"ha":757,"x_min":46,"x_max":692,"o":"m 286 -14 q 191 3 235 -14 q 115 51 147 21 q 64 123 82 82 q 46 211 46 164 q 68 299 46 258 q 131 368 90 339 q 226 413 171 397 q 349 429 282 429 q 461 419 404 429 q 563 392 518 410 l 563 457 q 508 609 563 553 q 358 665 454 665 q 244 643 303 665 q 126 579 186 621 l 93 642 q 365 736 233 736 q 579 660 501 736 q 657 449 657 583 l 657 122 q 692 83 657 83 l 692 0 q 656 -4 668 -4 q 599 14 619 -4 q 578 64 579 32 l 575 121 q 449 21 525 56 q 286 -14 374 -14 m 308 58 q 444 86 382 58 q 538 160 506 114 q 556 187 550 172 q 563 214 563 201 l 563 332 q 465 360 515 350 q 361 369 414 369 q 199 328 261 369 q 136 218 136 286 q 149 156 136 185 q 185 105 163 126 q 240 71 208 83 q 308 58 272 58 m 375 1069 l 313 1093 l 394 1222 l 494 1222 l 375 1069 m 263 924 q 292 989 263 964 q 365 1014 321 1014 q 439 989 410 1014 q 468 924 468 964 q 439 857 468 882 q 365 832 410 832 q 292 857 321 832 q 263 924 263 882 m 365 976 q 326 962 342 976 q 310 924 310 947 q 326 885 310 900 q 365 869 342 869 q 405 885 388 869 q 422 924 422 900 q 406 962 422 947 q 365 976 389 976 z "},"Ǽ":{"ha":1335,"x_min":-36,"x_max":1279,"o":"m 719 1121 l 657 1144 l 739 1274 l 839 1274 l 719 1121 m 599 986 l 1267 986 l 1267 900 l 719 900 l 719 546 l 1192 546 l 1192 460 l 719 460 l 719 86 l 1279 86 l 1279 0 l 625 0 l 625 308 l 265 308 l 69 0 l -36 0 l 599 986 m 618 394 l 618 869 l 310 394 l 618 394 z "},"ǽ":{"ha":1294,"x_min":46,"x_max":1253,"o":"m 624 861 l 561 885 l 643 1014 l 743 1014 l 624 861 m 285 -14 q 191 3 235 -14 q 115 51 147 21 q 64 123 82 82 q 46 211 46 164 q 68 299 46 258 q 130 368 90 339 q 225 413 169 397 q 347 429 281 429 q 444 422 396 429 q 533 401 493 414 q 541 456 536 428 q 557 507 546 483 q 492 624 543 582 q 357 665 440 665 q 244 643 303 665 q 125 579 186 621 l 92 642 q 365 736 235 736 q 519 699 456 736 q 615 592 583 661 q 732 697 660 657 q 892 736 804 736 q 1037 706 971 736 q 1151 626 1103 676 q 1226 506 1199 575 q 1253 361 1253 438 q 1252 344 1253 356 q 1251 328 1251 332 l 622 328 q 650 220 626 269 q 711 135 674 171 q 797 78 749 99 q 900 58 846 58 q 969 68 935 58 q 1033 94 1004 78 q 1085 135 1063 111 q 1121 189 1108 160 l 1204 167 q 1157 94 1188 126 q 1085 37 1126 61 q 997 -1 1044 13 q 896 -14 949 -14 q 723 30 800 -14 q 597 146 646 74 q 538 74 574 104 q 460 24 503 43 q 372 -5 417 4 q 285 -14 326 -14 m 307 58 q 444 86 382 58 q 538 160 506 114 q 563 208 560 185 q 542 273 549 236 q 533 342 535 310 q 360 369 450 369 q 197 328 260 369 q 135 218 135 286 q 148 156 135 185 q 185 105 161 126 q 240 71 208 83 q 307 58 271 58 m 1163 392 q 1135 501 1158 451 q 1076 586 1113 550 q 993 642 1040 622 q 890 663 946 663 q 788 642 835 663 q 704 586 740 622 q 647 500 668 550 q 622 392 625 450 l 1163 392 z "},"Ǿ":{"ha":1043,"x_min":58,"x_max":983,"o":"m 903 986 l 824 868 q 941 695 899 794 q 983 492 983 596 q 948 303 983 393 q 851 144 913 213 q 704 34 789 75 q 521 -7 619 -7 q 396 11 454 -7 q 288 61 338 29 l 247 0 l 140 0 l 217 115 q 100 287 142 188 q 58 493 58 386 q 94 682 58 592 q 192 842 129 772 q 339 952 254 911 q 522 993 424 993 q 647 974 589 993 q 754 924 704 956 l 796 986 l 903 986 m 156 493 q 185 329 156 407 q 268 193 215 251 l 704 849 q 618 890 664 875 q 521 904 572 904 q 369 869 438 904 q 254 775 301 833 q 181 643 207 717 q 156 493 156 569 m 886 493 q 856 655 886 578 q 772 790 825 732 l 336 135 q 521 81 418 81 q 672 117 604 81 q 788 211 740 153 q 860 343 835 269 q 886 493 886 417 m 531 1121 l 468 1144 l 550 1274 l 650 1274 l 531 1121 z "},"ǿ":{"ha":826,"x_min":54,"x_max":772,"o":"m 129 -1 l 183 69 q 88 197 122 122 q 54 360 54 272 q 81 504 54 436 q 156 624 108 572 q 269 706 204 675 q 413 736 335 736 q 513 722 465 736 q 600 682 560 708 l 632 726 l 697 726 l 640 651 q 738 523 703 599 q 772 360 772 447 q 746 217 772 285 q 672 97 719 149 q 558 16 624 46 q 413 -14 492 -14 q 312 0 360 -14 q 224 39 264 14 l 193 -1 l 129 -1 m 413 69 q 515 92 467 69 q 599 155 563 115 q 656 247 635 194 q 676 361 676 300 q 652 482 676 426 q 588 578 628 538 l 276 111 q 413 69 338 69 m 150 358 q 174 237 150 292 q 238 142 197 182 l 549 610 q 413 653 486 653 q 311 630 358 653 q 228 567 264 607 q 171 473 192 526 q 150 358 150 419 m 421 861 l 358 885 l 440 1014 l 540 1014 l 421 861 z "},"Ȁ":{"ha":939,"x_min":17,"x_max":921,"o":"m 429 986 l 511 986 l 921 0 l 818 0 l 690 308 l 247 308 l 121 0 l 17 0 l 429 986 m 668 385 l 469 872 l 268 385 l 668 385 m 425 1275 l 513 1275 l 592 1146 l 540 1122 l 425 1275 m 250 1275 l 339 1275 l 418 1146 l 367 1122 l 250 1275 z "},"̏":{"ha":453,"x_min":51,"x_max":393,"o":"m 226 1014 l 314 1014 l 393 885 l 342 861 l 226 1014 m 51 1014 l 140 1014 l 219 885 l 168 861 l 51 1014 z "},"ȁ":{"ha":757,"x_min":46,"x_max":692,"o":"m 286 -14 q 191 3 235 -14 q 115 51 147 21 q 64 123 82 82 q 46 211 46 164 q 68 299 46 258 q 131 368 90 339 q 226 413 171 397 q 349 429 282 429 q 461 419 404 429 q 563 392 518 410 l 563 457 q 508 609 563 553 q 358 665 454 665 q 244 643 303 665 q 126 579 186 621 l 93 642 q 365 736 233 736 q 579 660 501 736 q 657 449 657 583 l 657 122 q 692 83 657 83 l 692 0 q 656 -4 668 -4 q 599 14 619 -4 q 578 64 579 32 l 575 121 q 449 21 525 56 q 286 -14 374 -14 m 308 58 q 444 86 382 58 q 538 160 506 114 q 556 187 550 172 q 563 214 563 201 l 563 332 q 465 360 515 350 q 361 369 414 369 q 199 328 261 369 q 136 218 136 286 q 149 156 136 185 q 185 105 163 126 q 240 71 208 83 q 308 58 272 58 m 346 1014 l 433 1014 l 513 885 l 461 861 l 346 1014 m 171 1014 l 260 1014 l 339 885 l 288 861 l 171 1014 z "},"Ȃ":{"ha":939,"x_min":17,"x_max":921,"o":"m 429 986 l 511 986 l 921 0 l 818 0 l 690 308 l 247 308 l 121 0 l 17 0 l 429 986 m 668 385 l 469 872 l 268 385 l 668 385 m 469 1225 q 415 1197 439 1225 q 392 1133 392 1169 l 333 1133 q 372 1233 333 1193 q 469 1274 411 1274 q 522 1263 497 1274 q 566 1233 547 1251 q 595 1188 585 1214 q 606 1133 606 1163 l 549 1133 q 522 1199 544 1172 q 469 1225 499 1225 z "},"̑":{"ha":392,"x_min":60,"x_max":332,"o":"m 196 965 q 142 938 165 965 q 118 874 118 910 l 60 874 q 99 974 60 933 q 196 1014 138 1014 q 249 1003 224 1014 q 292 973 274 992 q 322 928 311 954 q 332 874 332 903 l 275 874 q 248 939 271 913 q 196 965 225 965 z "},"ȃ":{"ha":757,"x_min":46,"x_max":692,"o":"m 286 -14 q 191 3 235 -14 q 115 51 147 21 q 64 123 82 82 q 46 211 46 164 q 68 299 46 258 q 131 368 90 339 q 226 413 171 397 q 349 429 282 429 q 461 419 404 429 q 563 392 518 410 l 563 457 q 508 609 563 553 q 358 665 454 665 q 244 643 303 665 q 126 579 186 621 l 93 642 q 365 736 233 736 q 579 660 501 736 q 657 449 657 583 l 657 122 q 692 83 657 83 l 692 0 q 656 -4 668 -4 q 599 14 619 -4 q 578 64 579 32 l 575 121 q 449 21 525 56 q 286 -14 374 -14 m 308 58 q 444 86 382 58 q 538 160 506 114 q 556 187 550 172 q 563 214 563 201 l 563 332 q 465 360 515 350 q 361 369 414 369 q 199 328 261 369 q 136 218 136 286 q 149 156 136 185 q 185 105 163 126 q 240 71 208 83 q 308 58 272 58 m 372 965 q 318 938 342 965 q 294 874 294 910 l 236 874 q 275 974 236 933 q 372 1014 314 1014 q 425 1003 400 1014 q 469 973 450 992 q 498 928 488 954 q 508 874 508 903 l 451 874 q 424 939 447 913 q 372 965 401 965 z "},"Ȅ":{"ha":846,"x_min":124,"x_max":786,"o":"m 425 1275 l 513 1275 l 592 1146 l 540 1122 l 425 1275 m 250 1275 l 339 1275 l 418 1146 l 367 1122 l 250 1275 m 786 86 l 786 0 l 124 0 l 124 986 l 774 986 l 774 900 l 221 900 l 221 544 l 703 544 l 703 463 l 221 463 l 221 86 l 786 86 z "},"ȅ":{"ha":815,"x_min":54,"x_max":774,"o":"m 379 1014 l 467 1014 l 546 885 l 494 861 l 379 1014 m 204 1014 l 293 1014 l 372 885 l 321 861 l 204 1014 m 417 -14 q 272 16 338 -14 q 157 98 206 46 q 81 218 108 150 q 54 364 54 286 q 81 508 54 440 q 156 626 108 575 q 271 706 204 676 q 415 736 338 736 q 560 706 494 736 q 674 625 626 676 q 747 507 721 574 q 774 365 774 440 q 774 343 774 354 q 772 328 774 332 l 153 328 q 180 220 157 269 q 239 135 203 171 q 322 78 275 99 q 421 58 368 58 q 490 68 456 58 q 554 94 525 78 q 607 135 583 111 q 643 189 631 160 l 725 167 q 678 94 708 126 q 607 37 647 61 q 518 -1 567 13 q 417 -14 469 -14 m 683 400 q 656 506 679 458 q 598 589 633 554 q 516 643 563 624 q 417 663 469 663 q 317 643 364 663 q 234 589 269 624 q 177 506 199 554 q 151 400 156 457 l 683 400 z "},"Ȇ":{"ha":846,"x_min":124,"x_max":786,"o":"m 461 1225 q 407 1197 431 1225 q 383 1133 383 1169 l 325 1133 q 364 1233 325 1193 q 461 1274 403 1274 q 514 1263 489 1274 q 558 1233 539 1251 q 587 1188 576 1214 q 597 1133 597 1163 l 540 1133 q 513 1199 536 1172 q 461 1225 490 1225 m 786 86 l 786 0 l 124 0 l 124 986 l 774 986 l 774 900 l 221 900 l 221 544 l 703 544 l 703 463 l 221 463 l 221 86 l 786 86 z "},"ȇ":{"ha":815,"x_min":54,"x_max":774,"o":"m 415 965 q 361 938 385 965 q 338 874 338 910 l 279 874 q 318 974 279 933 q 415 1014 357 1014 q 468 1003 443 1014 q 512 973 493 992 q 541 928 531 954 q 551 874 551 903 l 494 874 q 467 939 490 913 q 415 965 444 965 m 417 -14 q 272 16 338 -14 q 157 98 206 46 q 81 218 108 150 q 54 364 54 286 q 81 508 54 440 q 156 626 108 575 q 271 706 204 676 q 415 736 338 736 q 560 706 494 736 q 674 625 626 676 q 747 507 721 574 q 774 365 774 440 q 774 343 774 354 q 772 328 774 332 l 153 328 q 180 220 157 269 q 239 135 203 171 q 322 78 275 99 q 421 58 368 58 q 490 68 456 58 q 554 94 525 78 q 607 135 583 111 q 643 189 631 160 l 725 167 q 678 94 708 126 q 607 37 647 61 q 518 -1 567 13 q 417 -14 469 -14 m 683 400 q 656 506 679 458 q 598 589 633 554 q 516 643 563 624 q 417 663 469 663 q 317 643 364 663 q 234 589 269 624 q 177 506 199 554 q 151 400 156 457 l 683 400 z "},"Ȉ":{"ha":344,"x_min":-32,"x_max":310,"o":"m 124 0 l 124 986 l 221 986 l 221 0 l 124 0 m 143 1275 l 231 1275 l 310 1146 l 258 1122 l 143 1275 m -32 1275 l 57 1275 l 136 1146 l 85 1122 l -32 1275 z "},"ȉ":{"ha":303,"x_min":-50,"x_max":292,"o":"m 125 1014 l 213 1014 l 292 885 l 240 861 l 125 1014 m -50 1014 l 39 1014 l 118 885 l 67 861 l -50 1014 m 104 0 l 104 724 l 199 724 l 199 0 l 104 0 z "},"Ȋ":{"ha":344,"x_min":33,"x_max":306,"o":"m 124 0 l 124 986 l 221 986 l 221 0 l 124 0 m 169 1225 q 115 1197 139 1225 q 92 1133 92 1169 l 33 1133 q 72 1233 33 1193 q 169 1274 111 1274 q 222 1263 197 1274 q 266 1233 247 1251 q 295 1188 285 1214 q 306 1133 306 1163 l 249 1133 q 222 1199 244 1172 q 169 1225 199 1225 z "},"ȋ":{"ha":303,"x_min":15,"x_max":288,"o":"m 151 965 q 97 938 121 965 q 74 874 74 910 l 15 874 q 54 974 15 933 q 151 1014 93 1014 q 204 1003 179 1014 q 248 973 229 992 q 277 928 267 954 q 288 874 288 903 l 231 874 q 203 939 226 913 q 151 965 181 965 m 104 0 l 104 724 l 199 724 l 199 0 l 104 0 z "},"Ȍ":{"ha":1043,"x_min":58,"x_max":983,"o":"m 479 1275 l 567 1275 l 646 1146 l 594 1122 l 479 1275 m 304 1275 l 393 1275 l 472 1146 l 421 1122 l 304 1275 m 521 -7 q 333 35 418 -7 q 186 148 247 78 q 92 308 125 218 q 58 493 58 399 q 94 682 58 592 q 192 842 129 772 q 339 952 254 911 q 522 993 424 993 q 710 949 625 993 q 856 835 796 906 q 950 674 917 764 q 983 492 983 585 q 948 303 983 393 q 851 144 913 213 q 704 34 789 75 q 521 -7 619 -7 m 156 493 q 182 338 156 413 q 257 206 208 264 q 372 115 306 149 q 521 81 439 81 q 672 117 604 81 q 788 211 740 153 q 860 343 835 269 q 886 493 886 417 q 859 648 886 574 q 783 779 832 722 q 668 870 735 836 q 521 904 601 904 q 369 869 438 904 q 254 775 301 833 q 181 643 207 717 q 156 493 156 569 z "},"ȍ":{"ha":826,"x_min":54,"x_max":772,"o":"m 376 1014 l 464 1014 l 543 885 l 492 861 l 376 1014 m 201 1014 l 290 1014 l 369 885 l 318 861 l 201 1014 m 413 -14 q 268 16 333 -14 q 155 97 203 46 q 81 217 107 149 q 54 360 54 285 q 81 504 54 436 q 156 624 108 572 q 269 706 204 675 q 413 736 335 736 q 556 706 490 736 q 670 624 622 675 q 745 504 718 572 q 772 360 772 436 q 746 217 772 285 q 672 97 719 149 q 558 16 624 46 q 413 -14 492 -14 m 150 358 q 171 245 150 297 q 227 153 192 193 q 310 92 263 114 q 413 69 358 69 q 515 92 467 69 q 599 155 563 115 q 656 247 635 194 q 676 361 676 300 q 656 474 676 421 q 599 567 635 528 q 515 630 563 607 q 413 653 467 653 q 311 630 358 653 q 228 567 264 607 q 171 473 192 526 q 150 358 150 419 z "},"Ȏ":{"ha":1043,"x_min":58,"x_max":983,"o":"m 521 1225 q 467 1197 490 1225 q 443 1133 443 1169 l 385 1133 q 424 1233 385 1193 q 521 1274 463 1274 q 574 1263 549 1274 q 617 1233 599 1251 q 647 1188 636 1214 q 657 1133 657 1163 l 600 1133 q 573 1199 596 1172 q 521 1225 550 1225 m 521 -7 q 333 35 418 -7 q 186 148 247 78 q 92 308 125 218 q 58 493 58 399 q 94 682 58 592 q 192 842 129 772 q 339 952 254 911 q 522 993 424 993 q 710 949 625 993 q 856 835 796 906 q 950 674 917 764 q 983 492 983 585 q 948 303 983 393 q 851 144 913 213 q 704 34 789 75 q 521 -7 619 -7 m 156 493 q 182 338 156 413 q 257 206 208 264 q 372 115 306 149 q 521 81 439 81 q 672 117 604 81 q 788 211 740 153 q 860 343 835 269 q 886 493 886 417 q 859 648 886 574 q 783 779 832 722 q 668 870 735 836 q 521 904 601 904 q 369 869 438 904 q 254 775 301 833 q 181 643 207 717 q 156 493 156 569 z "},"ȏ":{"ha":826,"x_min":54,"x_max":772,"o":"m 411 965 q 357 938 381 965 q 333 874 333 910 l 275 874 q 314 974 275 933 q 411 1014 353 1014 q 464 1003 439 1014 q 508 973 489 992 q 537 928 526 954 q 547 874 547 903 l 490 874 q 463 939 486 913 q 411 965 440 965 m 413 -14 q 268 16 333 -14 q 155 97 203 46 q 81 217 107 149 q 54 360 54 285 q 81 504 54 436 q 156 624 108 572 q 269 706 204 675 q 413 736 335 736 q 556 706 490 736 q 670 624 622 675 q 745 504 718 572 q 772 360 772 436 q 746 217 772 285 q 672 97 719 149 q 558 16 624 46 q 413 -14 492 -14 m 150 358 q 171 245 150 297 q 227 153 192 193 q 310 92 263 114 q 413 69 358 69 q 515 92 467 69 q 599 155 563 115 q 656 247 635 194 q 676 361 676 300 q 656 474 676 421 q 599 567 635 528 q 515 630 563 607 q 413 653 467 653 q 311 630 358 653 q 228 567 264 607 q 171 473 192 526 q 150 358 150 419 z "},"Ȑ":{"ha":907,"x_min":124,"x_max":854,"o":"m 410 1275 l 497 1275 l 576 1146 l 525 1122 l 410 1275 m 235 1275 l 324 1275 l 403 1146 l 351 1122 l 235 1275 m 124 0 l 124 986 l 540 986 q 658 959 604 986 q 750 888 711 932 q 810 789 789 844 q 832 676 832 733 q 816 573 832 622 q 772 484 800 524 q 703 417 743 444 q 613 381 663 390 l 854 0 l 744 0 l 513 364 l 221 364 l 221 0 l 124 0 m 221 450 l 543 450 q 622 469 586 450 q 682 519 657 488 q 721 592 707 551 q 735 676 735 632 q 719 762 735 721 q 676 833 703 803 q 612 882 649 864 q 535 900 575 900 l 221 900 l 221 450 z "},"ȑ":{"ha":488,"x_min":78,"x_max":465,"o":"m 253 1014 l 340 1014 l 419 885 l 368 861 l 253 1014 m 78 1014 l 167 1014 l 246 885 l 194 861 l 78 1014 m 465 640 q 299 588 369 638 q 199 450 228 538 l 199 0 l 104 0 l 104 724 l 193 724 l 193 550 q 301 681 233 633 q 447 728 369 728 q 465 726 458 728 l 465 640 z "},"Ȓ":{"ha":907,"x_min":124,"x_max":854,"o":"m 447 1225 q 393 1197 417 1225 q 369 1133 369 1169 l 311 1133 q 350 1233 311 1193 q 447 1274 389 1274 q 500 1263 475 1274 q 544 1233 525 1251 q 573 1188 563 1214 q 583 1133 583 1163 l 526 1133 q 499 1199 522 1172 q 447 1225 476 1225 m 124 0 l 124 986 l 540 986 q 658 959 604 986 q 750 888 711 932 q 810 789 789 844 q 832 676 832 733 q 816 573 832 622 q 772 484 800 524 q 703 417 743 444 q 613 381 663 390 l 854 0 l 744 0 l 513 364 l 221 364 l 221 0 l 124 0 m 221 450 l 543 450 q 622 469 586 450 q 682 519 657 488 q 721 592 707 551 q 735 676 735 632 q 719 762 735 721 q 676 833 703 803 q 612 882 649 864 q 535 900 575 900 l 221 900 l 221 450 z "},"ȓ":{"ha":488,"x_min":104,"x_max":465,"o":"m 279 965 q 225 938 249 965 q 201 874 201 910 l 143 874 q 182 974 143 933 q 279 1014 221 1014 q 332 1003 307 1014 q 376 973 357 992 q 405 928 394 954 q 415 874 415 903 l 358 874 q 331 939 354 913 q 279 965 308 965 m 465 640 q 299 588 369 638 q 199 450 228 538 l 199 0 l 104 0 l 104 724 l 193 724 l 193 550 q 301 681 233 633 q 447 728 369 728 q 465 726 458 728 l 465 640 z "},"Ȕ":{"ha":1049,"x_min":110,"x_max":940,"o":"m 490 1275 l 578 1275 l 657 1146 l 606 1122 l 490 1275 m 315 1275 l 404 1275 l 483 1146 l 432 1122 l 315 1275 m 524 81 q 678 116 617 81 q 777 209 740 151 q 828 340 814 267 q 843 489 843 414 l 843 986 l 940 986 l 940 489 q 918 299 940 389 q 847 142 896 210 q 718 33 797 74 q 525 -7 639 -7 q 328 35 408 -7 q 200 147 249 78 q 131 306 151 217 q 110 489 110 394 l 110 986 l 206 986 l 206 489 q 221 338 206 411 q 273 207 236 264 q 371 115 310 150 q 524 81 432 81 z "},"ȕ":{"ha":825,"x_min":97,"x_max":749,"o":"m 368 1014 l 456 1014 l 535 885 l 483 861 l 368 1014 m 193 1014 l 282 1014 l 361 885 l 310 861 l 193 1014 m 331 -14 q 155 65 213 -14 q 97 299 97 143 l 97 724 l 192 724 l 192 315 q 360 69 192 69 q 442 83 401 69 q 516 124 482 97 q 577 186 550 150 q 621 268 604 222 l 621 724 l 715 724 l 715 122 q 749 83 715 83 l 749 0 q 722 -3 732 -3 q 707 -3 711 -3 q 653 21 674 -1 q 632 81 632 43 l 632 164 q 503 33 585 79 q 331 -14 422 -14 z "},"Ȗ":{"ha":1049,"x_min":110,"x_max":940,"o":"m 524 1225 q 469 1197 493 1225 q 446 1133 446 1169 l 388 1133 q 426 1233 388 1193 q 524 1274 465 1274 q 576 1263 551 1274 q 620 1233 601 1251 q 649 1188 639 1214 q 660 1133 660 1163 l 603 1133 q 576 1199 599 1172 q 524 1225 553 1225 m 524 81 q 678 116 617 81 q 777 209 740 151 q 828 340 814 267 q 843 489 843 414 l 843 986 l 940 986 l 940 489 q 918 299 940 389 q 847 142 896 210 q 718 33 797 74 q 525 -7 639 -7 q 328 35 408 -7 q 200 147 249 78 q 131 306 151 217 q 110 489 110 394 l 110 986 l 206 986 l 206 489 q 221 338 206 411 q 273 207 236 264 q 371 115 310 150 q 524 81 432 81 z "},"ȗ":{"ha":825,"x_min":97,"x_max":749,"o":"m 401 965 q 347 938 371 965 q 324 874 324 910 l 265 874 q 304 974 265 933 q 401 1014 343 1014 q 454 1003 429 1014 q 498 973 479 992 q 527 928 517 954 q 538 874 538 903 l 481 874 q 453 939 476 913 q 401 965 431 965 m 331 -14 q 155 65 213 -14 q 97 299 97 143 l 97 724 l 192 724 l 192 315 q 360 69 192 69 q 442 83 401 69 q 516 124 482 97 q 577 186 550 150 q 621 268 604 222 l 621 724 l 715 724 l 715 122 q 749 83 715 83 l 749 0 q 722 -3 732 -3 q 707 -3 711 -3 q 653 21 674 -1 q 632 81 632 43 l 632 164 q 503 33 585 79 q 331 -14 422 -14 z "},"Ș":{"ha":843,"x_min":44,"x_max":796,"o":"m 400 -276 l 424 -174 l 396 -174 l 396 -68 l 483 -68 l 483 -174 l 449 -276 l 400 -276 m 700 801 q 589 878 658 849 q 431 907 519 907 q 240 858 300 907 q 181 724 181 808 q 197 651 181 679 q 246 601 213 622 q 331 565 279 581 q 454 535 383 550 q 597 497 533 518 q 704 445 660 476 q 772 369 749 414 q 796 258 796 325 q 769 140 796 190 q 696 57 743 90 q 583 8 649 24 q 440 -8 518 -8 q 44 135 211 -8 l 93 214 q 156 161 119 186 q 238 117 193 136 q 335 88 283 99 q 443 78 386 78 q 627 120 561 78 q 693 249 693 163 q 674 326 693 294 q 618 380 656 357 q 525 419 581 403 q 396 453 469 436 q 260 490 318 471 q 161 539 201 510 q 101 609 121 568 q 81 710 81 650 q 106 831 81 778 q 179 920 132 885 q 290 974 226 956 q 432 993 354 993 q 608 963 531 993 q 747 879 685 933 l 700 801 z "},"ș":{"ha":676,"x_min":40,"x_max":626,"o":"m 301 -276 l 325 -174 l 297 -174 l 297 -68 l 385 -68 l 385 -174 l 350 -276 l 301 -276 m 344 -14 q 179 14 260 -14 q 40 94 99 42 l 83 158 q 208 83 144 108 q 343 58 271 58 q 483 94 431 58 q 535 194 535 129 q 521 245 535 225 q 480 281 507 265 q 412 308 453 296 q 317 332 371 319 q 208 363 254 347 q 133 397 163 378 q 88 445 103 417 q 74 517 74 474 q 95 613 74 571 q 153 681 117 654 q 240 722 190 708 q 344 736 289 736 q 496 709 428 736 q 606 638 564 682 l 560 582 q 462 644 519 624 q 342 665 404 665 q 272 658 304 665 q 216 633 240 650 q 178 591 192 617 q 164 531 164 565 q 174 483 164 501 q 206 452 183 465 q 262 428 228 439 q 344 407 296 418 q 467 374 414 390 q 555 335 519 357 q 608 281 590 313 q 626 203 626 249 q 550 44 626 103 q 344 -14 474 -14 z "},"Ț":{"ha":847,"x_min":24,"x_max":824,"o":"m 383 -276 l 407 -174 l 379 -174 l 379 -68 l 467 -68 l 467 -174 l 432 -276 l 383 -276 m 824 900 l 472 900 l 472 0 l 375 0 l 375 900 l 24 900 l 24 986 l 824 986 l 824 900 z "},"ț":{"ha":465,"x_min":35,"x_max":451,"o":"m 243 -276 l 267 -174 l 239 -174 l 239 -68 l 326 -68 l 326 -174 l 292 -276 l 243 -276 m 451 35 q 427 24 443 31 q 390 10 411 17 q 343 -3 369 3 q 288 -8 317 -8 q 229 0 257 -8 q 181 26 201 8 q 147 69 160 43 q 135 131 135 96 l 135 649 l 35 649 l 35 724 l 135 724 l 135 968 l 229 968 l 229 724 l 396 724 l 396 649 l 229 649 l 229 157 q 258 98 232 117 q 317 79 283 79 q 388 92 357 79 q 426 111 418 106 l 451 35 z "},"ə":{"ha":815,"x_min":40,"x_max":761,"o":"m 403 -14 q 258 16 324 -14 q 144 97 192 46 q 68 215 96 147 q 40 360 40 283 q 41 378 40 367 q 43 394 42 389 l 661 394 q 634 502 657 453 q 576 587 611 551 q 493 642 540 622 q 394 663 446 663 q 260 627 322 663 q 172 533 197 592 l 90 556 q 138 628 107 594 q 208 685 168 661 q 297 722 249 708 q 399 736 346 736 q 543 706 476 736 q 658 624 610 676 q 734 503 707 572 q 761 357 761 435 q 735 213 761 281 q 660 95 708 146 q 547 15 613 44 q 403 -14 482 -14 m 403 58 q 502 78 456 58 q 583 135 549 99 q 639 222 618 172 q 664 329 660 271 l 133 329 q 160 220 138 269 q 219 135 182 171 q 303 78 256 99 q 403 58 350 58 z "},"ˉ":{"ha":550,"x_min":75,"x_max":476,"o":"m 75 921 l 75 986 l 476 986 l 476 921 l 75 921 z "},"Δ":{"ha":899,"x_min":32,"x_max":867,"o":"m 867 74 l 867 0 l 32 0 l 32 74 l 410 986 l 490 986 l 867 74 m 760 86 l 450 872 l 139 86 l 760 86 z "},"Ω":{"ha":1060,"x_min":63,"x_max":996,"o":"m 63 86 l 328 86 q 142 260 210 149 q 75 507 75 371 q 110 691 75 603 q 205 846 144 779 q 349 953 265 913 q 529 993 432 993 q 710 953 626 993 q 855 846 794 913 q 950 691 915 779 q 985 507 985 603 q 917 260 985 371 q 732 86 850 149 l 996 86 l 996 0 l 594 0 l 594 86 q 717 149 663 106 q 810 249 772 192 q 867 374 847 307 q 888 507 888 440 q 863 652 888 581 q 791 780 838 724 q 678 870 744 836 q 529 904 613 904 q 381 870 447 904 q 269 780 315 836 q 197 652 222 724 q 172 507 172 581 q 192 374 172 440 q 250 249 213 307 q 342 149 288 192 q 464 86 396 106 l 464 0 l 63 0 l 63 86 z "},"μ":{"ha":833,"x_min":104,"x_max":757,"o":"m 104 724 l 199 724 l 199 315 q 369 69 199 69 q 451 83 411 69 q 524 124 490 97 q 585 186 558 150 q 629 268 613 222 l 629 724 l 724 724 l 724 122 q 757 83 724 83 l 757 0 q 731 -3 740 -3 q 711 -3 721 -3 q 660 24 679 0 q 640 86 640 47 l 640 164 q 593 94 622 126 q 527 38 564 63 q 449 0 490 14 q 364 -14 407 -14 q 255 19 297 -14 q 193 104 213 51 l 193 -294 l 104 -294 l 104 724 z "},"π":{"ha":818,"x_min":35,"x_max":783,"o":"m 238 638 l 238 0 l 146 0 l 146 638 l 35 638 l 35 724 l 760 724 l 760 638 l 607 638 l 607 164 q 629 101 607 124 q 692 78 651 78 q 728 82 707 78 q 767 93 749 86 l 783 17 q 718 -1 756 6 q 653 -8 681 -8 q 553 28 590 -8 q 515 132 515 65 l 515 638 l 238 638 z "},"Ḍ":{"ha":993,"x_min":124,"x_max":931,"o":"m 426 -231 l 426 -94 l 513 -94 l 513 -231 l 426 -231 m 124 0 l 124 986 l 458 986 q 665 947 576 986 q 812 842 753 908 q 901 685 871 775 q 931 494 931 596 q 897 291 931 382 q 802 135 864 200 q 653 35 740 71 q 458 0 567 0 l 124 0 m 833 494 q 808 658 833 583 q 735 786 783 732 q 618 870 688 840 q 458 900 549 900 l 221 900 l 221 86 l 458 86 q 620 117 550 86 q 738 203 690 149 q 809 333 785 258 q 833 494 833 407 z "},"ḍ":{"ha":864,"x_min":56,"x_max":788,"o":"m 371 -231 l 371 -94 l 457 -94 l 457 -231 l 371 -231 m 401 -14 q 263 17 326 -14 q 153 100 199 49 q 81 219 107 151 q 56 360 56 286 q 81 505 56 436 q 149 625 106 574 q 253 706 193 676 q 386 736 314 736 q 549 688 478 736 q 660 572 619 640 l 660 1014 l 754 1014 l 754 122 q 788 83 754 83 l 788 0 q 754 -4 767 -4 q 696 17 721 -4 q 671 69 671 39 l 671 140 q 554 28 628 69 q 401 -14 481 -14 m 422 69 q 497 83 457 69 q 571 122 536 97 q 630 178 606 146 q 660 249 654 211 l 660 472 q 619 542 646 510 q 559 600 593 575 q 486 639 525 625 q 410 653 447 653 q 304 628 351 653 q 223 562 257 603 q 171 468 189 521 q 153 360 153 415 q 174 249 153 301 q 231 156 194 196 q 316 93 267 117 q 422 69 365 69 z "},"Ḥ":{"ha":1025,"x_min":124,"x_max":901,"o":"m 901 986 l 901 0 l 806 0 l 806 461 l 221 461 l 221 0 l 124 0 l 124 986 l 221 986 l 221 547 l 806 547 l 806 986 l 901 986 m 471 -231 l 471 -94 l 557 -94 l 557 -231 l 471 -231 z "},"ḥ":{"ha":810,"x_min":104,"x_max":713,"o":"m 713 0 l 618 0 l 618 404 q 576 589 618 528 q 451 650 533 650 q 372 634 411 650 q 297 590 332 618 q 237 525 263 563 q 199 443 211 488 l 199 0 l 104 0 l 104 1014 l 199 1014 l 199 560 q 318 689 242 642 q 483 736 394 736 q 589 713 546 736 q 660 649 632 690 q 700 551 688 608 q 713 424 713 493 l 713 0 m 369 -231 l 369 -94 l 456 -94 l 456 -231 l 369 -231 z "},"Ṅ":{"ha":1072,"x_min":124,"x_max":949,"o":"m 497 1139 l 497 1274 l 583 1274 l 583 1139 l 497 1139 m 221 806 l 221 0 l 124 0 l 124 986 l 199 986 l 851 165 l 851 985 l 949 985 l 949 0 l 864 0 l 221 806 z "},"ṅ":{"ha":810,"x_min":104,"x_max":713,"o":"m 368 879 l 368 1014 l 454 1014 l 454 879 l 368 879 m 713 0 l 618 0 l 618 404 q 580 592 618 533 q 463 650 542 650 q 379 635 421 650 q 302 592 338 619 q 239 526 267 564 q 199 443 211 488 l 199 0 l 104 0 l 104 724 l 190 724 l 190 560 q 317 688 235 639 q 497 736 400 736 q 599 714 557 736 q 665 651 640 692 q 701 553 690 611 q 713 424 713 494 l 713 0 z "},"Ṛ":{"ha":907,"x_min":124,"x_max":854,"o":"m 124 0 l 124 986 l 540 986 q 658 959 604 986 q 750 888 711 932 q 810 789 789 844 q 832 676 832 733 q 816 573 832 622 q 772 484 800 524 q 703 417 743 444 q 613 381 663 390 l 854 0 l 744 0 l 513 364 l 221 364 l 221 0 l 124 0 m 221 450 l 543 450 q 622 469 586 450 q 682 519 657 488 q 721 592 707 551 q 735 676 735 632 q 719 762 735 721 q 676 833 703 803 q 612 882 649 864 q 535 900 575 900 l 221 900 l 221 450 m 411 -231 l 411 -94 l 497 -94 l 497 -231 l 411 -231 z "},"ṛ":{"ha":488,"x_min":104,"x_max":465,"o":"m 465 640 q 299 588 369 638 q 199 450 228 538 l 199 0 l 104 0 l 104 724 l 193 724 l 193 550 q 301 681 233 633 q 447 728 369 728 q 465 726 458 728 l 465 640 m 108 -231 l 108 -94 l 194 -94 l 194 -231 l 108 -231 z "},"Ṣ":{"ha":843,"x_min":44,"x_max":796,"o":"m 700 801 q 589 878 658 849 q 431 907 519 907 q 240 858 300 907 q 181 724 181 808 q 197 651 181 679 q 246 601 213 622 q 331 565 279 581 q 454 535 383 550 q 597 497 533 518 q 704 445 660 476 q 772 369 749 414 q 796 258 796 325 q 769 140 796 190 q 696 57 743 90 q 583 8 649 24 q 440 -8 518 -8 q 44 135 211 -8 l 93 214 q 156 161 119 186 q 238 117 193 136 q 335 88 283 99 q 443 78 386 78 q 627 120 561 78 q 693 249 693 163 q 674 326 693 294 q 618 380 656 357 q 525 419 581 403 q 396 453 469 436 q 260 490 318 471 q 161 539 201 510 q 101 609 121 568 q 81 710 81 650 q 106 831 81 778 q 179 920 132 885 q 290 974 226 956 q 432 993 354 993 q 608 963 531 993 q 747 879 685 933 l 700 801 m 383 -231 l 383 -94 l 469 -94 l 469 -231 l 383 -231 z "},"ṣ":{"ha":676,"x_min":40,"x_max":626,"o":"m 344 -14 q 179 14 260 -14 q 40 94 99 42 l 83 158 q 208 83 144 108 q 343 58 271 58 q 483 94 431 58 q 535 194 535 129 q 521 245 535 225 q 480 281 507 265 q 412 308 453 296 q 317 332 371 319 q 208 363 254 347 q 133 397 163 378 q 88 445 103 417 q 74 517 74 474 q 95 613 74 571 q 153 681 117 654 q 240 722 190 708 q 344 736 289 736 q 496 709 428 736 q 606 638 564 682 l 560 582 q 462 644 519 624 q 342 665 404 665 q 272 658 304 665 q 216 633 240 650 q 178 591 192 617 q 164 531 164 565 q 174 483 164 501 q 206 452 183 465 q 262 428 228 439 q 344 407 296 418 q 467 374 414 390 q 555 335 519 357 q 608 281 590 313 q 626 203 626 249 q 550 44 626 103 q 344 -14 474 -14 m 293 -231 l 293 -94 l 379 -94 l 379 -231 l 293 -231 z "},"Ṭ":{"ha":847,"x_min":24,"x_max":824,"o":"m 378 -231 l 378 -94 l 464 -94 l 464 -231 l 378 -231 m 824 900 l 472 900 l 472 0 l 375 0 l 375 900 l 24 900 l 24 986 l 824 986 l 824 900 z "},"ṭ":{"ha":465,"x_min":35,"x_max":451,"o":"m 236 -231 l 236 -94 l 322 -94 l 322 -231 l 236 -231 m 451 35 q 427 24 443 31 q 390 10 411 17 q 343 -3 369 3 q 288 -8 317 -8 q 229 0 257 -8 q 181 26 201 8 q 147 69 160 43 q 135 131 135 96 l 135 649 l 35 649 l 35 724 l 135 724 l 135 968 l 229 968 l 229 724 l 396 724 l 396 649 l 229 649 l 229 157 q 258 98 232 117 q 317 79 283 79 q 388 92 357 79 q 426 111 418 106 l 451 35 z "},"Ẁ":{"ha":1453,"x_min":17,"x_max":1438,"o":"m 494 979 l 586 979 l 725 629 l 865 979 l 958 979 l 786 558 l 975 113 l 1332 986 l 1438 986 l 1019 0 l 933 0 l 726 488 l 518 0 l 433 0 l 17 986 l 121 986 l 479 113 l 667 558 l 494 979 m 596 1274 l 694 1274 l 778 1144 l 717 1121 l 596 1274 z "},"ẁ":{"ha":1129,"x_min":21,"x_max":1108,"o":"m 1015 724 l 1108 724 l 797 0 l 719 0 l 564 369 l 410 0 l 332 0 l 21 724 l 113 724 l 376 97 l 514 428 l 390 722 l 469 722 l 564 486 l 658 722 l 739 722 l 615 428 l 753 97 l 1015 724 m 436 1014 l 535 1014 l 618 885 l 557 861 l 436 1014 z "},"Ẃ":{"ha":1453,"x_min":17,"x_max":1438,"o":"m 733 1121 l 671 1144 l 753 1274 l 853 1274 l 733 1121 m 494 979 l 586 979 l 725 629 l 865 979 l 958 979 l 786 558 l 975 113 l 1332 986 l 1438 986 l 1019 0 l 933 0 l 726 488 l 518 0 l 433 0 l 17 986 l 121 986 l 479 113 l 667 558 l 494 979 z "},"ẃ":{"ha":1129,"x_min":21,"x_max":1108,"o":"m 572 861 l 510 885 l 592 1014 l 692 1014 l 572 861 m 1015 724 l 1108 724 l 797 0 l 719 0 l 564 369 l 410 0 l 332 0 l 21 724 l 113 724 l 376 97 l 514 428 l 390 722 l 469 722 l 564 486 l 658 722 l 739 722 l 615 428 l 753 97 l 1015 724 z "},"Ẅ":{"ha":1453,"x_min":17,"x_max":1438,"o":"m 582 1139 l 582 1269 l 663 1269 l 663 1139 l 582 1139 m 789 1139 l 789 1269 l 869 1269 l 869 1139 l 789 1139 m 494 979 l 586 979 l 725 629 l 865 979 l 958 979 l 786 558 l 975 113 l 1332 986 l 1438 986 l 1019 0 l 933 0 l 726 488 l 518 0 l 433 0 l 17 986 l 121 986 l 479 113 l 667 558 l 494 979 z "},"ẅ":{"ha":1129,"x_min":21,"x_max":1108,"o":"m 421 879 l 421 1010 l 501 1010 l 501 879 l 421 879 m 628 879 l 628 1010 l 708 1010 l 708 879 l 628 879 m 1015 724 l 1108 724 l 797 0 l 719 0 l 564 369 l 410 0 l 332 0 l 21 724 l 113 724 l 376 97 l 514 428 l 390 722 l 469 722 l 564 486 l 658 722 l 739 722 l 615 428 l 753 97 l 1015 724 z "},"Ẓ":{"ha":874,"x_min":43,"x_max":826,"o":"m 43 76 l 714 900 l 54 900 l 54 986 l 826 986 l 826 910 l 164 86 l 825 86 l 825 0 l 43 0 l 43 76 m 406 -231 l 406 -94 l 492 -94 l 492 -231 l 406 -231 z "},"ẓ":{"ha":683,"x_min":43,"x_max":635,"o":"m 43 64 l 532 653 l 54 653 l 54 724 l 635 724 l 635 660 l 147 71 l 633 71 l 633 0 l 43 0 l 43 64 m 296 -231 l 296 -94 l 382 -94 l 382 -231 l 296 -231 z "},"Ẹ":{"ha":846,"x_min":124,"x_max":786,"o":"m 786 86 l 786 0 l 124 0 l 124 986 l 774 986 l 774 900 l 221 900 l 221 544 l 703 544 l 703 463 l 221 463 l 221 86 l 786 86 m 410 -231 l 410 -94 l 496 -94 l 496 -231 l 410 -231 z "},"ẹ":{"ha":815,"x_min":54,"x_max":774,"o":"m 417 -14 q 272 16 338 -14 q 157 98 206 46 q 81 218 108 150 q 54 364 54 286 q 81 508 54 440 q 156 626 108 575 q 271 706 204 676 q 415 736 338 736 q 560 706 494 736 q 674 625 626 676 q 747 507 721 574 q 774 365 774 440 q 774 343 774 354 q 772 328 774 332 l 153 328 q 180 220 157 269 q 239 135 203 171 q 322 78 275 99 q 421 58 368 58 q 490 68 456 58 q 554 94 525 78 q 607 135 583 111 q 643 189 631 160 l 725 167 q 678 94 708 126 q 607 37 647 61 q 518 -1 567 13 q 417 -14 469 -14 m 683 400 q 656 506 679 458 q 598 589 633 554 q 516 643 563 624 q 417 663 469 663 q 317 643 364 663 q 234 589 269 624 q 177 506 199 554 q 151 400 156 457 l 683 400 m 376 -231 l 376 -94 l 463 -94 l 463 -231 l 376 -231 z "},"Ẽ":{"ha":846,"x_min":124,"x_max":786,"o":"m 786 86 l 786 0 l 124 0 l 124 986 l 774 986 l 774 900 l 221 900 l 221 544 l 703 544 l 703 463 l 221 463 l 221 86 l 786 86 m 554 1146 q 499 1154 522 1146 q 456 1173 476 1163 q 417 1192 436 1183 q 376 1201 399 1201 q 340 1192 353 1201 q 319 1170 326 1182 q 309 1148 311 1158 q 307 1135 307 1138 l 249 1135 q 253 1163 249 1142 q 272 1207 258 1185 q 311 1247 286 1229 q 375 1264 336 1264 q 426 1255 404 1264 q 467 1235 447 1246 q 506 1215 486 1224 q 553 1206 526 1206 q 595 1215 579 1206 q 619 1238 611 1225 q 630 1260 628 1250 q 632 1274 632 1271 l 690 1274 q 685 1246 690 1267 q 665 1203 679 1225 q 623 1163 650 1181 q 554 1146 596 1146 z "},"ẽ":{"ha":815,"x_min":54,"x_max":774,"o":"m 417 -14 q 272 16 338 -14 q 157 98 206 46 q 81 218 108 150 q 54 364 54 286 q 81 508 54 440 q 156 626 108 575 q 271 706 204 676 q 415 736 338 736 q 560 706 494 736 q 674 625 626 676 q 747 507 721 574 q 774 365 774 440 q 774 343 774 354 q 772 328 774 332 l 153 328 q 180 220 157 269 q 239 135 203 171 q 322 78 275 99 q 421 58 368 58 q 490 68 456 58 q 554 94 525 78 q 607 135 583 111 q 643 189 631 160 l 725 167 q 678 94 708 126 q 607 37 647 61 q 518 -1 567 13 q 417 -14 469 -14 m 683 400 q 656 506 679 458 q 598 589 633 554 q 516 643 563 624 q 417 663 469 663 q 317 643 364 663 q 234 589 269 624 q 177 506 199 554 q 151 400 156 457 l 683 400 m 499 886 q 444 894 467 886 q 401 913 421 903 q 362 933 381 924 q 321 942 343 942 q 284 932 297 942 q 263 910 271 922 q 253 888 256 899 q 251 875 251 878 l 193 875 q 198 903 193 882 q 217 947 203 925 q 256 987 231 969 q 319 1004 281 1004 q 370 995 349 1004 q 411 975 392 986 q 451 955 431 964 q 497 946 471 946 q 540 956 524 946 q 564 978 556 965 q 574 1001 572 990 q 576 1014 576 1011 l 635 1014 q 629 986 635 1007 q 609 943 624 965 q 567 903 594 921 q 499 886 540 886 z "},"Ị":{"ha":344,"x_min":124,"x_max":221,"o":"m 124 0 l 124 986 l 221 986 l 221 0 l 124 0 m 126 -231 l 126 -94 l 213 -94 l 213 -231 l 126 -231 z "},"ị":{"ha":303,"x_min":104,"x_max":199,"o":"m 104 0 l 104 724 l 199 724 l 199 0 l 104 0 m 104 875 l 104 1014 l 199 1014 l 199 875 l 104 875 m 107 -231 l 107 -94 l 193 -94 l 193 -231 l 107 -231 z "},"Ọ":{"ha":1043,"x_min":58,"x_max":983,"o":"m 476 -231 l 476 -94 l 563 -94 l 563 -231 l 476 -231 m 521 -7 q 333 35 418 -7 q 186 148 247 78 q 92 308 125 218 q 58 493 58 399 q 94 682 58 592 q 192 842 129 772 q 339 952 254 911 q 522 993 424 993 q 710 949 625 993 q 856 835 796 906 q 950 674 917 764 q 983 492 983 585 q 948 303 983 393 q 851 144 913 213 q 704 34 789 75 q 521 -7 619 -7 m 156 493 q 182 338 156 413 q 257 206 208 264 q 372 115 306 149 q 521 81 439 81 q 672 117 604 81 q 788 211 740 153 q 860 343 835 269 q 886 493 886 417 q 859 648 886 574 q 783 779 832 722 q 668 870 735 836 q 521 904 601 904 q 369 869 438 904 q 254 775 301 833 q 181 643 207 717 q 156 493 156 569 z "},"ọ":{"ha":826,"x_min":54,"x_max":772,"o":"m 369 -231 l 369 -94 l 456 -94 l 456 -231 l 369 -231 m 413 -14 q 268 16 333 -14 q 155 97 203 46 q 81 217 107 149 q 54 360 54 285 q 81 504 54 436 q 156 624 108 572 q 269 706 204 675 q 413 736 335 736 q 556 706 490 736 q 670 624 622 675 q 745 504 718 572 q 772 360 772 436 q 746 217 772 285 q 672 97 719 149 q 558 16 624 46 q 413 -14 492 -14 m 150 358 q 171 245 150 297 q 227 153 192 193 q 310 92 263 114 q 413 69 358 69 q 515 92 467 69 q 599 155 563 115 q 656 247 635 194 q 676 361 676 300 q 656 474 676 421 q 599 567 635 528 q 515 630 563 607 q 413 653 467 653 q 311 630 358 653 q 228 567 264 607 q 171 473 192 526 q 150 358 150 419 z "},"Ụ":{"ha":1049,"x_min":110,"x_max":940,"o":"m 524 81 q 678 116 617 81 q 777 209 740 151 q 828 340 814 267 q 843 489 843 414 l 843 986 l 940 986 l 940 489 q 918 299 940 389 q 847 142 896 210 q 718 33 797 74 q 525 -7 639 -7 q 328 35 408 -7 q 200 147 249 78 q 131 306 151 217 q 110 489 110 394 l 110 986 l 206 986 l 206 489 q 221 338 206 411 q 273 207 236 264 q 371 115 310 150 q 524 81 432 81 m 485 -231 l 485 -94 l 571 -94 l 571 -231 l 485 -231 z "},"ụ":{"ha":825,"x_min":97,"x_max":749,"o":"m 331 -14 q 155 65 213 -14 q 97 299 97 143 l 97 724 l 192 724 l 192 315 q 360 69 192 69 q 442 83 401 69 q 516 124 482 97 q 577 186 550 150 q 621 268 604 222 l 621 724 l 715 724 l 715 122 q 749 83 715 83 l 749 0 q 722 -3 732 -3 q 707 -3 711 -3 q 653 21 674 -1 q 632 81 632 43 l 632 164 q 503 33 585 79 q 331 -14 422 -14 m 353 -231 l 353 -94 l 439 -94 l 439 -231 l 353 -231 z "},"Ỳ":{"ha":904,"x_min":22,"x_max":882,"o":"m 129 986 l 451 456 l 776 986 l 882 986 l 500 367 l 500 0 l 403 0 l 403 369 l 22 986 l 129 986 m 322 1274 l 421 1274 l 504 1144 l 443 1121 l 322 1274 z "},"ỳ":{"ha":753,"x_min":21,"x_max":725,"o":"m 146 -222 q 167 -224 157 -224 q 188 -225 178 -225 q 227 -218 213 -225 q 256 -187 242 -211 q 287 -119 269 -164 q 336 0 304 -75 l 21 724 l 118 724 l 386 88 l 635 724 l 725 724 l 350 -210 q 299 -280 335 -250 q 203 -310 264 -310 q 176 -309 189 -310 q 146 -306 164 -308 l 146 -222 m 257 1014 l 356 1014 l 439 885 l 378 861 l 257 1014 z "},"Ỹ":{"ha":904,"x_min":22,"x_max":882,"o":"m 129 986 l 451 456 l 776 986 l 882 986 l 500 367 l 500 0 l 403 0 l 403 369 l 22 986 l 129 986 m 538 1146 q 483 1154 506 1146 q 440 1173 460 1163 q 401 1192 419 1183 q 360 1201 382 1201 q 323 1192 336 1201 q 302 1170 310 1182 q 292 1148 294 1158 q 290 1135 290 1138 l 232 1135 q 237 1163 232 1142 q 256 1207 242 1185 q 294 1247 269 1229 q 358 1264 319 1264 q 409 1255 388 1264 q 450 1235 431 1246 q 490 1215 469 1224 q 536 1206 510 1206 q 578 1215 563 1206 q 603 1238 594 1225 q 613 1260 611 1250 q 615 1274 615 1271 l 674 1274 q 668 1246 674 1267 q 648 1203 663 1225 q 606 1163 633 1181 q 538 1146 579 1146 z "}}}
